{
	"asset":{
		"generator":"Khronos glTF Blender I/O v4.2.70",
		"version":"2.0"
	},
	"scene":0,
	"scenes":[
		{
			"name":"Scene",
			"nodes":[
				0,
				1,
				2,
				3,
				4
			]
		}
	],
	"nodes":[
		{
			"mesh":0,
			"name":"spray_body",
			"scale":[
				0.5418750643730164,
				1.5,
				0.5418750643730164
			]
		},
		{
			"mesh":1,
			"name":"spray_inside_body",
			"scale":[
				0.5100000500679016,
				0.060000017285346985,
				0.5100000500679016
			],
			"translation":[
				0,
				1.5,
				0
			]
		},
		{
			"mesh":2,
			"name":"spray_head",
			"scale":[
				0.48875001072883606,
				0.7300000190734863,
				0.48875001072883606
			],
			"translation":[
				0,
				1.5499999523162842,
				0
			]
		},
		{
			"mesh":3,
			"name":"spray_button",
			"scale":[
				0.09750000387430191,
				0.30000001192092896,
				0.09750000387430191
			],
			"translation":[
				0,
				2.475954532623291,
				0
			]
		},
		{
			"name":"nozzlePoint",
			"scale":[
				0.5,
				1,
				0.5
			],
			"translation":[
				0,
				2.5999999046325684,
				0
			]
		}
	],
	"materials":[
		{
			"doubleSided":true,
			"name":"\u30de\u30c6\u30ea\u30a2\u30eb",
			"pbrMetallicRoughness":{
				"baseColorTexture":{
					"index":0
				},
				"metallicFactor":0,
				"roughnessFactor":0.5
			}
		},
		{
			"doubleSided":true,
			"name":"\u30de\u30c6\u30ea\u30a2\u30eb.001",
			"pbrMetallicRoughness":{
				"baseColorTexture":{
					"index":1
				},
				"metallicFactor":0,
				"roughnessFactor":0.5
			}
		},
		{
			"doubleSided":true,
			"name":"\u30de\u30c6\u30ea\u30a2\u30eb.002",
			"pbrMetallicRoughness":{
				"baseColorTexture":{
					"index":2
				},
				"metallicFactor":0,
				"roughnessFactor":0.5
			}
		},
		{
			"doubleSided":true,
			"name":"\u30de\u30c6\u30ea\u30a2\u30eb.003",
			"pbrMetallicRoughness":{
				"baseColorTexture":{
					"index":3
				},
				"metallicFactor":0,
				"roughnessFactor":0.5
			}
		}
	],
	"meshes":[
		{
			"name":"\u5186\u67f1",
			"primitives":[
				{
					"attributes":{
						"POSITION":0,
						"NORMAL":1,
						"TEXCOORD_0":2
					},
					"indices":3,
					"material":0
				}
			]
		},
		{
			"name":"\u5186\u67f1.001",
			"primitives":[
				{
					"attributes":{
						"POSITION":4,
						"NORMAL":5,
						"TEXCOORD_0":6
					},
					"indices":7,
					"material":1
				}
			]
		},
		{
			"name":"\u7403",
			"primitives":[
				{
					"attributes":{
						"POSITION":8,
						"NORMAL":9,
						"TEXCOORD_0":10
					},
					"indices":11,
					"material":2
				}
			]
		},
		{
			"name":"\u5186\u67f1.002",
			"primitives":[
				{
					"attributes":{
						"POSITION":12,
						"NORMAL":13,
						"TEXCOORD_0":14
					},
					"indices":15,
					"material":3
				}
			]
		}
	],
	"textures":[
		{
			"sampler":0,
			"source":0
		},
		{
			"sampler":0,
			"source":1
		},
		{
			"sampler":0,
			"source":1
		},
		{
			"sampler":0,
			"source":2
		}
	],
	"images":[
		{
			"mimeType":"image/png",
			"name":"spray_body_tex",
			"uri":"spray_body_tex.png"
		},
		{
			"mimeType":"image/png",
			"name":"spray_inside_body_tex",
			"uri":"spray_inside_body_tex.png"
		},
		{
			"mimeType":"image/png",
			"name":"spray_button_tex",
			"uri":"spray_button_tex.png"
		}
	],
	"accessors":[
		{
			"bufferView":0,
			"componentType":5126,
			"count":130,
			"max":[
				1,
				1,
				1
			],
			"min":[
				-1,
				-1,
				-1
			],
			"type":"VEC3"
		},
		{
			"bufferView":1,
			"componentType":5126,
			"count":130,
			"type":"VEC3"
		},
		{
			"bufferView":2,
			"componentType":5126,
			"count":130,
			"type":"VEC2"
		},
		{
			"bufferView":3,
			"componentType":5123,
			"count":372,
			"type":"SCALAR"
		},
		{
			"bufferView":4,
			"componentType":5126,
			"count":194,
			"max":[
				1,
				1,
				1
			],
			"min":[
				-1,
				0,
				-1
			],
			"type":"VEC3"
		},
		{
			"bufferView":5,
			"componentType":5126,
			"count":194,
			"type":"VEC3"
		},
		{
			"bufferView":6,
			"componentType":5126,
			"count":194,
			"type":"VEC2"
		},
		{
			"bufferView":7,
			"componentType":5123,
			"count":570,
			"type":"SCALAR"
		},
		{
			"bufferView":8,
			"componentType":5126,
			"count":274,
			"max":[
				0.9999997019767761,
				1,
				0.9999993443489075
			],
			"min":[
				-0.9999990463256836,
				0,
				-1
			],
			"type":"VEC3"
		},
		{
			"bufferView":9,
			"componentType":5126,
			"count":274,
			"type":"VEC3"
		},
		{
			"bufferView":10,
			"componentType":5126,
			"count":274,
			"type":"VEC2"
		},
		{
			"bufferView":11,
			"componentType":5123,
			"count":1440,
			"type":"SCALAR"
		},
		{
			"bufferView":12,
			"componentType":5126,
			"count":64,
			"max":[
				1,
				1,
				1
			],
			"min":[
				-1,
				-1,
				-1
			],
			"type":"VEC3"
		},
		{
			"bufferView":13,
			"componentType":5126,
			"count":64,
			"type":"VEC3"
		},
		{
			"bufferView":14,
			"componentType":5126,
			"count":64,
			"type":"VEC2"
		},
		{
			"bufferView":15,
			"componentType":5123,
			"count":372,
			"type":"SCALAR"
		}
	],
	"bufferViews":[
		{
			"buffer":0,
			"byteLength":1560,
			"byteOffset":0,
			"target":34962
		},
		{
			"buffer":0,
			"byteLength":1560,
			"byteOffset":1560,
			"target":34962
		},
		{
			"buffer":0,
			"byteLength":1040,
			"byteOffset":3120,
			"target":34962
		},
		{
			"buffer":0,
			"byteLength":744,
			"byteOffset":4160,
			"target":34963
		},
		{
			"buffer":0,
			"byteLength":2328,
			"byteOffset":4904,
			"target":34962
		},
		{
			"buffer":0,
			"byteLength":2328,
			"byteOffset":7232,
			"target":34962
		},
		{
			"buffer":0,
			"byteLength":1552,
			"byteOffset":9560,
			"target":34962
		},
		{
			"buffer":0,
			"byteLength":1140,
			"byteOffset":11112,
			"target":34963
		},
		{
			"buffer":0,
			"byteLength":3288,
			"byteOffset":12252,
			"target":34962
		},
		{
			"buffer":0,
			"byteLength":3288,
			"byteOffset":15540,
			"target":34962
		},
		{
			"buffer":0,
			"byteLength":2192,
			"byteOffset":18828,
			"target":34962
		},
		{
			"buffer":0,
			"byteLength":2880,
			"byteOffset":21020,
			"target":34963
		},
		{
			"buffer":0,
			"byteLength":768,
			"byteOffset":23900,
			"target":34962
		},
		{
			"buffer":0,
			"byteLength":768,
			"byteOffset":24668,
			"target":34962
		},
		{
			"buffer":0,
			"byteLength":512,
			"byteOffset":25436,
			"target":34962
		},
		{
			"buffer":0,
			"byteLength":744,
			"byteOffset":25948,
			"target":34963
		}
	],
	"samplers":[
		{
			"magFilter":9729,
			"minFilter":9987
		}
	],
	"buffers":[
		{
			"byteLength":26692,
			"uri":"spray.bin"
		}
	]
}
