{
	"asset":{
		"generator":"Khronos glTF Blender I/O v4.2.70",
		"version":"2.0"
	},
	"scene":0,
	"scenes":[
		{
			"name":"Scene",
			"nodes":[
				0
			]
		}
	],
	"nodes":[
		{
			"mesh":0,
			"name":"Carpet B "
		}
	],
	"materials":[
		{
			"doubleSided":true,
			"name":"Blue.002",
			"pbrMetallicRoughness":{
				"baseColorFactor":[
					0.07112232595682144,
					0.11088339984416962,
					0.26890936493873596,
					1
				],
				"metallicFactor":0
			}
		},
		{
			"doubleSided":true,
			"name":"White.010",
			"pbrMetallicRoughness":{
				"baseColorFactor":[
					0.6353368163108826,
					0.6353368163108826,
					0.6353368163108826,
					1
				],
				"metallicFactor":0,
				"roughnessFactor":0.5
			}
		}
	],
	"meshes":[
		{
			"name":"Cube.060",
			"primitives":[
				{
					"attributes":{
						"POSITION":0,
						"NORMAL":1,
						"TEXCOORD_0":2
					},
					"indices":3,
					"material":0
				},
				{
					"attributes":{
						"POSITION":4,
						"NORMAL":5,
						"TEXCOORD_0":6
					},
					"indices":7,
					"material":1
				}
			]
		}
	],
	"accessors":[
		{
			"bufferView":0,
			"componentType":5126,
			"count":68,
			"max":[
				5.849306106567383,
				0.10807371139526367,
				2.441140651702881
			],
			"min":[
				-5.849306106567383,
				-0.15286563336849213,
				-2.441140651702881
			],
			"type":"VEC3"
		},
		{
			"bufferView":1,
			"componentType":5126,
			"count":68,
			"type":"VEC3"
		},
		{
			"bufferView":2,
			"componentType":5126,
			"count":68,
			"type":"VEC2"
		},
		{
			"bufferView":3,
			"componentType":5123,
			"count":150,
			"type":"SCALAR"
		},
		{
			"bufferView":4,
			"componentType":5126,
			"count":4,
			"max":[
				3.9435863494873047,
				0.10807371139526367,
				0.6129658818244934
			],
			"min":[
				-3.9435863494873047,
				0.10807371139526367,
				-0.6129658818244934
			],
			"type":"VEC3"
		},
		{
			"bufferView":5,
			"componentType":5126,
			"count":4,
			"type":"VEC3"
		},
		{
			"bufferView":6,
			"componentType":5126,
			"count":4,
			"type":"VEC2"
		},
		{
			"bufferView":7,
			"componentType":5123,
			"count":6,
			"type":"SCALAR"
		}
	],
	"bufferViews":[
		{
			"buffer":0,
			"byteLength":816,
			"byteOffset":0,
			"target":34962
		},
		{
			"buffer":0,
			"byteLength":816,
			"byteOffset":816,
			"target":34962
		},
		{
			"buffer":0,
			"byteLength":544,
			"byteOffset":1632,
			"target":34962
		},
		{
			"buffer":0,
			"byteLength":300,
			"byteOffset":2176,
			"target":34963
		},
		{
			"buffer":0,
			"byteLength":48,
			"byteOffset":2476,
			"target":34962
		},
		{
			"buffer":0,
			"byteLength":48,
			"byteOffset":2524,
			"target":34962
		},
		{
			"buffer":0,
			"byteLength":32,
			"byteOffset":2572,
			"target":34962
		},
		{
			"buffer":0,
			"byteLength":12,
			"byteOffset":2604,
			"target":34963
		}
	],
	"buffers":[
		{
			"byteLength":2616,
			"uri":"carpetA.bin"
		}
	]
}
