{
	"asset":{
		"generator":"Khronos glTF Blender I/O v4.2.70",
		"version":"2.0"
	},
	"scene":0,
	"scenes":[
		{
			"name":"Scene",
			"nodes":[
				0
			]
		}
	],
	"nodes":[
		{
			"mesh":0,
			"name":"Ceiling light"
		}
	],
	"materials":[
		{
			"doubleSided":true,
			"name":"Grey.040",
			"pbrMetallicRoughness":{
				"baseColorFactor":[
					0.2600274980068207,
					0.2600274980068207,
					0.2600274980068207,
					1
				],
				"metallicFactor":0
			}
		},
		{
			"doubleSided":true,
			"name":"Green.005",
			"pbrMetallicRoughness":{
				"baseColorFactor":[
					0.07419605553150177,
					0.2786073684692383,
					0.07167497277259827,
					1
				],
				"metallicFactor":0,
				"roughnessFactor":0.5
			}
		}
	],
	"meshes":[
		{
			"name":"Cylinder.019",
			"primitives":[
				{
					"attributes":{
						"POSITION":0,
						"NORMAL":1,
						"TEXCOORD_0":2
					},
					"indices":3,
					"material":0
				},
				{
					"attributes":{
						"POSITION":4,
						"NORMAL":5,
						"TEXCOORD_0":6
					},
					"indices":7,
					"material":1
				}
			]
		}
	],
	"accessors":[
		{
			"bufferView":0,
			"componentType":5126,
			"count":594,
			"max":[
				1.3416311740875244,
				1.8071160316467285,
				1.3467148542404175
			],
			"min":[
				-1.363301157951355,
				-0.2990291118621826,
				-1.3524788618087769
			],
			"type":"VEC3"
		},
		{
			"bufferView":1,
			"componentType":5126,
			"count":594,
			"type":"VEC3"
		},
		{
			"bufferView":2,
			"componentType":5126,
			"count":594,
			"type":"VEC2"
		},
		{
			"bufferView":3,
			"componentType":5123,
			"count":1086,
			"type":"SCALAR"
		},
		{
			"bufferView":4,
			"componentType":5126,
			"count":296,
			"max":[
				1.5386415719985962,
				0.29682689905166626,
				1.538831353187561
			],
			"min":[
				-1.5349196195602417,
				-2.4201488494873047,
				-1.5347297191619873
			],
			"type":"VEC3"
		},
		{
			"bufferView":5,
			"componentType":5126,
			"count":296,
			"type":"VEC3"
		},
		{
			"bufferView":6,
			"componentType":5126,
			"count":296,
			"type":"VEC2"
		},
		{
			"bufferView":7,
			"componentType":5123,
			"count":492,
			"type":"SCALAR"
		}
	],
	"bufferViews":[
		{
			"buffer":0,
			"byteLength":7128,
			"byteOffset":0,
			"target":34962
		},
		{
			"buffer":0,
			"byteLength":7128,
			"byteOffset":7128,
			"target":34962
		},
		{
			"buffer":0,
			"byteLength":4752,
			"byteOffset":14256,
			"target":34962
		},
		{
			"buffer":0,
			"byteLength":2172,
			"byteOffset":19008,
			"target":34963
		},
		{
			"buffer":0,
			"byteLength":3552,
			"byteOffset":21180,
			"target":34962
		},
		{
			"buffer":0,
			"byteLength":3552,
			"byteOffset":24732,
			"target":34962
		},
		{
			"buffer":0,
			"byteLength":2368,
			"byteOffset":28284,
			"target":34962
		},
		{
			"buffer":0,
			"byteLength":984,
			"byteOffset":30652,
			"target":34963
		}
	],
	"buffers":[
		{
			"byteLength":31636,
			"uri":"cieling_light.bin"
		}
	]
}
