{
	"asset":{
		"generator":"Khronos glTF Blender I/O v4.2.70",
		"version":"2.0"
	},
	"scene":0,
	"scenes":[
		{
			"name":"Scene",
			"nodes":[
				0
			]
		}
	],
	"nodes":[
		{
			"mesh":0,
			"name":"Lamp C"
		}
	],
	"materials":[
		{
			"doubleSided":true,
			"name":"Grey.043",
			"pbrMetallicRoughness":{
				"baseColorFactor":[
					0.2600274980068207,
					0.2600274980068207,
					0.2600274980068207,
					1
				],
				"metallicFactor":0
			}
		},
		{
			"doubleSided":true,
			"name":"Blue.006",
			"pbrMetallicRoughness":{
				"baseColorFactor":[
					0.07112232595682144,
					0.11088339984416962,
					0.26890936493873596,
					1
				],
				"metallicFactor":0,
				"roughnessFactor":0.5
			}
		},
		{
			"doubleSided":true,
			"name":"White.051",
			"pbrMetallicRoughness":{
				"baseColorFactor":[
					0.6353368163108826,
					0.6353368163108826,
					0.6353368163108826,
					1
				],
				"metallicFactor":0,
				"roughnessFactor":0.5
			}
		}
	],
	"meshes":[
		{
			"name":"Cylinder.018",
			"primitives":[
				{
					"attributes":{
						"POSITION":0,
						"NORMAL":1,
						"TEXCOORD_0":2
					},
					"indices":3,
					"material":0
				},
				{
					"attributes":{
						"POSITION":4,
						"NORMAL":5,
						"TEXCOORD_0":6
					},
					"indices":7,
					"material":1
				},
				{
					"attributes":{
						"POSITION":8,
						"NORMAL":9,
						"TEXCOORD_0":10
					},
					"indices":11,
					"material":2
				}
			]
		}
	],
	"accessors":[
		{
			"bufferView":0,
			"componentType":5126,
			"count":592,
			"max":[
				0.726771354675293,
				0.32787322998046875,
				0.7090753316879272
			],
			"min":[
				-0.7250789999961853,
				-1.1447765827178955,
				-0.7321893572807312
			],
			"type":"VEC3"
		},
		{
			"bufferView":1,
			"componentType":5126,
			"count":592,
			"type":"VEC3"
		},
		{
			"bufferView":2,
			"componentType":5126,
			"count":592,
			"type":"VEC2"
		},
		{
			"bufferView":3,
			"componentType":5123,
			"count":1086,
			"type":"SCALAR"
		},
		{
			"bufferView":4,
			"componentType":5126,
			"count":160,
			"max":[
				0.8021801710128784,
				1.4339028596878052,
				0.8004014492034912
			],
			"min":[
				-0.800487756729126,
				0.0171721912920475,
				-0.8022664785385132
			],
			"type":"VEC3"
		},
		{
			"bufferView":5,
			"componentType":5126,
			"count":160,
			"type":"VEC3"
		},
		{
			"bufferView":6,
			"componentType":5126,
			"count":160,
			"type":"VEC2"
		},
		{
			"bufferView":7,
			"componentType":5123,
			"count":288,
			"type":"SCALAR"
		},
		{
			"bufferView":8,
			"componentType":5126,
			"count":132,
			"max":[
				0.15715202689170837,
				0.8545392155647278,
				0.17955388128757477
			],
			"min":[
				-0.15545964241027832,
				0.31102555990219116,
				-0.18141894042491913
			],
			"type":"VEC3"
		},
		{
			"bufferView":9,
			"componentType":5126,
			"count":132,
			"type":"VEC3"
		},
		{
			"bufferView":10,
			"componentType":5126,
			"count":132,
			"type":"VEC2"
		},
		{
			"bufferView":11,
			"componentType":5123,
			"count":204,
			"type":"SCALAR"
		}
	],
	"bufferViews":[
		{
			"buffer":0,
			"byteLength":7104,
			"byteOffset":0,
			"target":34962
		},
		{
			"buffer":0,
			"byteLength":7104,
			"byteOffset":7104,
			"target":34962
		},
		{
			"buffer":0,
			"byteLength":4736,
			"byteOffset":14208,
			"target":34962
		},
		{
			"buffer":0,
			"byteLength":2172,
			"byteOffset":18944,
			"target":34963
		},
		{
			"buffer":0,
			"byteLength":1920,
			"byteOffset":21116,
			"target":34962
		},
		{
			"buffer":0,
			"byteLength":1920,
			"byteOffset":23036,
			"target":34962
		},
		{
			"buffer":0,
			"byteLength":1280,
			"byteOffset":24956,
			"target":34962
		},
		{
			"buffer":0,
			"byteLength":576,
			"byteOffset":26236,
			"target":34963
		},
		{
			"buffer":0,
			"byteLength":1584,
			"byteOffset":26812,
			"target":34962
		},
		{
			"buffer":0,
			"byteLength":1584,
			"byteOffset":28396,
			"target":34962
		},
		{
			"buffer":0,
			"byteLength":1056,
			"byteOffset":29980,
			"target":34962
		},
		{
			"buffer":0,
			"byteLength":408,
			"byteOffset":31036,
			"target":34963
		}
	],
	"buffers":[
		{
			"byteLength":31444,
			"uri":"light_on_table.bin"
		}
	]
}
