{
	"asset":{
		"generator":"Khronos glTF Blender I/O v4.1.62",
		"version":"2.0"
	},
	"scene":0,
	"scenes":[
		{
			"name":"Scene",
			"nodes":[
				0
			]
		}
	],
	"nodes":[
		{
			"mesh":0,
			"name":"Lamp A"
		}
	],
	"materials":[
		{
			"doubleSided":true,
			"name":"Grey.041",
			"pbrMetallicRoughness":{
				"baseColorFactor":[
					0.2600274980068207,
					0.2600274980068207,
					0.2600274980068207,
					1
				],
				"metallicFactor":0,
				"roughnessFactor":0.5
			}
		},
		{
			"doubleSided":true,
			"name":"White.049",
			"pbrMetallicRoughness":{
				"baseColorFactor":[
					0.6353368163108826,
					0.6353368163108826,
					0.6353368163108826,
					1
				],
				"metallicFactor":0,
				"roughnessFactor":0.5
			}
		},
		{
			"doubleSided":true,
			"name":"Red.007",
			"pbrMetallicRoughness":{
				"baseColorFactor":[
					0.34115174412727356,
					0.026578301563858986,
					0.013850972056388855,
					1
				],
				"metallicFactor":0,
				"roughnessFactor":0.5
			}
		}
	],
	"meshes":[
		{
			"name":"Cylinder",
			"primitives":[
				{
					"attributes":{
						"POSITION":0,
						"NORMAL":1,
						"TEXCOORD_0":2
					},
					"indices":3,
					"material":0
				},
				{
					"attributes":{
						"POSITION":4,
						"NORMAL":5,
						"TEXCOORD_0":6
					},
					"indices":7,
					"material":1
				},
				{
					"attributes":{
						"POSITION":8,
						"NORMAL":9,
						"TEXCOORD_0":10
					},
					"indices":11,
					"material":2
				}
			]
		}
	],
	"accessors":[
		{
			"bufferView":0,
			"componentType":5126,
			"count":594,
			"max":[
				1.448840618133545,
				1.710705280303955,
				1.4410837888717651
			],
			"min":[
				-1.4471536874771118,
				-4.897191047668457,
				-1.4452886581420898
			],
			"type":"VEC3"
		},
		{
			"bufferView":1,
			"componentType":5126,
			"count":594,
			"type":"VEC3"
		},
		{
			"bufferView":2,
			"componentType":5126,
			"count":594,
			"type":"VEC2"
		},
		{
			"bufferView":3,
			"componentType":5123,
			"count":1086,
			"type":"SCALAR"
		},
		{
			"bufferView":4,
			"componentType":5126,
			"count":140,
			"max":[
				0.15741141140460968,
				2.251028537750244,
				0.17911003530025482
			],
			"min":[
				-0.15520025789737701,
				1.7075148820877075,
				-0.18186278641223907
			],
			"type":"VEC3"
		},
		{
			"bufferView":5,
			"componentType":5126,
			"count":140,
			"type":"VEC3"
		},
		{
			"bufferView":6,
			"componentType":5126,
			"count":140,
			"type":"VEC2"
		},
		{
			"bufferView":7,
			"componentType":5123,
			"count":204,
			"type":"SCALAR"
		},
		{
			"bufferView":8,
			"componentType":5126,
			"count":128,
			"max":[
				1.8277496099472046,
				3.4879684448242188,
				1.8267858028411865
			],
			"min":[
				-1.8270567655563354,
				1.328506588935852,
				-1.8280205726623535
			],
			"type":"VEC3"
		},
		{
			"bufferView":9,
			"componentType":5126,
			"count":128,
			"type":"VEC3"
		},
		{
			"bufferView":10,
			"componentType":5126,
			"count":128,
			"type":"VEC2"
		},
		{
			"bufferView":11,
			"componentType":5123,
			"count":240,
			"type":"SCALAR"
		}
	],
	"bufferViews":[
		{
			"buffer":0,
			"byteLength":7128,
			"byteOffset":0,
			"target":34962
		},
		{
			"buffer":0,
			"byteLength":7128,
			"byteOffset":7128,
			"target":34962
		},
		{
			"buffer":0,
			"byteLength":4752,
			"byteOffset":14256,
			"target":34962
		},
		{
			"buffer":0,
			"byteLength":2172,
			"byteOffset":19008,
			"target":34963
		},
		{
			"buffer":0,
			"byteLength":1680,
			"byteOffset":21180,
			"target":34962
		},
		{
			"buffer":0,
			"byteLength":1680,
			"byteOffset":22860,
			"target":34962
		},
		{
			"buffer":0,
			"byteLength":1120,
			"byteOffset":24540,
			"target":34962
		},
		{
			"buffer":0,
			"byteLength":408,
			"byteOffset":25660,
			"target":34963
		},
		{
			"buffer":0,
			"byteLength":1536,
			"byteOffset":26068,
			"target":34962
		},
		{
			"buffer":0,
			"byteLength":1536,
			"byteOffset":27604,
			"target":34962
		},
		{
			"buffer":0,
			"byteLength":1024,
			"byteOffset":29140,
			"target":34962
		},
		{
			"buffer":0,
			"byteLength":480,
			"byteOffset":30164,
			"target":34963
		}
	],
	"buffers":[
		{
			"byteLength":30644,
			"uri":"light.bin"
		}
	]
}
