{
	"asset":{
		"generator":"Khronos glTF Blender I/O v4.2.70",
		"version":"2.0"
	},
	"scene":0,
	"scenes":[
		{
			"name":"Scene",
			"nodes":[
				0
			]
		}
	],
	"nodes":[
		{
			"mesh":0,
			"name":"Keyboard"
		}
	],
	"materials":[
		{
			"doubleSided":true,
			"name":"Grey 2.008",
			"pbrMetallicRoughness":{
				"baseColorFactor":[
					0.08696522563695908,
					0.08696522563695908,
					0.08696522563695908,
					1
				],
				"metallicFactor":0
			}
		}
	],
	"meshes":[
		{
			"name":"Cube.081",
			"primitives":[
				{
					"attributes":{
						"POSITION":0,
						"NORMAL":1,
						"TEXCOORD_0":2
					},
					"indices":3,
					"material":0
				}
			]
		}
	],
	"accessors":[
		{
			"bufferView":0,
			"componentType":5126,
			"count":1245,
			"max":[
				2.1587533950805664,
				0.10258365422487259,
				0.7959867715835571
			],
			"min":[
				-1.8081046342849731,
				-0.21723514795303345,
				-0.7813717722892761
			],
			"type":"VEC3"
		},
		{
			"bufferView":1,
			"componentType":5126,
			"count":1245,
			"type":"VEC3"
		},
		{
			"bufferView":2,
			"componentType":5126,
			"count":1245,
			"type":"VEC2"
		},
		{
			"bufferView":3,
			"componentType":5123,
			"count":2352,
			"type":"SCALAR"
		}
	],
	"bufferViews":[
		{
			"buffer":0,
			"byteLength":14940,
			"byteOffset":0,
			"target":34962
		},
		{
			"buffer":0,
			"byteLength":14940,
			"byteOffset":14940,
			"target":34962
		},
		{
			"buffer":0,
			"byteLength":9960,
			"byteOffset":29880,
			"target":34962
		},
		{
			"buffer":0,
			"byteLength":4704,
			"byteOffset":39840,
			"target":34963
		}
	],
	"buffers":[
		{
			"byteLength":44544,
			"uri":"keyboard_mouse.bin"
		}
	]
}
