{
	"asset":{
		"generator":"Khronos glTF Blender I/O v4.2.70",
		"version":"2.0"
	},
	"scene":0,
	"scenes":[
		{
			"name":"Scene",
			"nodes":[
				0
			]
		}
	],
	"nodes":[
		{
			"mesh":0,
			"name":"Laptop"
		}
	],
	"materials":[
		{
			"doubleSided":true,
			"name":"Grey.008",
			"pbrMetallicRoughness":{
				"baseColorFactor":[
					0.2600274980068207,
					0.2600274980068207,
					0.2600274980068207,
					1
				],
				"metallicFactor":0
			}
		},
		{
			"doubleSided":true,
			"name":"Blue 2.004",
			"pbrMetallicRoughness":{
				"baseColorFactor":[
					0.04154860973358154,
					0.23032249510288239,
					0.23441897332668304,
					1
				],
				"metallicFactor":0,
				"roughnessFactor":0.5
			}
		},
		{
			"doubleSided":true,
			"name":"Grey 2.009",
			"pbrMetallicRoughness":{
				"baseColorFactor":[
					0.08696522563695908,
					0.08696522563695908,
					0.08696522563695908,
					1
				],
				"metallicFactor":0,
				"roughnessFactor":0.5
			}
		}
	],
	"meshes":[
		{
			"name":"Cube.095",
			"primitives":[
				{
					"attributes":{
						"POSITION":0,
						"NORMAL":1,
						"TEXCOORD_0":2
					},
					"indices":3,
					"material":0
				},
				{
					"attributes":{
						"POSITION":4,
						"NORMAL":5,
						"TEXCOORD_0":6
					},
					"indices":7,
					"material":1
				},
				{
					"attributes":{
						"POSITION":8,
						"NORMAL":9,
						"TEXCOORD_0":10
					},
					"indices":11,
					"material":2
				}
			]
		}
	],
	"accessors":[
		{
			"bufferView":0,
			"componentType":5126,
			"count":288,
			"max":[
				1.4008846282958984,
				1.5400700569152832,
				1.197532057762146
			],
			"min":[
				-1.399764060974121,
				-0.4555821418762207,
				-1.126564860343933
			],
			"type":"VEC3"
		},
		{
			"bufferView":1,
			"componentType":5126,
			"count":288,
			"type":"VEC3"
		},
		{
			"bufferView":2,
			"componentType":5126,
			"count":288,
			"type":"VEC2"
		},
		{
			"bufferView":3,
			"componentType":5123,
			"count":546,
			"type":"SCALAR"
		},
		{
			"bufferView":4,
			"componentType":5126,
			"count":4,
			"max":[
				1.142173409461975,
				1.3779263496398926,
				-0.5856672525405884
			],
			"min":[
				-1.1467117071151733,
				0.0004265132884029299,
				-0.9462530016899109
			],
			"type":"VEC3"
		},
		{
			"bufferView":5,
			"componentType":5126,
			"count":4,
			"type":"VEC3"
		},
		{
			"bufferView":6,
			"componentType":5126,
			"count":4,
			"type":"VEC2"
		},
		{
			"bufferView":7,
			"componentType":5123,
			"count":6,
			"type":"SCALAR"
		},
		{
			"bufferView":8,
			"componentType":5126,
			"count":360,
			"max":[
				1.148900032043457,
				-0.1578395515680313,
				1.0443634986877441
			],
			"min":[
				-1.1477797031402588,
				-0.19294296205043793,
				-0.4401392340660095
			],
			"type":"VEC3"
		},
		{
			"bufferView":9,
			"componentType":5126,
			"count":360,
			"type":"VEC3"
		},
		{
			"bufferView":10,
			"componentType":5126,
			"count":360,
			"type":"VEC2"
		},
		{
			"bufferView":11,
			"componentType":5123,
			"count":636,
			"type":"SCALAR"
		}
	],
	"bufferViews":[
		{
			"buffer":0,
			"byteLength":3456,
			"byteOffset":0,
			"target":34962
		},
		{
			"buffer":0,
			"byteLength":3456,
			"byteOffset":3456,
			"target":34962
		},
		{
			"buffer":0,
			"byteLength":2304,
			"byteOffset":6912,
			"target":34962
		},
		{
			"buffer":0,
			"byteLength":1092,
			"byteOffset":9216,
			"target":34963
		},
		{
			"buffer":0,
			"byteLength":48,
			"byteOffset":10308,
			"target":34962
		},
		{
			"buffer":0,
			"byteLength":48,
			"byteOffset":10356,
			"target":34962
		},
		{
			"buffer":0,
			"byteLength":32,
			"byteOffset":10404,
			"target":34962
		},
		{
			"buffer":0,
			"byteLength":12,
			"byteOffset":10436,
			"target":34963
		},
		{
			"buffer":0,
			"byteLength":4320,
			"byteOffset":10448,
			"target":34962
		},
		{
			"buffer":0,
			"byteLength":4320,
			"byteOffset":14768,
			"target":34962
		},
		{
			"buffer":0,
			"byteLength":2880,
			"byteOffset":19088,
			"target":34962
		},
		{
			"buffer":0,
			"byteLength":1272,
			"byteOffset":21968,
			"target":34963
		}
	],
	"buffers":[
		{
			"byteLength":23240,
			"uri":"laptop.bin"
		}
	]
}
