{
	"asset":{
		"generator":"Khronos glTF Blender I/O v4.1.62",
		"version":"2.0"
	},
	"scene":0,
	"scenes":[
		{
			"name":"Scene",
			"nodes":[
				0
			]
		}
	],
	"nodes":[
		{
			"mesh":0,
			"name":"PC"
		}
	],
	"materials":[
		{
			"doubleSided":true,
			"name":"Grey.010",
			"pbrMetallicRoughness":{
				"baseColorFactor":[
					0.2600274980068207,
					0.2600274980068207,
					0.2600274980068207,
					1
				],
				"metallicFactor":0,
				"roughnessFactor":0.5
			}
		},
		{
			"doubleSided":true,
			"name":"Blue 2.006",
			"pbrMetallicRoughness":{
				"baseColorFactor":[
					0.04154860973358154,
					0.23032249510288239,
					0.23441897332668304,
					1
				],
				"metallicFactor":0,
				"roughnessFactor":0.5
			}
		}
	],
	"meshes":[
		{
			"name":"Cube.012",
			"primitives":[
				{
					"attributes":{
						"POSITION":0,
						"NORMAL":1,
						"TEXCOORD_0":2
					},
					"indices":3,
					"material":0
				},
				{
					"attributes":{
						"POSITION":4,
						"NORMAL":5,
						"TEXCOORD_0":6
					},
					"indices":7,
					"material":1
				}
			]
		}
	],
	"accessors":[
		{
			"bufferView":0,
			"componentType":5126,
			"count":138,
			"max":[
				1.0399174690246582,
				1.495658278465271,
				1.6856927871704102
			],
			"min":[
				-0.6900069713592529,
				-2.302527666091919,
				-1.6295651197433472
			],
			"type":"VEC3"
		},
		{
			"bufferView":1,
			"componentType":5126,
			"count":138,
			"type":"VEC3"
		},
		{
			"bufferView":2,
			"componentType":5126,
			"count":138,
			"type":"VEC2"
		},
		{
			"bufferView":3,
			"componentType":5123,
			"count":210,
			"type":"SCALAR"
		},
		{
			"bufferView":4,
			"componentType":5126,
			"count":4,
			"max":[
				-0.6221575140953064,
				1.22739577293396,
				1.4158673286437988
			],
			"min":[
				-0.6221575140953064,
				-2.0342652797698975,
				-1.3613027334213257
			],
			"type":"VEC3"
		},
		{
			"bufferView":5,
			"componentType":5126,
			"count":4,
			"type":"VEC3"
		},
		{
			"bufferView":6,
			"componentType":5126,
			"count":4,
			"type":"VEC2"
		},
		{
			"bufferView":7,
			"componentType":5123,
			"count":6,
			"type":"SCALAR"
		}
	],
	"bufferViews":[
		{
			"buffer":0,
			"byteLength":1656,
			"byteOffset":0,
			"target":34962
		},
		{
			"buffer":0,
			"byteLength":1656,
			"byteOffset":1656,
			"target":34962
		},
		{
			"buffer":0,
			"byteLength":1104,
			"byteOffset":3312,
			"target":34962
		},
		{
			"buffer":0,
			"byteLength":420,
			"byteOffset":4416,
			"target":34963
		},
		{
			"buffer":0,
			"byteLength":48,
			"byteOffset":4836,
			"target":34962
		},
		{
			"buffer":0,
			"byteLength":48,
			"byteOffset":4884,
			"target":34962
		},
		{
			"buffer":0,
			"byteLength":32,
			"byteOffset":4932,
			"target":34962
		},
		{
			"buffer":0,
			"byteLength":12,
			"byteOffset":4964,
			"target":34963
		}
	],
	"buffers":[
		{
			"byteLength":4976,
			"uri":"pc.bin"
		}
	]
}
