{
	"asset":{
		"generator":"Khronos glTF Blender I/O v4.1.62",
		"version":"2.0"
	},
	"scene":0,
	"scenes":[
		{
			"name":"Scene",
			"nodes":[
				0
			]
		}
	],
	"nodes":[
		{
			"mesh":0,
			"name":"Monitor"
		}
	],
	"materials":[
		{
			"doubleSided":true,
			"name":"Grey 2.010",
			"pbrMetallicRoughness":{
				"baseColorFactor":[
					0.08696522563695908,
					0.08696522563695908,
					0.08696522563695908,
					1
				],
				"metallicFactor":0,
				"roughnessFactor":0.5
			}
		},
		{
			"doubleSided":true,
			"name":"Blue 2.005",
			"pbrMetallicRoughness":{
				"baseColorFactor":[
					0.04154860973358154,
					0.23032249510288239,
					0.23441897332668304,
					1
				],
				"metallicFactor":0,
				"roughnessFactor":0.5
			}
		},
		{
			"doubleSided":true,
			"name":"Grey.009",
			"pbrMetallicRoughness":{
				"baseColorFactor":[
					0.2600274980068207,
					0.2600274980068207,
					0.2600274980068207,
					1
				],
				"metallicFactor":0,
				"roughnessFactor":0.5
			}
		}
	],
	"meshes":[
		{
			"name":"Cube.021",
			"primitives":[
				{
					"attributes":{
						"POSITION":0,
						"NORMAL":1,
						"TEXCOORD_0":2
					},
					"indices":3,
					"material":0
				},
				{
					"attributes":{
						"POSITION":4,
						"NORMAL":5,
						"TEXCOORD_0":6
					},
					"indices":7,
					"material":1
				},
				{
					"attributes":{
						"POSITION":8,
						"NORMAL":9,
						"TEXCOORD_0":10
					},
					"indices":11,
					"material":2
				}
			]
		}
	],
	"accessors":[
		{
			"bufferView":0,
			"componentType":5126,
			"count":164,
			"max":[
				2.2674295902252197,
				2.679161787033081,
				0.26658016443252563
			],
			"min":[
				-2.2674295902252197,
				-0.391033798456192,
				-0.3068588376045227
			],
			"type":"VEC3"
		},
		{
			"bufferView":1,
			"componentType":5126,
			"count":164,
			"type":"VEC3"
		},
		{
			"bufferView":2,
			"componentType":5126,
			"count":164,
			"type":"VEC2"
		},
		{
			"bufferView":3,
			"componentType":5123,
			"count":246,
			"type":"SCALAR"
		},
		{
			"bufferView":4,
			"componentType":5126,
			"count":4,
			"max":[
				1.9820019006729126,
				2.428029775619507,
				0.06612924486398697
			],
			"min":[
				-1.9820019006729126,
				-0.1399017721414566,
				0.06612924486398697
			],
			"type":"VEC3"
		},
		{
			"bufferView":5,
			"componentType":5126,
			"count":4,
			"type":"VEC3"
		},
		{
			"bufferView":6,
			"componentType":5126,
			"count":4,
			"type":"VEC2"
		},
		{
			"bufferView":7,
			"componentType":5123,
			"count":6,
			"type":"SCALAR"
		},
		{
			"bufferView":8,
			"componentType":5126,
			"count":226,
			"max":[
				0.9314388632774353,
				0.005021669901907444,
				0.5992794036865234
			],
			"min":[
				-0.9314389824867249,
				-1.2886017560958862,
				-0.41651421785354614
			],
			"type":"VEC3"
		},
		{
			"bufferView":9,
			"componentType":5126,
			"count":226,
			"type":"VEC3"
		},
		{
			"bufferView":10,
			"componentType":5126,
			"count":226,
			"type":"VEC2"
		},
		{
			"bufferView":11,
			"componentType":5123,
			"count":324,
			"type":"SCALAR"
		}
	],
	"bufferViews":[
		{
			"buffer":0,
			"byteLength":1968,
			"byteOffset":0,
			"target":34962
		},
		{
			"buffer":0,
			"byteLength":1968,
			"byteOffset":1968,
			"target":34962
		},
		{
			"buffer":0,
			"byteLength":1312,
			"byteOffset":3936,
			"target":34962
		},
		{
			"buffer":0,
			"byteLength":492,
			"byteOffset":5248,
			"target":34963
		},
		{
			"buffer":0,
			"byteLength":48,
			"byteOffset":5740,
			"target":34962
		},
		{
			"buffer":0,
			"byteLength":48,
			"byteOffset":5788,
			"target":34962
		},
		{
			"buffer":0,
			"byteLength":32,
			"byteOffset":5836,
			"target":34962
		},
		{
			"buffer":0,
			"byteLength":12,
			"byteOffset":5868,
			"target":34963
		},
		{
			"buffer":0,
			"byteLength":2712,
			"byteOffset":5880,
			"target":34962
		},
		{
			"buffer":0,
			"byteLength":2712,
			"byteOffset":8592,
			"target":34962
		},
		{
			"buffer":0,
			"byteLength":1808,
			"byteOffset":11304,
			"target":34962
		},
		{
			"buffer":0,
			"byteLength":648,
			"byteOffset":13112,
			"target":34963
		}
	],
	"buffers":[
		{
			"byteLength":13760,
			"uri":"pc_monitor.bin"
		}
	]
}
