{
	"asset":{
		"generator":"Khronos glTF Blender I/O v4.2.70",
		"version":"2.0"
	},
	"scene":0,
	"scenes":[
		{
			"name":"Scene",
			"nodes":[
				0
			]
		}
	],
	"nodes":[
		{
			"mesh":0,
			"name":"Phone "
		}
	],
	"materials":[
		{
			"doubleSided":true,
			"name":"Grey.011",
			"pbrMetallicRoughness":{
				"baseColorFactor":[
					0.2600274980068207,
					0.2600274980068207,
					0.2600274980068207,
					1
				],
				"metallicFactor":0
			}
		},
		{
			"doubleSided":true,
			"name":"Blue 2.007",
			"pbrMetallicRoughness":{
				"baseColorFactor":[
					0.04154860973358154,
					0.23032249510288239,
					0.23441897332668304,
					1
				],
				"metallicFactor":0,
				"roughnessFactor":0.5
			}
		},
		{
			"doubleSided":true,
			"name":"Grey 2.011",
			"pbrMetallicRoughness":{
				"baseColorFactor":[
					0.08696522563695908,
					0.08696522563695908,
					0.08696522563695908,
					1
				],
				"metallicFactor":0,
				"roughnessFactor":0.5
			}
		}
	],
	"meshes":[
		{
			"name":"Cube.083",
			"primitives":[
				{
					"attributes":{
						"POSITION":0,
						"NORMAL":1,
						"TEXCOORD_0":2
					},
					"indices":3,
					"material":0
				},
				{
					"attributes":{
						"POSITION":4,
						"NORMAL":5,
						"TEXCOORD_0":6
					},
					"indices":7,
					"material":1
				},
				{
					"attributes":{
						"POSITION":8,
						"NORMAL":9,
						"TEXCOORD_0":10
					},
					"indices":11,
					"material":2
				}
			]
		}
	],
	"accessors":[
		{
			"bufferView":0,
			"componentType":5126,
			"count":117,
			"max":[
				0.3989712595939636,
				0.023037560284137726,
				0.41909196972846985
			],
			"min":[
				-0.3989715278148651,
				-0.12399546802043915,
				-1.1287002563476562
			],
			"type":"VEC3"
		},
		{
			"bufferView":1,
			"componentType":5126,
			"count":117,
			"type":"VEC3"
		},
		{
			"bufferView":2,
			"componentType":5126,
			"count":117,
			"type":"VEC2"
		},
		{
			"bufferView":3,
			"componentType":5123,
			"count":237,
			"type":"SCALAR"
		},
		{
			"bufferView":4,
			"componentType":5126,
			"count":7,
			"max":[
				0.2695864737033844,
				-0.0007017820025794208,
				0.18343736231327057
			],
			"min":[
				-0.2695867717266083,
				-0.0007017820025794208,
				-0.9993155598640442
			],
			"type":"VEC3"
		},
		{
			"bufferView":5,
			"componentType":5126,
			"count":7,
			"type":"VEC3"
		},
		{
			"bufferView":6,
			"componentType":5126,
			"count":7,
			"type":"VEC2"
		},
		{
			"bufferView":7,
			"componentType":5123,
			"count":15,
			"type":"SCALAR"
		},
		{
			"bufferView":8,
			"componentType":5126,
			"count":9,
			"max":[
				0.0721004456281662,
				0.01665651425719261,
				0.35093435645103455
			],
			"min":[
				-0.07210025191307068,
				0.01665651425719261,
				0.20673367381095886
			],
			"type":"VEC3"
		},
		{
			"bufferView":9,
			"componentType":5126,
			"count":9,
			"type":"VEC3"
		},
		{
			"bufferView":10,
			"componentType":5126,
			"count":9,
			"type":"VEC2"
		},
		{
			"bufferView":11,
			"componentType":5123,
			"count":24,
			"type":"SCALAR"
		}
	],
	"bufferViews":[
		{
			"buffer":0,
			"byteLength":1404,
			"byteOffset":0,
			"target":34962
		},
		{
			"buffer":0,
			"byteLength":1404,
			"byteOffset":1404,
			"target":34962
		},
		{
			"buffer":0,
			"byteLength":936,
			"byteOffset":2808,
			"target":34962
		},
		{
			"buffer":0,
			"byteLength":474,
			"byteOffset":3744,
			"target":34963
		},
		{
			"buffer":0,
			"byteLength":84,
			"byteOffset":4220,
			"target":34962
		},
		{
			"buffer":0,
			"byteLength":84,
			"byteOffset":4304,
			"target":34962
		},
		{
			"buffer":0,
			"byteLength":56,
			"byteOffset":4388,
			"target":34962
		},
		{
			"buffer":0,
			"byteLength":30,
			"byteOffset":4444,
			"target":34963
		},
		{
			"buffer":0,
			"byteLength":108,
			"byteOffset":4476,
			"target":34962
		},
		{
			"buffer":0,
			"byteLength":108,
			"byteOffset":4584,
			"target":34962
		},
		{
			"buffer":0,
			"byteLength":72,
			"byteOffset":4692,
			"target":34962
		},
		{
			"buffer":0,
			"byteLength":48,
			"byteOffset":4764,
			"target":34963
		}
	],
	"buffers":[
		{
			"byteLength":4812,
			"uri":"phone.bin"
		}
	]
}
