{
	"asset":{
		"generator":"Khronos glTF Blender I/O v4.1.62",
		"version":"2.0"
	},
	"scene":0,
	"scenes":[
		{
			"name":"Scene",
			"nodes":[
				0
			]
		}
	],
	"nodes":[
		{
			"mesh":0,
			"name":"ps5",
			"scale":[
				1.3543261289596558,
				1.3543261289596558,
				1.3543261289596558
			]
		}
	],
	"materials":[
		{
			"doubleSided":true,
			"name":"Grey 2.006",
			"pbrMetallicRoughness":{
				"baseColorFactor":[
					0.08696522563695908,
					0.08696522563695908,
					0.08696522563695908,
					1
				],
				"metallicFactor":0,
				"roughnessFactor":0.5
			}
		},
		{
			"doubleSided":true,
			"name":"White.011",
			"pbrMetallicRoughness":{
				"baseColorFactor":[
					0.6353368163108826,
					0.6353368163108826,
					0.6353368163108826,
					1
				],
				"metallicFactor":0,
				"roughnessFactor":0.5
			}
		}
	],
	"meshes":[
		{
			"name":"Cube.067",
			"primitives":[
				{
					"attributes":{
						"POSITION":0,
						"NORMAL":1,
						"TEXCOORD_0":2
					},
					"indices":3,
					"material":0
				},
				{
					"attributes":{
						"POSITION":4,
						"NORMAL":5,
						"TEXCOORD_0":6
					},
					"indices":7,
					"material":1
				}
			]
		}
	],
	"accessors":[
		{
			"bufferView":0,
			"componentType":5126,
			"count":204,
			"max":[
				0.6003491282463074,
				1.3431975841522217,
				1.0181361436843872
			],
			"min":[
				-0.6003491282463074,
				-0.8779037594795227,
				-0.9818638563156128
			],
			"type":"VEC3"
		},
		{
			"bufferView":1,
			"componentType":5126,
			"count":204,
			"type":"VEC3"
		},
		{
			"bufferView":2,
			"componentType":5126,
			"count":204,
			"type":"VEC2"
		},
		{
			"bufferView":3,
			"componentType":5123,
			"count":336,
			"type":"SCALAR"
		},
		{
			"bufferView":4,
			"componentType":5126,
			"count":404,
			"max":[
				0.3291929066181183,
				1.4807729721069336,
				1.1557115316390991
			],
			"min":[
				-0.3291929066181183,
				-0.794377863407135,
				-1.1194392442703247
			],
			"type":"VEC3"
		},
		{
			"bufferView":5,
			"componentType":5126,
			"count":404,
			"type":"VEC3"
		},
		{
			"bufferView":6,
			"componentType":5126,
			"count":404,
			"type":"VEC2"
		},
		{
			"bufferView":7,
			"componentType":5123,
			"count":648,
			"type":"SCALAR"
		}
	],
	"bufferViews":[
		{
			"buffer":0,
			"byteLength":2448,
			"byteOffset":0,
			"target":34962
		},
		{
			"buffer":0,
			"byteLength":2448,
			"byteOffset":2448,
			"target":34962
		},
		{
			"buffer":0,
			"byteLength":1632,
			"byteOffset":4896,
			"target":34962
		},
		{
			"buffer":0,
			"byteLength":672,
			"byteOffset":6528,
			"target":34963
		},
		{
			"buffer":0,
			"byteLength":4848,
			"byteOffset":7200,
			"target":34962
		},
		{
			"buffer":0,
			"byteLength":4848,
			"byteOffset":12048,
			"target":34962
		},
		{
			"buffer":0,
			"byteLength":3232,
			"byteOffset":16896,
			"target":34962
		},
		{
			"buffer":0,
			"byteLength":1296,
			"byteOffset":20128,
			"target":34963
		}
	],
	"buffers":[
		{
			"byteLength":21424,
			"uri":"ps5.bin"
		}
	]
}
