{
	"asset":{
		"generator":"Khronos glTF Blender I/O v4.2.70",
		"version":"2.0"
	},
	"scene":0,
	"scenes":[
		{
			"name":"Scene",
			"nodes":[
				0,
				1
			]
		}
	],
	"nodes":[
		{
			"mesh":0,
			"name":"Door B"
		},
		{
			"mesh":1,
			"name":"Door B.001"
		}
	],
	"materials":[
		{
			"doubleSided":true,
			"name":"Brown.008",
			"pbrMetallicRoughness":{
				"baseColorFactor":[
					0.3505583703517914,
					0.12707479298114777,
					0.04741016775369644,
					1
				],
				"metallicFactor":0
			}
		},
		{
			"doubleSided":true,
			"name":"Brown 3.001",
			"pbrMetallicRoughness":{
				"baseColorFactor":[
					0.26890936493873596,
					0.09035473316907883,
					0.0326484851539135,
					1
				],
				"metallicFactor":0,
				"roughnessFactor":0.5
			}
		}
	],
	"meshes":[
		{
			"name":"Cube.023",
			"primitives":[
				{
					"attributes":{
						"POSITION":0,
						"NORMAL":1,
						"TEXCOORD_0":2
					},
					"indices":3,
					"material":0
				}
			]
		},
		{
			"name":"Cube.078",
			"primitives":[
				{
					"attributes":{
						"POSITION":4,
						"NORMAL":5,
						"TEXCOORD_0":6
					},
					"indices":7,
					"material":1
				}
			]
		}
	],
	"accessors":[
		{
			"bufferView":0,
			"componentType":5126,
			"count":1692,
			"max":[
				2.443103313446045,
				5.255002498626709,
				0.7204179167747498
			],
			"min":[
				-1.575116515159607,
				-4.552927494049072,
				-0.7164753675460815
			],
			"type":"VEC3"
		},
		{
			"bufferView":1,
			"componentType":5126,
			"count":1692,
			"type":"VEC3"
		},
		{
			"bufferView":2,
			"componentType":5126,
			"count":1692,
			"type":"VEC2"
		},
		{
			"bufferView":3,
			"componentType":5123,
			"count":2928,
			"type":"SCALAR"
		},
		{
			"bufferView":4,
			"componentType":5126,
			"count":64,
			"max":[
				2.68468976020813,
				5.478621959686279,
				0.32361114025115967
			],
			"min":[
				-1.793992280960083,
				-4.743124961853027,
				-0.22578218579292297
			],
			"type":"VEC3"
		},
		{
			"bufferView":5,
			"componentType":5126,
			"count":64,
			"type":"VEC3"
		},
		{
			"bufferView":6,
			"componentType":5126,
			"count":64,
			"type":"VEC2"
		},
		{
			"bufferView":7,
			"componentType":5123,
			"count":96,
			"type":"SCALAR"
		}
	],
	"bufferViews":[
		{
			"buffer":0,
			"byteLength":20304,
			"byteOffset":0,
			"target":34962
		},
		{
			"buffer":0,
			"byteLength":20304,
			"byteOffset":20304,
			"target":34962
		},
		{
			"buffer":0,
			"byteLength":13536,
			"byteOffset":40608,
			"target":34962
		},
		{
			"buffer":0,
			"byteLength":5856,
			"byteOffset":54144,
			"target":34963
		},
		{
			"buffer":0,
			"byteLength":768,
			"byteOffset":60000,
			"target":34962
		},
		{
			"buffer":0,
			"byteLength":768,
			"byteOffset":60768,
			"target":34962
		},
		{
			"buffer":0,
			"byteLength":512,
			"byteOffset":61536,
			"target":34962
		},
		{
			"buffer":0,
			"byteLength":192,
			"byteOffset":62048,
			"target":34963
		}
	],
	"buffers":[
		{
			"byteLength":62240,
			"uri":"door.bin"
		}
	]
}
