{
	"asset":{
		"generator":"Khronos glTF Blender I/O v4.1.62",
		"version":"2.0"
	},
	"scene":0,
	"scenes":[
		{
			"name":"Scene",
			"nodes":[
				0
			]
		}
	],
	"nodes":[
		{
			"mesh":0,
			"name":"Blender",
			"scale":[
				1.688834309577942,
				1.688834309577942,
				1.688834309577942
			]
		}
	],
	"materials":[
		{
			"doubleSided":true,
			"name":"Grey.024",
			"pbrMetallicRoughness":{
				"baseColorFactor":[
					0.2600274980068207,
					0.2600274980068207,
					0.2600274980068207,
					1
				],
				"metallicFactor":0,
				"roughnessFactor":0.5
			}
		},
		{
			"doubleSided":true,
			"name":"Blue 2.013",
			"pbrMetallicRoughness":{
				"baseColorFactor":[
					0.04154860973358154,
					0.23032249510288239,
					0.23441897332668304,
					1
				],
				"metallicFactor":0,
				"roughnessFactor":0.5
			}
		}
	],
	"meshes":[
		{
			"name":"Cylinder.038",
			"primitives":[
				{
					"attributes":{
						"POSITION":0,
						"NORMAL":1,
						"TEXCOORD_0":2
					},
					"indices":3,
					"material":0
				},
				{
					"attributes":{
						"POSITION":4,
						"NORMAL":5,
						"TEXCOORD_0":6
					},
					"indices":7,
					"material":1
				}
			]
		}
	],
	"accessors":[
		{
			"bufferView":0,
			"componentType":5126,
			"count":730,
			"max":[
				0.31225717067718506,
				0.6309177875518799,
				0.43011024594306946
			],
			"min":[
				-0.5721167922019958,
				-0.8559023141860962,
				-0.4305781424045563
			],
			"type":"VEC3"
		},
		{
			"bufferView":1,
			"componentType":5126,
			"count":730,
			"type":"VEC3"
		},
		{
			"bufferView":2,
			"componentType":5126,
			"count":730,
			"type":"VEC2"
		},
		{
			"bufferView":3,
			"componentType":5123,
			"count":1296,
			"type":"SCALAR"
		},
		{
			"bufferView":4,
			"componentType":5126,
			"count":72,
			"max":[
				0.2197096198797226,
				0.5284463167190552,
				0.36124807596206665
			],
			"min":[
				-0.5032545924186707,
				-0.46088260412216187,
				-0.36171600222587585
			],
			"type":"VEC3"
		},
		{
			"bufferView":5,
			"componentType":5126,
			"count":72,
			"type":"VEC3"
		},
		{
			"bufferView":6,
			"componentType":5126,
			"count":72,
			"type":"VEC2"
		},
		{
			"bufferView":7,
			"componentType":5123,
			"count":144,
			"type":"SCALAR"
		}
	],
	"bufferViews":[
		{
			"buffer":0,
			"byteLength":8760,
			"byteOffset":0,
			"target":34962
		},
		{
			"buffer":0,
			"byteLength":8760,
			"byteOffset":8760,
			"target":34962
		},
		{
			"buffer":0,
			"byteLength":5840,
			"byteOffset":17520,
			"target":34962
		},
		{
			"buffer":0,
			"byteLength":2592,
			"byteOffset":23360,
			"target":34963
		},
		{
			"buffer":0,
			"byteLength":864,
			"byteOffset":25952,
			"target":34962
		},
		{
			"buffer":0,
			"byteLength":864,
			"byteOffset":26816,
			"target":34962
		},
		{
			"buffer":0,
			"byteLength":576,
			"byteOffset":27680,
			"target":34962
		},
		{
			"buffer":0,
			"byteLength":288,
			"byteOffset":28256,
			"target":34963
		}
	],
	"buffers":[
		{
			"byteLength":28544,
			"uri":"blender.bin"
		}
	]
}
