{
	"asset":{
		"generator":"Khronos glTF Blender I/O v4.2.70",
		"version":"2.0"
	},
	"scene":0,
	"scenes":[
		{
			"name":"Scene",
			"nodes":[
				0
			]
		}
	],
	"nodes":[
		{
			"mesh":0,
			"name":"Books A"
		}
	],
	"materials":[
		{
			"doubleSided":true,
			"name":"White.018",
			"pbrMetallicRoughness":{
				"baseColorFactor":[
					0.6353368163108826,
					0.6353368163108826,
					0.6353368163108826,
					1
				],
				"metallicFactor":0
			}
		},
		{
			"doubleSided":true,
			"name":"Blue.005",
			"pbrMetallicRoughness":{
				"baseColorFactor":[
					0.07112232595682144,
					0.11088339984416962,
					0.26890936493873596,
					1
				],
				"metallicFactor":0,
				"roughnessFactor":0.5
			}
		},
		{
			"doubleSided":true,
			"name":"Red.004",
			"pbrMetallicRoughness":{
				"baseColorFactor":[
					0.34115174412727356,
					0.026578301563858986,
					0.013850972056388855,
					1
				],
				"metallicFactor":0,
				"roughnessFactor":0.5
			}
		},
		{
			"doubleSided":true,
			"name":"Green.004",
			"pbrMetallicRoughness":{
				"baseColorFactor":[
					0.07419605553150177,
					0.2786073684692383,
					0.07167497277259827,
					1
				],
				"metallicFactor":0,
				"roughnessFactor":0.5
			}
		}
	],
	"meshes":[
		{
			"name":"Cube.064",
			"primitives":[
				{
					"attributes":{
						"POSITION":0,
						"NORMAL":1,
						"TEXCOORD_0":2
					},
					"indices":3,
					"material":0
				},
				{
					"attributes":{
						"POSITION":4,
						"NORMAL":5,
						"TEXCOORD_0":6
					},
					"indices":7,
					"material":1
				},
				{
					"attributes":{
						"POSITION":8,
						"NORMAL":9,
						"TEXCOORD_0":10
					},
					"indices":11,
					"material":2
				},
				{
					"attributes":{
						"POSITION":12,
						"NORMAL":13,
						"TEXCOORD_0":14
					},
					"indices":15,
					"material":3
				}
			]
		}
	],
	"accessors":[
		{
			"bufferView":0,
			"componentType":5126,
			"count":84,
			"max":[
				1.3192473649978638,
				0.8121355772018433,
				0.4188200533390045
			],
			"min":[
				-1.026282548904419,
				-0.587865948677063,
				-0.31949374079704285
			],
			"type":"VEC3"
		},
		{
			"bufferView":1,
			"componentType":5126,
			"count":84,
			"type":"VEC3"
		},
		{
			"bufferView":2,
			"componentType":5126,
			"count":84,
			"type":"VEC2"
		},
		{
			"bufferView":3,
			"componentType":5123,
			"count":126,
			"type":"SCALAR"
		},
		{
			"bufferView":4,
			"componentType":5126,
			"count":435,
			"max":[
				1.4186197519302368,
				0.8584192991256714,
				0.45915183424949646
			],
			"min":[
				-0.818086564540863,
				-0.6249359846115112,
				-0.4223461449146271
			],
			"type":"VEC3"
		},
		{
			"bufferView":5,
			"componentType":5126,
			"count":435,
			"type":"VEC3"
		},
		{
			"bufferView":6,
			"componentType":5126,
			"count":435,
			"type":"VEC2"
		},
		{
			"bufferView":7,
			"componentType":5123,
			"count":702,
			"type":"SCALAR"
		},
		{
			"bufferView":8,
			"componentType":5126,
			"count":288,
			"max":[
				0.7889277338981628,
				0.6667008399963379,
				0.45915183424949646
			],
			"min":[
				-1.1291348934173584,
				-0.6240655183792114,
				-0.4223461449146271
			],
			"type":"VEC3"
		},
		{
			"bufferView":9,
			"componentType":5126,
			"count":288,
			"type":"VEC3"
		},
		{
			"bufferView":10,
			"componentType":5126,
			"count":288,
			"type":"VEC2"
		},
		{
			"bufferView":11,
			"componentType":5123,
			"count":468,
			"type":"SCALAR"
		},
		{
			"bufferView":12,
			"componentType":5126,
			"count":288,
			"max":[
				0.14261816442012787,
				0.6667008399963379,
				0.45915183424949646
			],
			"min":[
				-0.48282548785209656,
				-0.6240655183792114,
				-0.4223461449146271
			],
			"type":"VEC3"
		},
		{
			"bufferView":13,
			"componentType":5126,
			"count":288,
			"type":"VEC3"
		},
		{
			"bufferView":14,
			"componentType":5126,
			"count":288,
			"type":"VEC2"
		},
		{
			"bufferView":15,
			"componentType":5123,
			"count":468,
			"type":"SCALAR"
		}
	],
	"bufferViews":[
		{
			"buffer":0,
			"byteLength":1008,
			"byteOffset":0,
			"target":34962
		},
		{
			"buffer":0,
			"byteLength":1008,
			"byteOffset":1008,
			"target":34962
		},
		{
			"buffer":0,
			"byteLength":672,
			"byteOffset":2016,
			"target":34962
		},
		{
			"buffer":0,
			"byteLength":252,
			"byteOffset":2688,
			"target":34963
		},
		{
			"buffer":0,
			"byteLength":5220,
			"byteOffset":2940,
			"target":34962
		},
		{
			"buffer":0,
			"byteLength":5220,
			"byteOffset":8160,
			"target":34962
		},
		{
			"buffer":0,
			"byteLength":3480,
			"byteOffset":13380,
			"target":34962
		},
		{
			"buffer":0,
			"byteLength":1404,
			"byteOffset":16860,
			"target":34963
		},
		{
			"buffer":0,
			"byteLength":3456,
			"byteOffset":18264,
			"target":34962
		},
		{
			"buffer":0,
			"byteLength":3456,
			"byteOffset":21720,
			"target":34962
		},
		{
			"buffer":0,
			"byteLength":2304,
			"byteOffset":25176,
			"target":34962
		},
		{
			"buffer":0,
			"byteLength":936,
			"byteOffset":27480,
			"target":34963
		},
		{
			"buffer":0,
			"byteLength":3456,
			"byteOffset":28416,
			"target":34962
		},
		{
			"buffer":0,
			"byteLength":3456,
			"byteOffset":31872,
			"target":34962
		},
		{
			"buffer":0,
			"byteLength":2304,
			"byteOffset":35328,
			"target":34962
		},
		{
			"buffer":0,
			"byteLength":936,
			"byteOffset":37632,
			"target":34963
		}
	],
	"buffers":[
		{
			"byteLength":38568,
			"uri":"bookA.bin"
		}
	]
}
