{
	"asset":{
		"generator":"Khronos glTF Blender I/O v4.2.70",
		"version":"2.0"
	},
	"scene":0,
	"scenes":[
		{
			"name":"Scene",
			"nodes":[
				0
			]
		}
	],
	"nodes":[
		{
			"mesh":0,
			"name":"Books B"
		}
	],
	"materials":[
		{
			"doubleSided":true,
			"name":"White.017",
			"pbrMetallicRoughness":{
				"baseColorFactor":[
					0.6353368163108826,
					0.6353368163108826,
					0.6353368163108826,
					1
				],
				"metallicFactor":0
			}
		},
		{
			"doubleSided":true,
			"name":"Yelow.003",
			"pbrMetallicRoughness":{
				"baseColorFactor":[
					0.8000000715255737,
					0.46183839440345764,
					0.06633850932121277,
					1
				],
				"metallicFactor":0,
				"roughnessFactor":0.5
			}
		},
		{
			"doubleSided":true,
			"name":"Red.003",
			"pbrMetallicRoughness":{
				"baseColorFactor":[
					0.34115174412727356,
					0.026578301563858986,
					0.013850972056388855,
					1
				],
				"metallicFactor":0,
				"roughnessFactor":0.5
			}
		},
		{
			"doubleSided":true,
			"name":"Green.003",
			"pbrMetallicRoughness":{
				"baseColorFactor":[
					0.07419605553150177,
					0.2786073684692383,
					0.07167497277259827,
					1
				],
				"metallicFactor":0,
				"roughnessFactor":0.5
			}
		}
	],
	"meshes":[
		{
			"name":"Cube.082",
			"primitives":[
				{
					"attributes":{
						"POSITION":0,
						"NORMAL":1,
						"TEXCOORD_0":2
					},
					"indices":3,
					"material":0
				},
				{
					"attributes":{
						"POSITION":4,
						"NORMAL":5,
						"TEXCOORD_0":6
					},
					"indices":7,
					"material":1
				},
				{
					"attributes":{
						"POSITION":8,
						"NORMAL":9,
						"TEXCOORD_0":10
					},
					"indices":7,
					"material":2
				},
				{
					"attributes":{
						"POSITION":11,
						"NORMAL":12,
						"TEXCOORD_0":13
					},
					"indices":14,
					"material":3
				}
			]
		}
	],
	"accessors":[
		{
			"bufferView":0,
			"componentType":5126,
			"count":60,
			"max":[
				0.8185937404632568,
				0.9345759749412537,
				0.4188200831413269
			],
			"min":[
				-1.298870325088501,
				-0.4654255211353302,
				-0.31949371099472046
			],
			"type":"VEC3"
		},
		{
			"bufferView":1,
			"componentType":5126,
			"count":60,
			"type":"VEC3"
		},
		{
			"bufferView":2,
			"componentType":5126,
			"count":60,
			"type":"VEC2"
		},
		{
			"bufferView":3,
			"componentType":5123,
			"count":90,
			"type":"SCALAR"
		},
		{
			"bufferView":4,
			"componentType":5126,
			"count":288,
			"max":[
				0.2778029441833496,
				0.9808596968650818,
				0.45915186405181885
			],
			"min":[
				-1.116358757019043,
				-0.5003932118415833,
				-0.4223461151123047
			],
			"type":"VEC3"
		},
		{
			"bufferView":5,
			"componentType":5126,
			"count":288,
			"type":"VEC3"
		},
		{
			"bufferView":6,
			"componentType":5126,
			"count":288,
			"type":"VEC2"
		},
		{
			"bufferView":7,
			"componentType":5123,
			"count":468,
			"type":"SCALAR"
		},
		{
			"bufferView":8,
			"componentType":5126,
			"count":288,
			"max":[
				0.9214460849761963,
				0.7891412377357483,
				0.45915186405181885
			],
			"min":[
				-1.3392021656036377,
				-0.501625120639801,
				-0.4223461151123047
			],
			"type":"VEC3"
		},
		{
			"bufferView":9,
			"componentType":5126,
			"count":288,
			"type":"VEC3"
		},
		{
			"bufferView":10,
			"componentType":5126,
			"count":288,
			"type":"VEC2"
		},
		{
			"bufferView":11,
			"componentType":5126,
			"count":144,
			"max":[
				0.6130638122558594,
				0.4399722218513489,
				0.45915186405181885
			],
			"min":[
				0.30010104179382324,
				-0.4946284592151642,
				-0.4223461151123047
			],
			"type":"VEC3"
		},
		{
			"bufferView":12,
			"componentType":5126,
			"count":144,
			"type":"VEC3"
		},
		{
			"bufferView":13,
			"componentType":5126,
			"count":144,
			"type":"VEC2"
		},
		{
			"bufferView":14,
			"componentType":5123,
			"count":234,
			"type":"SCALAR"
		}
	],
	"bufferViews":[
		{
			"buffer":0,
			"byteLength":720,
			"byteOffset":0,
			"target":34962
		},
		{
			"buffer":0,
			"byteLength":720,
			"byteOffset":720,
			"target":34962
		},
		{
			"buffer":0,
			"byteLength":480,
			"byteOffset":1440,
			"target":34962
		},
		{
			"buffer":0,
			"byteLength":180,
			"byteOffset":1920,
			"target":34963
		},
		{
			"buffer":0,
			"byteLength":3456,
			"byteOffset":2100,
			"target":34962
		},
		{
			"buffer":0,
			"byteLength":3456,
			"byteOffset":5556,
			"target":34962
		},
		{
			"buffer":0,
			"byteLength":2304,
			"byteOffset":9012,
			"target":34962
		},
		{
			"buffer":0,
			"byteLength":936,
			"byteOffset":11316,
			"target":34963
		},
		{
			"buffer":0,
			"byteLength":3456,
			"byteOffset":12252,
			"target":34962
		},
		{
			"buffer":0,
			"byteLength":3456,
			"byteOffset":15708,
			"target":34962
		},
		{
			"buffer":0,
			"byteLength":2304,
			"byteOffset":19164,
			"target":34962
		},
		{
			"buffer":0,
			"byteLength":1728,
			"byteOffset":21468,
			"target":34962
		},
		{
			"buffer":0,
			"byteLength":1728,
			"byteOffset":23196,
			"target":34962
		},
		{
			"buffer":0,
			"byteLength":1152,
			"byteOffset":24924,
			"target":34962
		},
		{
			"buffer":0,
			"byteLength":468,
			"byteOffset":26076,
			"target":34963
		}
	],
	"buffers":[
		{
			"byteLength":26544,
			"uri":"bookB.bin"
		}
	]
}
