{
	"asset":{
		"generator":"Khronos glTF Blender I/O v4.1.62",
		"version":"2.0"
	},
	"scene":0,
	"scenes":[
		{
			"name":"Scene",
			"nodes":[
				0
			]
		}
	],
	"nodes":[
		{
			"mesh":0,
			"name":"Broom"
		}
	],
	"materials":[
		{
			"doubleSided":true,
			"name":"Brown 3.006",
			"pbrMetallicRoughness":{
				"baseColorFactor":[
					0.26890936493873596,
					0.09035473316907883,
					0.0326484851539135,
					1
				],
				"metallicFactor":0,
				"roughnessFactor":0.5
			}
		}
	],
	"meshes":[
		{
			"name":"Cube.062",
			"primitives":[
				{
					"attributes":{
						"POSITION":0,
						"NORMAL":1,
						"TEXCOORD_0":2
					},
					"indices":3,
					"material":0
				}
			]
		}
	],
	"accessors":[
		{
			"bufferView":0,
			"componentType":5126,
			"count":1708,
			"max":[
				0.8161286115646362,
				5.064436435699463,
				0.33169758319854736
			],
			"min":[
				-0.8161285519599915,
				-0.26222971081733704,
				-0.516952395439148
			],
			"type":"VEC3"
		},
		{
			"bufferView":1,
			"componentType":5126,
			"count":1708,
			"type":"VEC3"
		},
		{
			"bufferView":2,
			"componentType":5126,
			"count":1708,
			"type":"VEC2"
		},
		{
			"bufferView":3,
			"componentType":5123,
			"count":2934,
			"type":"SCALAR"
		}
	],
	"bufferViews":[
		{
			"buffer":0,
			"byteLength":20496,
			"byteOffset":0,
			"target":34962
		},
		{
			"buffer":0,
			"byteLength":20496,
			"byteOffset":20496,
			"target":34962
		},
		{
			"buffer":0,
			"byteLength":13664,
			"byteOffset":40992,
			"target":34962
		},
		{
			"buffer":0,
			"byteLength":5868,
			"byteOffset":54656,
			"target":34963
		}
	],
	"buffers":[
		{
			"byteLength":60524,
			"uri":"broom.bin"
		}
	]
}
