{
	"asset":{
		"generator":"Khronos glTF Blender I/O v4.1.62",
		"version":"2.0"
	},
	"scene":0,
	"scenes":[
		{
			"name":"Scene",
			"nodes":[
				0
			]
		}
	],
	"nodes":[
		{
			"mesh":0,
			"name":"Clock"
		}
	],
	"materials":[
		{
			"doubleSided":true,
			"name":"Brown 2.006",
			"pbrMetallicRoughness":{
				"baseColorFactor":[
					0.5521917343139648,
					0.23758356273174286,
					0.10646744072437286,
					1
				],
				"metallicFactor":0,
				"roughnessFactor":0.5
			}
		},
		{
			"doubleSided":true,
			"name":"White.015",
			"pbrMetallicRoughness":{
				"baseColorFactor":[
					0.6353368163108826,
					0.6353368163108826,
					0.6353368163108826,
					1
				],
				"metallicFactor":0,
				"roughnessFactor":0.5
			}
		},
		{
			"doubleSided":true,
			"name":"Grey 2.021",
			"pbrMetallicRoughness":{
				"baseColorFactor":[
					0.08696522563695908,
					0.08696522563695908,
					0.08696522563695908,
					1
				],
				"metallicFactor":0,
				"roughnessFactor":0.5
			}
		}
	],
	"meshes":[
		{
			"name":"Cylinder.028",
			"primitives":[
				{
					"attributes":{
						"POSITION":0,
						"NORMAL":1,
						"TEXCOORD_0":2
					},
					"indices":3,
					"material":0
				},
				{
					"attributes":{
						"POSITION":4,
						"NORMAL":5,
						"TEXCOORD_0":6
					},
					"indices":7,
					"material":1
				},
				{
					"attributes":{
						"POSITION":8,
						"NORMAL":9,
						"TEXCOORD_0":10
					},
					"indices":11,
					"material":2
				}
			]
		}
	],
	"accessors":[
		{
			"bufferView":0,
			"componentType":5126,
			"count":180,
			"max":[
				0.8548500537872314,
				0.8428658246994019,
				0.07601678371429443
			],
			"min":[
				-0.8971978425979614,
				-0.909182071685791,
				-0.16709917783737183
			],
			"type":"VEC3"
		},
		{
			"bufferView":1,
			"componentType":5126,
			"count":180,
			"type":"VEC3"
		},
		{
			"bufferView":2,
			"componentType":5126,
			"count":180,
			"type":"VEC2"
		},
		{
			"bufferView":3,
			"componentType":5123,
			"count":318,
			"type":"SCALAR"
		},
		{
			"bufferView":4,
			"componentType":5126,
			"count":12,
			"max":[
				0.6164954900741577,
				0.6045112013816833,
				-0.001390114426612854
			],
			"min":[
				-0.6588432788848877,
				-0.6708275079727173,
				-0.001390162855386734
			],
			"type":"VEC3"
		},
		{
			"bufferView":5,
			"componentType":5126,
			"count":12,
			"type":"VEC3"
		},
		{
			"bufferView":6,
			"componentType":5126,
			"count":12,
			"type":"VEC2"
		},
		{
			"bufferView":7,
			"componentType":5123,
			"count":30,
			"type":"SCALAR"
		},
		{
			"bufferView":8,
			"componentType":5126,
			"count":134,
			"max":[
				0.31879016757011414,
				0.5290665626525879,
				0.04213010147213936
			],
			"min":[
				-0.08909552544355392,
				-0.10718713700771332,
				-0.006301905959844589
			],
			"type":"VEC3"
		},
		{
			"bufferView":9,
			"componentType":5126,
			"count":134,
			"type":"VEC3"
		},
		{
			"bufferView":10,
			"componentType":5126,
			"count":134,
			"type":"VEC2"
		},
		{
			"bufferView":11,
			"componentType":5123,
			"count":204,
			"type":"SCALAR"
		}
	],
	"bufferViews":[
		{
			"buffer":0,
			"byteLength":2160,
			"byteOffset":0,
			"target":34962
		},
		{
			"buffer":0,
			"byteLength":2160,
			"byteOffset":2160,
			"target":34962
		},
		{
			"buffer":0,
			"byteLength":1440,
			"byteOffset":4320,
			"target":34962
		},
		{
			"buffer":0,
			"byteLength":636,
			"byteOffset":5760,
			"target":34963
		},
		{
			"buffer":0,
			"byteLength":144,
			"byteOffset":6396,
			"target":34962
		},
		{
			"buffer":0,
			"byteLength":144,
			"byteOffset":6540,
			"target":34962
		},
		{
			"buffer":0,
			"byteLength":96,
			"byteOffset":6684,
			"target":34962
		},
		{
			"buffer":0,
			"byteLength":60,
			"byteOffset":6780,
			"target":34963
		},
		{
			"buffer":0,
			"byteLength":1608,
			"byteOffset":6840,
			"target":34962
		},
		{
			"buffer":0,
			"byteLength":1608,
			"byteOffset":8448,
			"target":34962
		},
		{
			"buffer":0,
			"byteLength":1072,
			"byteOffset":10056,
			"target":34962
		},
		{
			"buffer":0,
			"byteLength":408,
			"byteOffset":11128,
			"target":34963
		}
	],
	"buffers":[
		{
			"byteLength":11536,
			"uri":"clock.bin"
		}
	]
}
