{
	"asset":{
		"generator":"Khronos glTF Blender I/O v4.1.62",
		"version":"2.0"
	},
	"scene":0,
	"scenes":[
		{
			"name":"Scene",
			"nodes":[
				0
			]
		}
	],
	"nodes":[
		{
			"mesh":0,
			"name":"Globe"
		}
	],
	"materials":[
		{
			"doubleSided":true,
			"name":"Brown.003",
			"pbrMetallicRoughness":{
				"baseColorFactor":[
					0.3505583703517914,
					0.12707479298114777,
					0.04741016775369644,
					1
				],
				"metallicFactor":0,
				"roughnessFactor":0.5
			}
		},
		{
			"doubleSided":true,
			"name":"Green.002",
			"pbrMetallicRoughness":{
				"baseColorFactor":[
					0.07419605553150177,
					0.2786073684692383,
					0.07167497277259827,
					1
				],
				"metallicFactor":0,
				"roughnessFactor":0.5
			}
		},
		{
			"doubleSided":true,
			"name":"Blue.004",
			"pbrMetallicRoughness":{
				"baseColorFactor":[
					0.07112232595682144,
					0.11088339984416962,
					0.26890936493873596,
					1
				],
				"metallicFactor":0,
				"roughnessFactor":0.5
			}
		}
	],
	"meshes":[
		{
			"name":"Icosphere.001",
			"primitives":[
				{
					"attributes":{
						"POSITION":0,
						"NORMAL":1,
						"TEXCOORD_0":2
					},
					"indices":3,
					"material":0
				},
				{
					"attributes":{
						"POSITION":4,
						"NORMAL":5,
						"TEXCOORD_0":6
					},
					"indices":7,
					"material":1
				},
				{
					"attributes":{
						"POSITION":8,
						"NORMAL":9,
						"TEXCOORD_0":10
					},
					"indices":11,
					"material":2
				}
			]
		}
	],
	"accessors":[
		{
			"bufferView":0,
			"componentType":5126,
			"count":590,
			"max":[
				0.7794075012207031,
				1.2887725830078125,
				0.6929824352264404
			],
			"min":[
				-0.8761420249938965,
				-0.8422870635986328,
				-0.69298255443573
			],
			"type":"VEC3"
		},
		{
			"bufferView":1,
			"componentType":5126,
			"count":590,
			"type":"VEC3"
		},
		{
			"bufferView":2,
			"componentType":5126,
			"count":590,
			"type":"VEC2"
		},
		{
			"bufferView":3,
			"componentType":5123,
			"count":984,
			"type":"SCALAR"
		},
		{
			"bufferView":4,
			"componentType":5126,
			"count":81,
			"max":[
				0.4961778521537781,
				1.0731927156448364,
				0.5779387950897217
			],
			"min":[
				-0.8375822901725769,
				-0.1952923685312271,
				-0.6794090867042542
			],
			"type":"VEC3"
		},
		{
			"bufferView":5,
			"componentType":5126,
			"count":81,
			"type":"VEC3"
		},
		{
			"bufferView":6,
			"componentType":5126,
			"count":81,
			"type":"VEC2"
		},
		{
			"bufferView":7,
			"componentType":5123,
			"count":81,
			"type":"SCALAR"
		},
		{
			"bufferView":8,
			"componentType":5126,
			"count":159,
			"max":[
				0.4961778521537781,
				1.093508005142212,
				0.6794089674949646
			],
			"min":[
				-0.8375822901725769,
				-0.2156074494123459,
				-0.5779389142990112
			],
			"type":"VEC3"
		},
		{
			"bufferView":9,
			"componentType":5126,
			"count":159,
			"type":"VEC3"
		},
		{
			"bufferView":10,
			"componentType":5126,
			"count":159,
			"type":"VEC2"
		},
		{
			"bufferView":11,
			"componentType":5123,
			"count":159,
			"type":"SCALAR"
		}
	],
	"bufferViews":[
		{
			"buffer":0,
			"byteLength":7080,
			"byteOffset":0,
			"target":34962
		},
		{
			"buffer":0,
			"byteLength":7080,
			"byteOffset":7080,
			"target":34962
		},
		{
			"buffer":0,
			"byteLength":4720,
			"byteOffset":14160,
			"target":34962
		},
		{
			"buffer":0,
			"byteLength":1968,
			"byteOffset":18880,
			"target":34963
		},
		{
			"buffer":0,
			"byteLength":972,
			"byteOffset":20848,
			"target":34962
		},
		{
			"buffer":0,
			"byteLength":972,
			"byteOffset":21820,
			"target":34962
		},
		{
			"buffer":0,
			"byteLength":648,
			"byteOffset":22792,
			"target":34962
		},
		{
			"buffer":0,
			"byteLength":162,
			"byteOffset":23440,
			"target":34963
		},
		{
			"buffer":0,
			"byteLength":1908,
			"byteOffset":23604,
			"target":34962
		},
		{
			"buffer":0,
			"byteLength":1908,
			"byteOffset":25512,
			"target":34962
		},
		{
			"buffer":0,
			"byteLength":1272,
			"byteOffset":27420,
			"target":34962
		},
		{
			"buffer":0,
			"byteLength":318,
			"byteOffset":28692,
			"target":34963
		}
	],
	"buffers":[
		{
			"byteLength":29012,
			"uri":"earth_cube.bin"
		}
	]
}
