{
	"asset":{
		"generator":"Khronos glTF Blender I/O v4.1.62",
		"version":"2.0"
	},
	"scene":0,
	"scenes":[
		{
			"name":"Scene",
			"nodes":[
				0
			]
		}
	],
	"nodes":[
		{
			"mesh":0,
			"name":"Fan",
			"rotation":[
				0,
				-1,
				0,
				1.9470718370939721e-07
			]
		}
	],
	"materials":[
		{
			"doubleSided":true,
			"name":"White.014",
			"pbrMetallicRoughness":{
				"baseColorFactor":[
					0.6353368163108826,
					0.6353368163108826,
					0.6353368163108826,
					1
				],
				"metallicFactor":0,
				"roughnessFactor":0.5
			}
		},
		{
			"doubleSided":true,
			"name":"Grey 2.020",
			"pbrMetallicRoughness":{
				"baseColorFactor":[
					0.08696522563695908,
					0.08696522563695908,
					0.08696522563695908,
					1
				],
				"metallicFactor":0,
				"roughnessFactor":0.5
			}
		}
	],
	"meshes":[
		{
			"name":"Cylinder.031",
			"primitives":[
				{
					"attributes":{
						"POSITION":0,
						"NORMAL":1,
						"TEXCOORD_0":2
					},
					"indices":3,
					"material":0
				},
				{
					"attributes":{
						"POSITION":4,
						"NORMAL":5,
						"TEXCOORD_0":6
					},
					"indices":7,
					"material":1
				}
			]
		}
	],
	"accessors":[
		{
			"bufferView":0,
			"componentType":5126,
			"count":3348,
			"max":[
				1.0988903045654297,
				1.1515648365020752,
				1.0500458478927612
			],
			"min":[
				-1.0988984107971191,
				-1.7833107709884644,
				-0.4952693581581116
			],
			"type":"VEC3"
		},
		{
			"bufferView":1,
			"componentType":5126,
			"count":3348,
			"type":"VEC3"
		},
		{
			"bufferView":2,
			"componentType":5126,
			"count":3348,
			"type":"VEC2"
		},
		{
			"bufferView":3,
			"componentType":5123,
			"count":6648,
			"type":"SCALAR"
		},
		{
			"bufferView":4,
			"componentType":5126,
			"count":352,
			"max":[
				0.7709872722625732,
				0.8969307541847229,
				0.3640298545360565
			],
			"min":[
				-0.8348912000656128,
				-0.7915898561477661,
				-0.4882839024066925
			],
			"type":"VEC3"
		},
		{
			"bufferView":5,
			"componentType":5126,
			"count":352,
			"type":"VEC3"
		},
		{
			"bufferView":6,
			"componentType":5126,
			"count":352,
			"type":"VEC2"
		},
		{
			"bufferView":7,
			"componentType":5123,
			"count":552,
			"type":"SCALAR"
		}
	],
	"bufferViews":[
		{
			"buffer":0,
			"byteLength":40176,
			"byteOffset":0,
			"target":34962
		},
		{
			"buffer":0,
			"byteLength":40176,
			"byteOffset":40176,
			"target":34962
		},
		{
			"buffer":0,
			"byteLength":26784,
			"byteOffset":80352,
			"target":34962
		},
		{
			"buffer":0,
			"byteLength":13296,
			"byteOffset":107136,
			"target":34963
		},
		{
			"buffer":0,
			"byteLength":4224,
			"byteOffset":120432,
			"target":34962
		},
		{
			"buffer":0,
			"byteLength":4224,
			"byteOffset":124656,
			"target":34962
		},
		{
			"buffer":0,
			"byteLength":2816,
			"byteOffset":128880,
			"target":34962
		},
		{
			"buffer":0,
			"byteLength":1104,
			"byteOffset":131696,
			"target":34963
		}
	],
	"buffers":[
		{
			"byteLength":132800,
			"uri":"fan.bin"
		}
	]
}
