{
	"asset":{
		"generator":"Khronos glTF Blender I/O v4.1.62",
		"version":"2.0"
	},
	"scene":0,
	"scenes":[
		{
			"name":"Scene",
			"nodes":[
				0
			]
		}
	],
	"nodes":[
		{
			"mesh":0,
			"name":"Light switch"
		}
	],
	"materials":[
		{
			"doubleSided":true,
			"name":"White.013",
			"pbrMetallicRoughness":{
				"baseColorFactor":[
					0.6353368163108826,
					0.6353368163108826,
					0.6353368163108826,
					1
				],
				"metallicFactor":0,
				"roughnessFactor":0.5
			}
		},
		{
			"doubleSided":true,
			"name":"Grey.019",
			"pbrMetallicRoughness":{
				"baseColorFactor":[
					0.2600274980068207,
					0.2600274980068207,
					0.2600274980068207,
					1
				],
				"metallicFactor":0,
				"roughnessFactor":0.5
			}
		}
	],
	"meshes":[
		{
			"name":"Cube.038",
			"primitives":[
				{
					"attributes":{
						"POSITION":0,
						"NORMAL":1,
						"TEXCOORD_0":2
					},
					"indices":3,
					"material":0
				},
				{
					"attributes":{
						"POSITION":4,
						"NORMAL":5,
						"TEXCOORD_0":6
					},
					"indices":7,
					"material":1
				}
			]
		}
	],
	"accessors":[
		{
			"bufferView":0,
			"componentType":5126,
			"count":102,
			"max":[
				0.19990341365337372,
				0.19990341365337372,
				0.02013208158314228
			],
			"min":[
				-0.19990341365337372,
				-0.19990341365337372,
				-0.07216240465641022
			],
			"type":"VEC3"
		},
		{
			"bufferView":1,
			"componentType":5126,
			"count":102,
			"type":"VEC3"
		},
		{
			"bufferView":2,
			"componentType":5126,
			"count":102,
			"type":"VEC2"
		},
		{
			"bufferView":3,
			"componentType":5123,
			"count":216,
			"type":"SCALAR"
		},
		{
			"bufferView":4,
			"componentType":5126,
			"count":72,
			"max":[
				0.10585377365350723,
				0.10585377365350723,
				0.03980185091495514
			],
			"min":[
				-0.10585377365350723,
				-0.10585377365350723,
				0.02013208158314228
			],
			"type":"VEC3"
		},
		{
			"bufferView":5,
			"componentType":5126,
			"count":72,
			"type":"VEC3"
		},
		{
			"bufferView":6,
			"componentType":5126,
			"count":72,
			"type":"VEC2"
		},
		{
			"bufferView":7,
			"componentType":5123,
			"count":108,
			"type":"SCALAR"
		}
	],
	"bufferViews":[
		{
			"buffer":0,
			"byteLength":1224,
			"byteOffset":0,
			"target":34962
		},
		{
			"buffer":0,
			"byteLength":1224,
			"byteOffset":1224,
			"target":34962
		},
		{
			"buffer":0,
			"byteLength":816,
			"byteOffset":2448,
			"target":34962
		},
		{
			"buffer":0,
			"byteLength":432,
			"byteOffset":3264,
			"target":34963
		},
		{
			"buffer":0,
			"byteLength":864,
			"byteOffset":3696,
			"target":34962
		},
		{
			"buffer":0,
			"byteLength":864,
			"byteOffset":4560,
			"target":34962
		},
		{
			"buffer":0,
			"byteLength":576,
			"byteOffset":5424,
			"target":34962
		},
		{
			"buffer":0,
			"byteLength":216,
			"byteOffset":6000,
			"target":34963
		}
	],
	"buffers":[
		{
			"byteLength":6216,
			"uri":"light_switch.bin"
		}
	]
}
