{
	"asset":{
		"generator":"Khronos glTF Blender I/O v4.1.62",
		"version":"2.0"
	},
	"scene":0,
	"scenes":[
		{
			"name":"Scene",
			"nodes":[
				0
			]
		}
	],
	"nodes":[
		{
			"mesh":0,
			"name":"Pan"
		}
	],
	"materials":[
		{
			"doubleSided":true,
			"name":"Grey 2.018",
			"pbrMetallicRoughness":{
				"baseColorFactor":[
					0.08696522563695908,
					0.08696522563695908,
					0.08696522563695908,
					1
				],
				"metallicFactor":0,
				"roughnessFactor":0.5
			}
		},
		{
			"doubleSided":true,
			"name":"Brown.002",
			"pbrMetallicRoughness":{
				"baseColorFactor":[
					0.3505583703517914,
					0.12707479298114777,
					0.04741016775369644,
					1
				],
				"metallicFactor":0,
				"roughnessFactor":0.5
			}
		}
	],
	"meshes":[
		{
			"name":"Cylinder.034",
			"primitives":[
				{
					"attributes":{
						"POSITION":0,
						"NORMAL":1,
						"TEXCOORD_0":2
					},
					"indices":3,
					"material":0
				},
				{
					"attributes":{
						"POSITION":4,
						"NORMAL":5,
						"TEXCOORD_0":6
					},
					"indices":7,
					"material":1
				}
			]
		}
	],
	"accessors":[
		{
			"bufferView":0,
			"componentType":5126,
			"count":464,
			"max":[
				1.031723976135254,
				0.07829723507165909,
				0.557705283164978
			],
			"min":[
				-0.5577051043510437,
				-0.11896497756242752,
				-0.5577049255371094
			],
			"type":"VEC3"
		},
		{
			"bufferView":1,
			"componentType":5126,
			"count":464,
			"type":"VEC3"
		},
		{
			"bufferView":2,
			"componentType":5126,
			"count":464,
			"type":"VEC2"
		},
		{
			"bufferView":3,
			"componentType":5123,
			"count":774,
			"type":"SCALAR"
		},
		{
			"bufferView":4,
			"componentType":5126,
			"count":103,
			"max":[
				1.328885793685913,
				0.06606140732765198,
				0.057953618466854095
			],
			"min":[
				1.031723976135254,
				-0.049845848232507706,
				-0.057953618466854095
			],
			"type":"VEC3"
		},
		{
			"bufferView":5,
			"componentType":5126,
			"count":103,
			"type":"VEC3"
		},
		{
			"bufferView":6,
			"componentType":5126,
			"count":103,
			"type":"VEC2"
		},
		{
			"bufferView":7,
			"componentType":5123,
			"count":156,
			"type":"SCALAR"
		}
	],
	"bufferViews":[
		{
			"buffer":0,
			"byteLength":5568,
			"byteOffset":0,
			"target":34962
		},
		{
			"buffer":0,
			"byteLength":5568,
			"byteOffset":5568,
			"target":34962
		},
		{
			"buffer":0,
			"byteLength":3712,
			"byteOffset":11136,
			"target":34962
		},
		{
			"buffer":0,
			"byteLength":1548,
			"byteOffset":14848,
			"target":34963
		},
		{
			"buffer":0,
			"byteLength":1236,
			"byteOffset":16396,
			"target":34962
		},
		{
			"buffer":0,
			"byteLength":1236,
			"byteOffset":17632,
			"target":34962
		},
		{
			"buffer":0,
			"byteLength":824,
			"byteOffset":18868,
			"target":34962
		},
		{
			"buffer":0,
			"byteLength":312,
			"byteOffset":19692,
			"target":34963
		}
	],
	"buffers":[
		{
			"byteLength":20004,
			"uri":"pan.bin"
		}
	]
}
