{
	"asset":{
		"generator":"Khronos glTF Blender I/O v4.2.70",
		"version":"2.0"
	},
	"scene":0,
	"scenes":[
		{
			"name":"Scene",
			"nodes":[
				0
			]
		}
	],
	"nodes":[
		{
			"mesh":0,
			"name":"Plant B"
		}
	],
	"materials":[
		{
			"doubleSided":true,
			"name":"Red",
			"pbrMetallicRoughness":{
				"baseColorFactor":[
					0.34115174412727356,
					0.026578301563858986,
					0.013850972056388855,
					1
				],
				"metallicFactor":0
			}
		},
		{
			"doubleSided":true,
			"name":"Green",
			"pbrMetallicRoughness":{
				"baseColorFactor":[
					0.07419605553150177,
					0.2786073684692383,
					0.07167497277259827,
					1
				],
				"metallicFactor":0,
				"roughnessFactor":0.5
			}
		},
		{
			"doubleSided":true,
			"name":"Brown 2.004",
			"pbrMetallicRoughness":{
				"baseColorFactor":[
					0.5521917343139648,
					0.23758356273174286,
					0.10646744072437286,
					1
				],
				"metallicFactor":0,
				"roughnessFactor":0.5
			}
		}
	],
	"meshes":[
		{
			"name":"Cylinder.029",
			"primitives":[
				{
					"attributes":{
						"POSITION":0,
						"NORMAL":1,
						"TEXCOORD_0":2
					},
					"indices":3,
					"material":0
				},
				{
					"attributes":{
						"POSITION":4,
						"NORMAL":5,
						"TEXCOORD_0":6
					},
					"indices":7,
					"material":1
				},
				{
					"attributes":{
						"POSITION":8,
						"NORMAL":9,
						"TEXCOORD_0":10
					},
					"indices":11,
					"material":2
				}
			]
		}
	],
	"accessors":[
		{
			"bufferView":0,
			"componentType":5126,
			"count":300,
			"max":[
				0.47489336133003235,
				-0.07299113273620605,
				0.45228537917137146
			],
			"min":[
				-0.4367274343967438,
				-0.6436976790428162,
				-0.45933541655540466
			],
			"type":"VEC3"
		},
		{
			"bufferView":1,
			"componentType":5126,
			"count":300,
			"type":"VEC3"
		},
		{
			"bufferView":2,
			"componentType":5126,
			"count":300,
			"type":"VEC2"
		},
		{
			"bufferView":3,
			"componentType":5123,
			"count":534,
			"type":"SCALAR"
		},
		{
			"bufferView":4,
			"componentType":5126,
			"count":432,
			"max":[
				0.3136425018310547,
				0.5679728388786316,
				0.313632071018219
			],
			"min":[
				-0.2573896646499634,
				-0.15663838386535645,
				-0.3016471266746521
			],
			"type":"VEC3"
		},
		{
			"bufferView":5,
			"componentType":5126,
			"count":432,
			"type":"VEC3"
		},
		{
			"bufferView":6,
			"componentType":5126,
			"count":432,
			"type":"VEC2"
		},
		{
			"bufferView":7,
			"componentType":5123,
			"count":684,
			"type":"SCALAR"
		},
		{
			"bufferView":8,
			"componentType":5126,
			"count":12,
			"max":[
				0.3984352946281433,
				-0.15188062191009521,
				0.3758273124694824
			],
			"min":[
				-0.36026936769485474,
				-0.15188062191009521,
				-0.3828773498535156
			],
			"type":"VEC3"
		},
		{
			"bufferView":9,
			"componentType":5126,
			"count":12,
			"type":"VEC3"
		},
		{
			"bufferView":10,
			"componentType":5126,
			"count":12,
			"type":"VEC2"
		},
		{
			"bufferView":11,
			"componentType":5123,
			"count":30,
			"type":"SCALAR"
		}
	],
	"bufferViews":[
		{
			"buffer":0,
			"byteLength":3600,
			"byteOffset":0,
			"target":34962
		},
		{
			"buffer":0,
			"byteLength":3600,
			"byteOffset":3600,
			"target":34962
		},
		{
			"buffer":0,
			"byteLength":2400,
			"byteOffset":7200,
			"target":34962
		},
		{
			"buffer":0,
			"byteLength":1068,
			"byteOffset":9600,
			"target":34963
		},
		{
			"buffer":0,
			"byteLength":5184,
			"byteOffset":10668,
			"target":34962
		},
		{
			"buffer":0,
			"byteLength":5184,
			"byteOffset":15852,
			"target":34962
		},
		{
			"buffer":0,
			"byteLength":3456,
			"byteOffset":21036,
			"target":34962
		},
		{
			"buffer":0,
			"byteLength":1368,
			"byteOffset":24492,
			"target":34963
		},
		{
			"buffer":0,
			"byteLength":144,
			"byteOffset":25860,
			"target":34962
		},
		{
			"buffer":0,
			"byteLength":144,
			"byteOffset":26004,
			"target":34962
		},
		{
			"buffer":0,
			"byteLength":96,
			"byteOffset":26148,
			"target":34962
		},
		{
			"buffer":0,
			"byteLength":60,
			"byteOffset":26244,
			"target":34963
		}
	],
	"buffers":[
		{
			"byteLength":26304,
			"uri":"plant_mini.bin"
		}
	]
}
