{
	"asset":{
		"generator":"Khronos glTF Blender I/O v4.2.70",
		"version":"2.0"
	},
	"scene":0,
	"scenes":[
		{
			"name":"Scene",
			"nodes":[
				0
			]
		}
	],
	"nodes":[
		{
			"mesh":0,
			"name":"Plant A"
		}
	],
	"materials":[
		{
			"doubleSided":true,
			"name":"Blue.003",
			"pbrMetallicRoughness":{
				"baseColorFactor":[
					0.07112232595682144,
					0.11088339984416962,
					0.26890936493873596,
					1
				],
				"metallicFactor":0
			}
		},
		{
			"doubleSided":true,
			"name":"Brown 3.004",
			"pbrMetallicRoughness":{
				"baseColorFactor":[
					0.26890936493873596,
					0.09035473316907883,
					0.0326484851539135,
					1
				],
				"metallicFactor":0,
				"roughnessFactor":0.5
			}
		},
		{
			"doubleSided":true,
			"name":"Brown 2.005",
			"pbrMetallicRoughness":{
				"baseColorFactor":[
					0.5521917343139648,
					0.23758356273174286,
					0.10646744072437286,
					1
				],
				"metallicFactor":0,
				"roughnessFactor":0.5
			}
		},
		{
			"doubleSided":true,
			"name":"Green.001",
			"pbrMetallicRoughness":{
				"baseColorFactor":[
					0.07419605553150177,
					0.2786073684692383,
					0.07167497277259827,
					1
				],
				"metallicFactor":0,
				"roughnessFactor":0.5
			}
		}
	],
	"meshes":[
		{
			"name":"Cylinder.016",
			"primitives":[
				{
					"attributes":{
						"POSITION":0,
						"NORMAL":1,
						"TEXCOORD_0":2
					},
					"indices":3,
					"material":0
				},
				{
					"attributes":{
						"POSITION":4,
						"NORMAL":5,
						"TEXCOORD_0":6
					},
					"indices":7,
					"material":1
				},
				{
					"attributes":{
						"POSITION":8,
						"NORMAL":9,
						"TEXCOORD_0":10
					},
					"indices":11,
					"material":2
				},
				{
					"attributes":{
						"POSITION":12,
						"NORMAL":13,
						"TEXCOORD_0":14
					},
					"indices":15,
					"material":3
				}
			]
		}
	],
	"accessors":[
		{
			"bufferView":0,
			"componentType":5126,
			"count":300,
			"max":[
				1.0938117504119873,
				-0.5216680765151978,
				1.0938116312026978
			],
			"min":[
				-1.0938117504119873,
				-2.4490673542022705,
				-1.0938118696212769
			],
			"type":"VEC3"
		},
		{
			"bufferView":1,
			"componentType":5126,
			"count":300,
			"type":"VEC3"
		},
		{
			"bufferView":2,
			"componentType":5126,
			"count":300,
			"type":"VEC2"
		},
		{
			"bufferView":3,
			"componentType":5123,
			"count":534,
			"type":"SCALAR"
		},
		{
			"bufferView":4,
			"componentType":5126,
			"count":96,
			"max":[
				0.11985421925783157,
				1.0761514902114868,
				0.11985413730144501
			],
			"min":[
				-0.11985418945550919,
				-1.0013468265533447,
				-0.11985427141189575
			],
			"type":"VEC3"
		},
		{
			"bufferView":5,
			"componentType":5126,
			"count":96,
			"type":"VEC3"
		},
		{
			"bufferView":6,
			"componentType":5126,
			"count":96,
			"type":"VEC2"
		},
		{
			"bufferView":7,
			"componentType":5123,
			"count":132,
			"type":"SCALAR"
		},
		{
			"bufferView":8,
			"componentType":5126,
			"count":12,
			"max":[
				0.9103347063064575,
				-0.7109798192977905,
				0.9103346467018127
			],
			"min":[
				-0.9103347063064575,
				-0.7109798192977905,
				-0.9103347659111023
			],
			"type":"VEC3"
		},
		{
			"bufferView":9,
			"componentType":5126,
			"count":12,
			"type":"VEC3"
		},
		{
			"bufferView":10,
			"componentType":5126,
			"count":12,
			"type":"VEC2"
		},
		{
			"bufferView":11,
			"componentType":5123,
			"count":30,
			"type":"SCALAR"
		},
		{
			"bufferView":12,
			"componentType":5126,
			"count":240,
			"max":[
				1.3087787628173828,
				3.475916624069214,
				1.3761292695999146
			],
			"min":[
				-1.3087787628173828,
				0.7236572504043579,
				-1.3761295080184937
			],
			"type":"VEC3"
		},
		{
			"bufferView":13,
			"componentType":5126,
			"count":240,
			"type":"VEC3"
		},
		{
			"bufferView":14,
			"componentType":5126,
			"count":240,
			"type":"VEC2"
		},
		{
			"bufferView":15,
			"componentType":5123,
			"count":240,
			"type":"SCALAR"
		}
	],
	"bufferViews":[
		{
			"buffer":0,
			"byteLength":3600,
			"byteOffset":0,
			"target":34962
		},
		{
			"buffer":0,
			"byteLength":3600,
			"byteOffset":3600,
			"target":34962
		},
		{
			"buffer":0,
			"byteLength":2400,
			"byteOffset":7200,
			"target":34962
		},
		{
			"buffer":0,
			"byteLength":1068,
			"byteOffset":9600,
			"target":34963
		},
		{
			"buffer":0,
			"byteLength":1152,
			"byteOffset":10668,
			"target":34962
		},
		{
			"buffer":0,
			"byteLength":1152,
			"byteOffset":11820,
			"target":34962
		},
		{
			"buffer":0,
			"byteLength":768,
			"byteOffset":12972,
			"target":34962
		},
		{
			"buffer":0,
			"byteLength":264,
			"byteOffset":13740,
			"target":34963
		},
		{
			"buffer":0,
			"byteLength":144,
			"byteOffset":14004,
			"target":34962
		},
		{
			"buffer":0,
			"byteLength":144,
			"byteOffset":14148,
			"target":34962
		},
		{
			"buffer":0,
			"byteLength":96,
			"byteOffset":14292,
			"target":34962
		},
		{
			"buffer":0,
			"byteLength":60,
			"byteOffset":14388,
			"target":34963
		},
		{
			"buffer":0,
			"byteLength":2880,
			"byteOffset":14448,
			"target":34962
		},
		{
			"buffer":0,
			"byteLength":2880,
			"byteOffset":17328,
			"target":34962
		},
		{
			"buffer":0,
			"byteLength":1920,
			"byteOffset":20208,
			"target":34962
		},
		{
			"buffer":0,
			"byteLength":480,
			"byteOffset":22128,
			"target":34963
		}
	],
	"buffers":[
		{
			"byteLength":22608,
			"uri":"plant.bin"
		}
	]
}
