{
	"asset":{
		"generator":"Khronos glTF Blender I/O v4.2.70",
		"version":"2.0"
	},
	"scene":0,
	"scenes":[
		{
			"name":"Scene",
			"nodes":[
				0
			]
		}
	],
	"nodes":[
		{
			"mesh":0,
			"name":"Speaker"
		}
	],
	"materials":[
		{
			"doubleSided":true,
			"name":"Grey 2.001",
			"pbrMetallicRoughness":{
				"baseColorFactor":[
					0.08696522563695908,
					0.08696522563695908,
					0.08696522563695908,
					1
				],
				"metallicFactor":0
			}
		},
		{
			"doubleSided":true,
			"name":"Brown 2.001",
			"pbrMetallicRoughness":{
				"baseColorFactor":[
					0.5521917343139648,
					0.23758356273174286,
					0.10646744072437286,
					1
				],
				"metallicFactor":0,
				"roughnessFactor":0.5
			}
		},
		{
			"doubleSided":true,
			"name":"Grey.002",
			"pbrMetallicRoughness":{
				"baseColorFactor":[
					0.2600274980068207,
					0.2600274980068207,
					0.2600274980068207,
					1
				],
				"metallicFactor":0,
				"roughnessFactor":0.5
			}
		}
	],
	"meshes":[
		{
			"name":"Cube.006",
			"primitives":[
				{
					"attributes":{
						"POSITION":0,
						"NORMAL":1,
						"TEXCOORD_0":2
					},
					"indices":3,
					"material":0
				},
				{
					"attributes":{
						"POSITION":4,
						"NORMAL":5,
						"TEXCOORD_0":6
					},
					"indices":7,
					"material":1
				},
				{
					"attributes":{
						"POSITION":8,
						"NORMAL":9,
						"TEXCOORD_0":10
					},
					"indices":11,
					"material":2
				}
			]
		}
	],
	"accessors":[
		{
			"bufferView":0,
			"componentType":5126,
			"count":280,
			"max":[
				0.39402613043785095,
				0.7036448121070862,
				0.0905277356505394
			],
			"min":[
				-0.39402613043785095,
				-0.742062509059906,
				-0.6870446801185608
			],
			"type":"VEC3"
		},
		{
			"bufferView":1,
			"componentType":5126,
			"count":280,
			"type":"VEC3"
		},
		{
			"bufferView":2,
			"componentType":5126,
			"count":280,
			"type":"VEC2"
		},
		{
			"bufferView":3,
			"componentType":5123,
			"count":414,
			"type":"SCALAR"
		},
		{
			"bufferView":4,
			"componentType":5126,
			"count":82,
			"max":[
				0.364034503698349,
				0.6736531853675842,
				0.09052779525518417
			],
			"min":[
				-0.364034503698349,
				-0.712070882320404,
				0.07006549090147018
			],
			"type":"VEC3"
		},
		{
			"bufferView":5,
			"componentType":5126,
			"count":82,
			"type":"VEC3"
		},
		{
			"bufferView":6,
			"componentType":5126,
			"count":82,
			"type":"VEC2"
		},
		{
			"bufferView":7,
			"componentType":5123,
			"count":228,
			"type":"SCALAR"
		},
		{
			"bufferView":8,
			"componentType":5126,
			"count":110,
			"max":[
				0.1708393096923828,
				0.437997043132782,
				0.04314502328634262
			],
			"min":[
				-0.1708393096923828,
				-0.41421443223953247,
				0.009419702924787998
			],
			"type":"VEC3"
		},
		{
			"bufferView":9,
			"componentType":5126,
			"count":110,
			"type":"VEC3"
		},
		{
			"bufferView":10,
			"componentType":5126,
			"count":110,
			"type":"VEC2"
		},
		{
			"bufferView":11,
			"componentType":5123,
			"count":186,
			"type":"SCALAR"
		}
	],
	"bufferViews":[
		{
			"buffer":0,
			"byteLength":3360,
			"byteOffset":0,
			"target":34962
		},
		{
			"buffer":0,
			"byteLength":3360,
			"byteOffset":3360,
			"target":34962
		},
		{
			"buffer":0,
			"byteLength":2240,
			"byteOffset":6720,
			"target":34962
		},
		{
			"buffer":0,
			"byteLength":828,
			"byteOffset":8960,
			"target":34963
		},
		{
			"buffer":0,
			"byteLength":984,
			"byteOffset":9788,
			"target":34962
		},
		{
			"buffer":0,
			"byteLength":984,
			"byteOffset":10772,
			"target":34962
		},
		{
			"buffer":0,
			"byteLength":656,
			"byteOffset":11756,
			"target":34962
		},
		{
			"buffer":0,
			"byteLength":456,
			"byteOffset":12412,
			"target":34963
		},
		{
			"buffer":0,
			"byteLength":1320,
			"byteOffset":12868,
			"target":34962
		},
		{
			"buffer":0,
			"byteLength":1320,
			"byteOffset":14188,
			"target":34962
		},
		{
			"buffer":0,
			"byteLength":880,
			"byteOffset":15508,
			"target":34962
		},
		{
			"buffer":0,
			"byteLength":372,
			"byteOffset":16388,
			"target":34963
		}
	],
	"buffers":[
		{
			"byteLength":16760,
			"uri":"speaker.bin"
		}
	]
}
