{
	"asset":{
		"generator":"Khronos glTF Blender I/O v4.1.62",
		"version":"2.0"
	},
	"scene":0,
	"scenes":[
		{
			"name":"Scene",
			"nodes":[
				0
			]
		}
	],
	"nodes":[
		{
			"mesh":0,
			"name":"Vent"
		}
	],
	"materials":[
		{
			"doubleSided":true,
			"name":"Grey.001",
			"pbrMetallicRoughness":{
				"baseColorFactor":[
					0.2600274980068207,
					0.2600274980068207,
					0.2600274980068207,
					1
				],
				"metallicFactor":0,
				"roughnessFactor":0.5
			}
		}
	],
	"meshes":[
		{
			"name":"Cube.048",
			"primitives":[
				{
					"attributes":{
						"POSITION":0,
						"NORMAL":1,
						"TEXCOORD_0":2
					},
					"indices":3,
					"material":0
				}
			]
		}
	],
	"accessors":[
		{
			"bufferView":0,
			"componentType":5126,
			"count":368,
			"max":[
				0.66365647315979,
				0.3097216486930847,
				0.0156264565885067
			],
			"min":[
				-0.66365647315979,
				-0.3097216486930847,
				-0.11266396939754486
			],
			"type":"VEC3"
		},
		{
			"bufferView":1,
			"componentType":5126,
			"count":368,
			"type":"VEC3"
		},
		{
			"bufferView":2,
			"componentType":5126,
			"count":368,
			"type":"VEC2"
		},
		{
			"bufferView":3,
			"componentType":5123,
			"count":732,
			"type":"SCALAR"
		}
	],
	"bufferViews":[
		{
			"buffer":0,
			"byteLength":4416,
			"byteOffset":0,
			"target":34962
		},
		{
			"buffer":0,
			"byteLength":4416,
			"byteOffset":4416,
			"target":34962
		},
		{
			"buffer":0,
			"byteLength":2944,
			"byteOffset":8832,
			"target":34962
		},
		{
			"buffer":0,
			"byteLength":1464,
			"byteOffset":11776,
			"target":34963
		}
	],
	"buffers":[
		{
			"byteLength":13240,
			"uri":"vent.bin"
		}
	]
}
