{
	"asset":{
		"generator":"Khronos glTF Blender I/O v4.1.62",
		"version":"2.0"
	},
	"scene":0,
	"scenes":[
		{
			"name":"Scene",
			"nodes":[
				0
			]
		}
	],
	"nodes":[
		{
			"mesh":0,
			"name":"wall",
			"scale":[
				60,
				20,
				1
			],
			"translation":[
				0,
				20,
				121
			]
		}
	],
	"materials":[
		{
			"doubleSided":true,
			"name":"wall.004",
			"pbrMetallicRoughness":{
				"baseColorFactor":[
					0.4499419629573822,
					0.5601692199707031,
					0.6129999756813049,
					1
				],
				"metallicFactor":0,
				"roughnessFactor":0.5
			}
		},
		{
			"alphaMode":"BLEND",
			"name":"window_grass.002",
			"pbrMetallicRoughness":{
				"baseColorFactor":[
					0.800000011920929,
					0.800000011920929,
					0.800000011920929,
					0.10000000149011612
				],
				"metallicFactor":0.8999999761581421,
				"roughnessFactor":0.10000000149011612
			}
		},
		{
			"doubleSided":true,
			"name":"door",
			"pbrMetallicRoughness":{
				"baseColorFactor":[
					0.800000011920929,
					0.800000011920929,
					0.800000011920929,
					1
				],
				"metallicFactor":0,
				"roughnessFactor":0.5
			}
		},
		{
			"doubleSided":true,
			"name":"\u30de\u30c6\u30ea\u30a2\u30eb",
			"pbrMetallicRoughness":{
				"baseColorFactor":[
					0.8069537878036499,
					0.5906202793121338,
					0.11443610489368439,
					1
				],
				"metallicFactor":0,
				"roughnessFactor":0.5
			}
		}
	],
	"meshes":[
		{
			"name":"\u7acb\u65b9\u4f53.006",
			"primitives":[
				{
					"attributes":{
						"POSITION":0,
						"NORMAL":1,
						"TEXCOORD_0":2
					},
					"indices":3,
					"material":0
				},
				{
					"attributes":{
						"POSITION":4,
						"NORMAL":5,
						"TEXCOORD_0":6
					},
					"indices":7,
					"material":1
				},
				{
					"attributes":{
						"POSITION":8,
						"NORMAL":9,
						"TEXCOORD_0":10
					},
					"indices":11,
					"material":2
				},
				{
					"attributes":{
						"POSITION":12,
						"NORMAL":13,
						"TEXCOORD_0":14
					},
					"indices":15,
					"material":3
				}
			]
		}
	],
	"accessors":[
		{
			"bufferView":0,
			"componentType":5126,
			"count":137,
			"max":[
				1,
				1.000000238418579,
				-240.9999542236328
			],
			"min":[
				-1,
				-1,
				-242.9999542236328
			],
			"type":"VEC3"
		},
		{
			"bufferView":1,
			"componentType":5126,
			"count":137,
			"type":"VEC3"
		},
		{
			"bufferView":2,
			"componentType":5126,
			"count":137,
			"type":"VEC2"
		},
		{
			"bufferView":3,
			"componentType":5123,
			"count":336,
			"type":"SCALAR"
		},
		{
			"bufferView":4,
			"componentType":5126,
			"count":8,
			"max":[
				0.6817812919616699,
				0.36179590225219727,
				-242.03030395507812
			],
			"min":[
				-0.6848854422569275,
				-0.33820414543151855,
				-242.03030395507812
			],
			"type":"VEC3"
		},
		{
			"bufferView":5,
			"componentType":5126,
			"count":8,
			"type":"VEC3"
		},
		{
			"bufferView":6,
			"componentType":5126,
			"count":8,
			"type":"VEC2"
		},
		{
			"bufferView":7,
			"componentType":5123,
			"count":12,
			"type":"SCALAR"
		},
		{
			"bufferView":8,
			"componentType":5126,
			"count":3296,
			"max":[
				0.21546317636966705,
				0.847678542137146,
				-238.55303955078125
			],
			"min":[
				-0.18453682959079742,
				-0.952321469783783,
				-243.27423095703125
			],
			"type":"VEC3"
		},
		{
			"bufferView":9,
			"componentType":5126,
			"count":3296,
			"type":"VEC3"
		},
		{
			"bufferView":10,
			"componentType":5126,
			"count":3296,
			"type":"VEC2"
		},
		{
			"bufferView":11,
			"componentType":5123,
			"count":5688,
			"type":"SCALAR"
		},
		{
			"bufferView":12,
			"componentType":5126,
			"count":1065,
			"max":[
				0.1539677530527115,
				0.5326725840568542,
				-238.88442993164062
			],
			"min":[
				-0.12231409549713135,
				-0.7410138249397278,
				-242.8391571044922
			],
			"type":"VEC3"
		},
		{
			"bufferView":13,
			"componentType":5126,
			"count":1065,
			"type":"VEC3"
		},
		{
			"bufferView":14,
			"componentType":5126,
			"count":1065,
			"type":"VEC2"
		},
		{
			"bufferView":15,
			"componentType":5123,
			"count":4464,
			"type":"SCALAR"
		}
	],
	"bufferViews":[
		{
			"buffer":0,
			"byteLength":1644,
			"byteOffset":0,
			"target":34962
		},
		{
			"buffer":0,
			"byteLength":1644,
			"byteOffset":1644,
			"target":34962
		},
		{
			"buffer":0,
			"byteLength":1096,
			"byteOffset":3288,
			"target":34962
		},
		{
			"buffer":0,
			"byteLength":672,
			"byteOffset":4384,
			"target":34963
		},
		{
			"buffer":0,
			"byteLength":96,
			"byteOffset":5056,
			"target":34962
		},
		{
			"buffer":0,
			"byteLength":96,
			"byteOffset":5152,
			"target":34962
		},
		{
			"buffer":0,
			"byteLength":64,
			"byteOffset":5248,
			"target":34962
		},
		{
			"buffer":0,
			"byteLength":24,
			"byteOffset":5312,
			"target":34963
		},
		{
			"buffer":0,
			"byteLength":39552,
			"byteOffset":5336,
			"target":34962
		},
		{
			"buffer":0,
			"byteLength":39552,
			"byteOffset":44888,
			"target":34962
		},
		{
			"buffer":0,
			"byteLength":26368,
			"byteOffset":84440,
			"target":34962
		},
		{
			"buffer":0,
			"byteLength":11376,
			"byteOffset":110808,
			"target":34963
		},
		{
			"buffer":0,
			"byteLength":12780,
			"byteOffset":122184,
			"target":34962
		},
		{
			"buffer":0,
			"byteLength":12780,
			"byteOffset":134964,
			"target":34962
		},
		{
			"buffer":0,
			"byteLength":8520,
			"byteOffset":147744,
			"target":34962
		},
		{
			"buffer":0,
			"byteLength":8928,
			"byteOffset":156264,
			"target":34963
		}
	],
	"buffers":[
		{
			"byteLength":165192,
			"uri":"wall_front.bin"
		}
	]
}
