{
	"asset":{
		"generator":"Khronos glTF Blender I/O v4.1.62",
		"version":"2.0"
	},
	"scene":0,
	"scenes":[
		{
			"name":"Scene",
			"nodes":[
				0,
				1,
				2
			]
		}
	],
	"nodes":[
		{
			"mesh":0,
			"name":"wall",
			"scale":[
				60,
				20,
				1
			],
			"translation":[
				0,
				20,
				121
			]
		},
		{
			"mesh":1,
			"name":"\u7acb\u65b9\u4f53.001",
			"rotation":[
				-0.5,
				-0.5,
				0.5,
				0.5
			],
			"translation":[
				1.0006103515625,
				16.48357391357422,
				-124.64009094238281
			]
		},
		{
			"mesh":2,
			"name":"\u7acb\u65b9\u4f53",
			"scale":[
				65,
				25,
				1
			],
			"translation":[
				0,
				20,
				-120
			]
		}
	],
	"materials":[
		{
			"doubleSided":true,
			"name":"wall.014",
			"pbrMetallicRoughness":{
				"baseColorFactor":[
					0.4499419629573822,
					0.5601692199707031,
					0.6129999756813049,
					1
				],
				"metallicFactor":0,
				"roughnessFactor":0.5
			}
		},
		{
			"alphaMode":"BLEND",
			"name":"window_grass.008",
			"pbrMetallicRoughness":{
				"baseColorFactor":[
					0.800000011920929,
					0.800000011920929,
					0.800000011920929,
					0.10000000149011612
				],
				"metallicFactor":0.8999999761581421,
				"roughnessFactor":0.10000000149011612
			}
		},
		{
			"doubleSided":true,
			"name":"door.006",
			"pbrMetallicRoughness":{
				"baseColorFactor":[
					0.800000011920929,
					0.800000011920929,
					0.800000011920929,
					1
				],
				"metallicFactor":0,
				"roughnessFactor":0.5
			}
		},
		{
			"doubleSided":true,
			"name":"\u30de\u30c6\u30ea\u30a2\u30eb.011",
			"pbrMetallicRoughness":{
				"baseColorFactor":[
					0.8069537878036499,
					0.5906202793121338,
					0.11443610489368439,
					1
				],
				"metallicFactor":0,
				"roughnessFactor":0.5
			}
		},
		{
			"doubleSided":true,
			"name":"\u30de\u30c6\u30ea\u30a2\u30eb.013",
			"pbrMetallicRoughness":{
				"baseColorFactor":[
					0.800000011920929,
					0.800000011920929,
					0.800000011920929,
					0
				],
				"metallicFactor":0,
				"roughnessFactor":0.5
			}
		},
		{
			"doubleSided":true,
			"name":"\u30de\u30c6\u30ea\u30a2\u30eb.015",
			"pbrMetallicRoughness":{
				"baseColorFactor":[
					0.800000011920929,
					0.800000011920929,
					0.800000011920929,
					0
				],
				"metallicFactor":0,
				"roughnessFactor":0.5
			}
		}
	],
	"meshes":[
		{
			"name":"\u7acb\u65b9\u4f53.020",
			"primitives":[
				{
					"attributes":{
						"POSITION":0,
						"NORMAL":1,
						"TEXCOORD_0":2
					},
					"indices":3,
					"material":0
				},
				{
					"attributes":{
						"POSITION":4,
						"NORMAL":5,
						"TEXCOORD_0":6
					},
					"indices":7,
					"material":1
				},
				{
					"attributes":{
						"POSITION":8,
						"NORMAL":9,
						"TEXCOORD_0":10
					},
					"indices":11,
					"material":2
				},
				{
					"attributes":{
						"POSITION":12,
						"NORMAL":13,
						"TEXCOORD_0":14
					},
					"indices":15,
					"material":3
				}
			]
		},
		{
			"name":"\u7acb\u65b9\u4f53.024",
			"primitives":[
				{
					"attributes":{
						"POSITION":16,
						"NORMAL":17,
						"TEXCOORD_0":18
					},
					"indices":19,
					"material":4
				}
			]
		},
		{
			"name":"\u7acb\u65b9\u4f53.025",
			"primitives":[
				{
					"attributes":{
						"POSITION":20,
						"NORMAL":21,
						"TEXCOORD_0":22
					},
					"indices":19,
					"material":5
				}
			]
		}
	],
	"accessors":[
		{
			"bufferView":0,
			"componentType":5126,
			"count":137,
			"max":[
				1,
				1.000000238418579,
				-240.9999542236328
			],
			"min":[
				-1,
				-1,
				-242.9999542236328
			],
			"type":"VEC3"
		},
		{
			"bufferView":1,
			"componentType":5126,
			"count":137,
			"type":"VEC3"
		},
		{
			"bufferView":2,
			"componentType":5126,
			"count":137,
			"type":"VEC2"
		},
		{
			"bufferView":3,
			"componentType":5123,
			"count":336,
			"type":"SCALAR"
		},
		{
			"bufferView":4,
			"componentType":5126,
			"count":8,
			"max":[
				0.6817812919616699,
				0.36179590225219727,
				-242.03030395507812
			],
			"min":[
				-0.6848854422569275,
				-0.33820414543151855,
				-242.03030395507812
			],
			"type":"VEC3"
		},
		{
			"bufferView":5,
			"componentType":5126,
			"count":8,
			"type":"VEC3"
		},
		{
			"bufferView":6,
			"componentType":5126,
			"count":8,
			"type":"VEC2"
		},
		{
			"bufferView":7,
			"componentType":5123,
			"count":12,
			"type":"SCALAR"
		},
		{
			"bufferView":8,
			"componentType":5126,
			"count":3665,
			"max":[
				0.21546317636966705,
				0.847678542137146,
				-238.55303955078125
			],
			"min":[
				-0.18453682959079742,
				-0.952321469783783,
				-243.27423095703125
			],
			"type":"VEC3"
		},
		{
			"bufferView":9,
			"componentType":5126,
			"count":3665,
			"type":"VEC3"
		},
		{
			"bufferView":10,
			"componentType":5126,
			"count":3665,
			"type":"VEC2"
		},
		{
			"bufferView":11,
			"componentType":5123,
			"count":5688,
			"type":"SCALAR"
		},
		{
			"bufferView":12,
			"componentType":5126,
			"count":1065,
			"max":[
				0.1539677530527115,
				0.5326725840568542,
				-238.88442993164062
			],
			"min":[
				-0.12231409549713135,
				-0.7410138249397278,
				-242.8391571044922
			],
			"type":"VEC3"
		},
		{
			"bufferView":13,
			"componentType":5126,
			"count":1065,
			"type":"VEC3"
		},
		{
			"bufferView":14,
			"componentType":5126,
			"count":1065,
			"type":"VEC2"
		},
		{
			"bufferView":15,
			"componentType":5123,
			"count":4464,
			"type":"SCALAR"
		},
		{
			"bufferView":16,
			"componentType":5126,
			"count":24,
			"max":[
				20.869857788085938,
				-5.6400909423828125,
				12.321796417236328
			],
			"min":[
				-20.869857788085938,
				-7.418235778808594,
				-12.321796417236328
			],
			"type":"VEC3"
		},
		{
			"bufferView":17,
			"componentType":5126,
			"count":24,
			"type":"VEC3"
		},
		{
			"bufferView":18,
			"componentType":5126,
			"count":24,
			"type":"VEC2"
		},
		{
			"bufferView":19,
			"componentType":5123,
			"count":36,
			"type":"SCALAR"
		},
		{
			"bufferView":20,
			"componentType":5126,
			"count":24,
			"max":[
				1,
				1,
				1
			],
			"min":[
				-1,
				-1,
				-1
			],
			"type":"VEC3"
		},
		{
			"bufferView":21,
			"componentType":5126,
			"count":24,
			"type":"VEC3"
		},
		{
			"bufferView":22,
			"componentType":5126,
			"count":24,
			"type":"VEC2"
		}
	],
	"bufferViews":[
		{
			"buffer":0,
			"byteLength":1644,
			"byteOffset":0,
			"target":34962
		},
		{
			"buffer":0,
			"byteLength":1644,
			"byteOffset":1644,
			"target":34962
		},
		{
			"buffer":0,
			"byteLength":1096,
			"byteOffset":3288,
			"target":34962
		},
		{
			"buffer":0,
			"byteLength":672,
			"byteOffset":4384,
			"target":34963
		},
		{
			"buffer":0,
			"byteLength":96,
			"byteOffset":5056,
			"target":34962
		},
		{
			"buffer":0,
			"byteLength":96,
			"byteOffset":5152,
			"target":34962
		},
		{
			"buffer":0,
			"byteLength":64,
			"byteOffset":5248,
			"target":34962
		},
		{
			"buffer":0,
			"byteLength":24,
			"byteOffset":5312,
			"target":34963
		},
		{
			"buffer":0,
			"byteLength":43980,
			"byteOffset":5336,
			"target":34962
		},
		{
			"buffer":0,
			"byteLength":43980,
			"byteOffset":49316,
			"target":34962
		},
		{
			"buffer":0,
			"byteLength":29320,
			"byteOffset":93296,
			"target":34962
		},
		{
			"buffer":0,
			"byteLength":11376,
			"byteOffset":122616,
			"target":34963
		},
		{
			"buffer":0,
			"byteLength":12780,
			"byteOffset":133992,
			"target":34962
		},
		{
			"buffer":0,
			"byteLength":12780,
			"byteOffset":146772,
			"target":34962
		},
		{
			"buffer":0,
			"byteLength":8520,
			"byteOffset":159552,
			"target":34962
		},
		{
			"buffer":0,
			"byteLength":8928,
			"byteOffset":168072,
			"target":34963
		},
		{
			"buffer":0,
			"byteLength":288,
			"byteOffset":177000,
			"target":34962
		},
		{
			"buffer":0,
			"byteLength":288,
			"byteOffset":177288,
			"target":34962
		},
		{
			"buffer":0,
			"byteLength":192,
			"byteOffset":177576,
			"target":34962
		},
		{
			"buffer":0,
			"byteLength":72,
			"byteOffset":177768,
			"target":34963
		},
		{
			"buffer":0,
			"byteLength":288,
			"byteOffset":177840,
			"target":34962
		},
		{
			"buffer":0,
			"byteLength":288,
			"byteOffset":178128,
			"target":34962
		},
		{
			"buffer":0,
			"byteLength":192,
			"byteOffset":178416,
			"target":34962
		}
	],
	"buffers":[
		{
			"byteLength":178608,
			"uri":"wall_front1.bin"
		}
	]
}
