{
	"asset":{
		"generator":"Khronos glTF Blender I/O v4.1.62",
		"version":"2.0"
	},
	"scene":0,
	"scenes":[
		{
			"name":"Scene",
			"nodes":[
				0
			]
		}
	],
	"nodes":[
		{
			"mesh":0,
			"name":"Sofa A"
		}
	],
	"materials":[
		{
			"doubleSided":true,
			"name":"Red",
			"pbrMetallicRoughness":{
				"baseColorFactor":[
					0.34115174412727356,
					0.026578301563858986,
					0.013850972056388855,
					1
				],
				"metallicFactor":0,
				"roughnessFactor":0.5
			}
		},
		{
			"doubleSided":true,
			"name":"Brown",
			"pbrMetallicRoughness":{
				"baseColorFactor":[
					0.3505583703517914,
					0.12707479298114777,
					0.04741016775369644,
					1
				],
				"metallicFactor":0,
				"roughnessFactor":0.5
			}
		}
	],
	"meshes":[
		{
			"name":"Cube.015",
			"primitives":[
				{
					"attributes":{
						"POSITION":0,
						"NORMAL":1,
						"TEXCOORD_0":2
					},
					"indices":3,
					"material":0
				},
				{
					"attributes":{
						"POSITION":4,
						"NORMAL":5,
						"TEXCOORD_0":6
					},
					"indices":7,
					"material":1
				}
			]
		}
	],
	"accessors":[
		{
			"bufferView":0,
			"componentType":5126,
			"count":2328,
			"max":[
				5.201205253601074,
				2.5553460121154785,
				2.474587917327881
			],
			"min":[
				-5.203573226928711,
				-1.8428822755813599,
				-1.897911548614502
			],
			"type":"VEC3"
		},
		{
			"bufferView":1,
			"componentType":5126,
			"count":2328,
			"type":"VEC3"
		},
		{
			"bufferView":2,
			"componentType":5126,
			"count":2328,
			"type":"VEC2"
		},
		{
			"bufferView":3,
			"componentType":5123,
			"count":3420,
			"type":"SCALAR"
		},
		{
			"bufferView":4,
			"componentType":5126,
			"count":168,
			"max":[
				4.2417521476745605,
				-0.9723034501075745,
				2.1954164505004883
			],
			"min":[
				-4.248673915863037,
				-1.8428822755813599,
				-1.8040865659713745
			],
			"type":"VEC3"
		},
		{
			"bufferView":5,
			"componentType":5126,
			"count":168,
			"type":"VEC3"
		},
		{
			"bufferView":6,
			"componentType":5126,
			"count":168,
			"type":"VEC2"
		},
		{
			"bufferView":7,
			"componentType":5123,
			"count":240,
			"type":"SCALAR"
		}
	],
	"bufferViews":[
		{
			"buffer":0,
			"byteLength":27936,
			"byteOffset":0,
			"target":34962
		},
		{
			"buffer":0,
			"byteLength":27936,
			"byteOffset":27936,
			"target":34962
		},
		{
			"buffer":0,
			"byteLength":18624,
			"byteOffset":55872,
			"target":34962
		},
		{
			"buffer":0,
			"byteLength":6840,
			"byteOffset":74496,
			"target":34963
		},
		{
			"buffer":0,
			"byteLength":2016,
			"byteOffset":81336,
			"target":34962
		},
		{
			"buffer":0,
			"byteLength":2016,
			"byteOffset":83352,
			"target":34962
		},
		{
			"buffer":0,
			"byteLength":1344,
			"byteOffset":85368,
			"target":34962
		},
		{
			"buffer":0,
			"byteLength":480,
			"byteOffset":86712,
			"target":34963
		}
	],
	"buffers":[
		{
			"byteLength":87192,
			"uri":"sofa_double.bin"
		}
	]
}
