{
	"asset":{
		"generator":"Khronos glTF Blender I/O v4.2.70",
		"version":"2.0"
	},
	"scene":0,
	"scenes":[
		{
			"name":"Scene",
			"nodes":[
				0
			]
		}
	],
	"nodes":[
		{
			"mesh":0,
			"name":"Sofa D"
		}
	],
	"materials":[
		{
			"doubleSided":true,
			"name":"Blue.001",
			"pbrMetallicRoughness":{
				"baseColorFactor":[
					0.07112232595682144,
					0.11088339984416962,
					0.26890936493873596,
					1
				],
				"metallicFactor":0
			}
		}
	],
	"meshes":[
		{
			"name":"Cube.042",
			"primitives":[
				{
					"attributes":{
						"POSITION":0,
						"NORMAL":1,
						"TEXCOORD_0":2
					},
					"indices":3,
					"material":0
				}
			]
		}
	],
	"accessors":[
		{
			"bufferView":0,
			"componentType":5126,
			"count":3090,
			"max":[
				1.8075652122497559,
				2.1393015384674072,
				6.454340934753418
			],
			"min":[
				-2.3274731636047363,
				-1.532413125038147,
				-6.400464057922363
			],
			"type":"VEC3"
		},
		{
			"bufferView":1,
			"componentType":5126,
			"count":3090,
			"type":"VEC3"
		},
		{
			"bufferView":2,
			"componentType":5126,
			"count":3090,
			"type":"VEC2"
		},
		{
			"bufferView":3,
			"componentType":5123,
			"count":5220,
			"type":"SCALAR"
		}
	],
	"bufferViews":[
		{
			"buffer":0,
			"byteLength":37080,
			"byteOffset":0,
			"target":34962
		},
		{
			"buffer":0,
			"byteLength":37080,
			"byteOffset":37080,
			"target":34962
		},
		{
			"buffer":0,
			"byteLength":24720,
			"byteOffset":74160,
			"target":34962
		},
		{
			"buffer":0,
			"byteLength":10440,
			"byteOffset":98880,
			"target":34963
		}
	],
	"buffers":[
		{
			"byteLength":109320,
			"uri":"sofa_triple.bin"
		}
	]
}
