{
	"asset":{
		"generator":"Khronos glTF Blender I/O v4.2.70",
		"version":"2.0"
	},
	"scene":0,
	"scenes":[
		{
			"name":"Scene",
			"nodes":[
				0
			]
		}
	],
	"nodes":[
		{
			"mesh":0,
			"name":"Chair E"
		}
	],
	"materials":[
		{
			"doubleSided":true,
			"name":"Yelow.002",
			"pbrMetallicRoughness":{
				"baseColorFactor":[
					0.8000000715255737,
					0.46183839440345764,
					0.06633850932121277,
					1
				],
				"metallicFactor":0
			}
		},
		{
			"doubleSided":true,
			"name":"Grey 2.003",
			"pbrMetallicRoughness":{
				"baseColorFactor":[
					0.08696522563695908,
					0.08696522563695908,
					0.08696522563695908,
					1
				],
				"metallicFactor":0,
				"roughnessFactor":0.5
			}
		},
		{
			"doubleSided":true,
			"name":"Grey.007",
			"pbrMetallicRoughness":{
				"baseColorFactor":[
					0.2600274980068207,
					0.2600274980068207,
					0.2600274980068207,
					1
				],
				"metallicFactor":0,
				"roughnessFactor":0.5
			}
		}
	],
	"meshes":[
		{
			"name":"Cube.100",
			"primitives":[
				{
					"attributes":{
						"POSITION":0,
						"NORMAL":1,
						"TEXCOORD_0":2
					},
					"indices":3,
					"material":0
				},
				{
					"attributes":{
						"POSITION":4,
						"NORMAL":5,
						"TEXCOORD_0":6
					},
					"indices":7,
					"material":1
				},
				{
					"attributes":{
						"POSITION":8,
						"NORMAL":9,
						"TEXCOORD_0":10
					},
					"indices":11,
					"material":2
				}
			]
		}
	],
	"accessors":[
		{
			"bufferView":0,
			"componentType":5126,
			"count":1546,
			"max":[
				2.1368541717529297,
				3.1178364753723145,
				1.6950459480285645
			],
			"min":[
				-2.1587250232696533,
				-0.338919997215271,
				-1.6270241737365723
			],
			"type":"VEC3"
		},
		{
			"bufferView":1,
			"componentType":5126,
			"count":1546,
			"type":"VEC3"
		},
		{
			"bufferView":2,
			"componentType":5126,
			"count":1546,
			"type":"VEC2"
		},
		{
			"bufferView":3,
			"componentType":5123,
			"count":2256,
			"type":"SCALAR"
		},
		{
			"bufferView":4,
			"componentType":5126,
			"count":801,
			"max":[
				1.901228666305542,
				1.0156114101409912,
				1.156970500946045
			],
			"min":[
				-1.9042203426361084,
				-2.2342352867126465,
				-1.2561848163604736
			],
			"type":"VEC3"
		},
		{
			"bufferView":5,
			"componentType":5126,
			"count":801,
			"type":"VEC3"
		},
		{
			"bufferView":6,
			"componentType":5126,
			"count":801,
			"type":"VEC2"
		},
		{
			"bufferView":7,
			"componentType":5123,
			"count":1458,
			"type":"SCALAR"
		},
		{
			"bufferView":8,
			"componentType":5126,
			"count":960,
			"max":[
				1.1661179065704346,
				-2.180060863494873,
				1.2051985263824463
			],
			"min":[
				-1.152644395828247,
				-2.5490291118621826,
				-1.1135637760162354
			],
			"type":"VEC3"
		},
		{
			"bufferView":9,
			"componentType":5126,
			"count":960,
			"type":"VEC3"
		},
		{
			"bufferView":10,
			"componentType":5126,
			"count":960,
			"type":"VEC2"
		},
		{
			"bufferView":11,
			"componentType":5123,
			"count":960,
			"type":"SCALAR"
		}
	],
	"bufferViews":[
		{
			"buffer":0,
			"byteLength":18552,
			"byteOffset":0,
			"target":34962
		},
		{
			"buffer":0,
			"byteLength":18552,
			"byteOffset":18552,
			"target":34962
		},
		{
			"buffer":0,
			"byteLength":12368,
			"byteOffset":37104,
			"target":34962
		},
		{
			"buffer":0,
			"byteLength":4512,
			"byteOffset":49472,
			"target":34963
		},
		{
			"buffer":0,
			"byteLength":9612,
			"byteOffset":53984,
			"target":34962
		},
		{
			"buffer":0,
			"byteLength":9612,
			"byteOffset":63596,
			"target":34962
		},
		{
			"buffer":0,
			"byteLength":6408,
			"byteOffset":73208,
			"target":34962
		},
		{
			"buffer":0,
			"byteLength":2916,
			"byteOffset":79616,
			"target":34963
		},
		{
			"buffer":0,
			"byteLength":11520,
			"byteOffset":82532,
			"target":34962
		},
		{
			"buffer":0,
			"byteLength":11520,
			"byteOffset":94052,
			"target":34962
		},
		{
			"buffer":0,
			"byteLength":7680,
			"byteOffset":105572,
			"target":34962
		},
		{
			"buffer":0,
			"byteLength":1920,
			"byteOffset":113252,
			"target":34963
		}
	],
	"buffers":[
		{
			"byteLength":115172,
			"uri":"chair.bin"
		}
	]
}
