{
	"asset":{
		"generator":"Khronos glTF Blender I/O v4.1.62",
		"version":"2.0"
	},
	"scene":0,
	"scenes":[
		{
			"name":"Scene",
			"nodes":[
				0,
				1
			]
		}
	],
	"nodes":[
		{
			"mesh":0,
			"name":"wall",
			"scale":[
				60,
				20,
				1
			],
			"translation":[
				0,
				20,
				121
			]
		},
		{
			"mesh":1,
			"name":"\u7acb\u65b9\u4f53",
			"scale":[
				1,
				25,
				125
			],
			"translation":[
				59,
				20,
				0
			]
		}
	],
	"materials":[
		{
			"doubleSided":true,
			"name":"wall.010",
			"pbrMetallicRoughness":{
				"baseColorFactor":[
					0.4499419629573822,
					0.5601692199707031,
					0.6129999756813049,
					1
				],
				"metallicFactor":0,
				"roughnessFactor":0.5
			}
		},
		{
			"alphaMode":"BLEND",
			"name":"window_grass.006",
			"pbrMetallicRoughness":{
				"baseColorFactor":[
					0.800000011920929,
					0.800000011920929,
					0.800000011920929,
					0.10000000149011612
				],
				"metallicFactor":0.8999999761581421,
				"roughnessFactor":0.10000000149011612
			}
		},
		{
			"doubleSided":true,
			"name":"\u30de\u30c6\u30ea\u30a2\u30eb.008",
			"pbrMetallicRoughness":{
				"baseColorFactor":[
					0.800000011920929,
					0.800000011920929,
					0.800000011920929,
					0
				],
				"metallicFactor":0,
				"roughnessFactor":0.5
			}
		}
	],
	"meshes":[
		{
			"name":"\u7acb\u65b9\u4f53.015",
			"primitives":[
				{
					"attributes":{
						"POSITION":0,
						"NORMAL":1,
						"TEXCOORD_0":2
					},
					"indices":3,
					"material":0
				},
				{
					"attributes":{
						"POSITION":4,
						"NORMAL":5,
						"TEXCOORD_0":6
					},
					"indices":7,
					"material":1
				}
			]
		},
		{
			"name":"\u7acb\u65b9\u4f53.016",
			"primitives":[
				{
					"attributes":{
						"POSITION":8,
						"NORMAL":9,
						"TEXCOORD_0":10
					},
					"indices":11,
					"material":2
				}
			]
		}
	],
	"accessors":[
		{
			"bufferView":0,
			"componentType":5126,
			"count":262,
			"max":[
				1.0000001192092896,
				1.000000238418579,
				-1
			],
			"min":[
				0.9666666388511658,
				-1,
				-242.9999542236328
			],
			"type":"VEC3"
		},
		{
			"bufferView":1,
			"componentType":5126,
			"count":262,
			"type":"VEC3"
		},
		{
			"bufferView":2,
			"componentType":5126,
			"count":262,
			"type":"VEC2"
		},
		{
			"bufferView":3,
			"componentType":5123,
			"count":750,
			"type":"SCALAR"
		},
		{
			"bufferView":4,
			"componentType":5126,
			"count":8,
			"max":[
				0.9851575493812561,
				0.6367971301078796,
				-23.279821395874023
			],
			"min":[
				0.9851575493812561,
				-0.6232029795646667,
				-194.54803466796875
			],
			"type":"VEC3"
		},
		{
			"bufferView":5,
			"componentType":5126,
			"count":8,
			"type":"VEC3"
		},
		{
			"bufferView":6,
			"componentType":5126,
			"count":8,
			"type":"VEC2"
		},
		{
			"bufferView":7,
			"componentType":5123,
			"count":12,
			"type":"SCALAR"
		},
		{
			"bufferView":8,
			"componentType":5126,
			"count":24,
			"max":[
				1,
				1,
				1
			],
			"min":[
				-1,
				-1,
				-1
			],
			"type":"VEC3"
		},
		{
			"bufferView":9,
			"componentType":5126,
			"count":24,
			"type":"VEC3"
		},
		{
			"bufferView":10,
			"componentType":5126,
			"count":24,
			"type":"VEC2"
		},
		{
			"bufferView":11,
			"componentType":5123,
			"count":36,
			"type":"SCALAR"
		}
	],
	"bufferViews":[
		{
			"buffer":0,
			"byteLength":3144,
			"byteOffset":0,
			"target":34962
		},
		{
			"buffer":0,
			"byteLength":3144,
			"byteOffset":3144,
			"target":34962
		},
		{
			"buffer":0,
			"byteLength":2096,
			"byteOffset":6288,
			"target":34962
		},
		{
			"buffer":0,
			"byteLength":1500,
			"byteOffset":8384,
			"target":34963
		},
		{
			"buffer":0,
			"byteLength":96,
			"byteOffset":9884,
			"target":34962
		},
		{
			"buffer":0,
			"byteLength":96,
			"byteOffset":9980,
			"target":34962
		},
		{
			"buffer":0,
			"byteLength":64,
			"byteOffset":10076,
			"target":34962
		},
		{
			"buffer":0,
			"byteLength":24,
			"byteOffset":10140,
			"target":34963
		},
		{
			"buffer":0,
			"byteLength":288,
			"byteOffset":10164,
			"target":34962
		},
		{
			"buffer":0,
			"byteLength":288,
			"byteOffset":10452,
			"target":34962
		},
		{
			"buffer":0,
			"byteLength":192,
			"byteOffset":10740,
			"target":34962
		},
		{
			"buffer":0,
			"byteLength":72,
			"byteOffset":10932,
			"target":34963
		}
	],
	"buffers":[
		{
			"byteLength":11004,
			"uri":"wall_left1.bin"
		}
	]
}
