{
	"asset":{
		"generator":"Khronos glTF Blender I/O v4.1.62",
		"version":"2.0"
	},
	"scene":0,
	"scenes":[
		{
			"name":"Scene",
			"nodes":[
				0,
				1
			]
		}
	],
	"nodes":[
		{
			"mesh":0,
			"name":"Cupboard D"
		},
		{
			"mesh":1,
			"name":"Cupboard D.001"
		}
	],
	"materials":[
		{
			"doubleSided":true,
			"name":"White.037",
			"pbrMetallicRoughness":{
				"baseColorFactor":[
					0.6353368163108826,
					0.6353368163108826,
					0.6353368163108826,
					1
				],
				"metallicFactor":0,
				"roughnessFactor":0.5
			}
		},
		{
			"doubleSided":true,
			"name":"Grey 2.039",
			"pbrMetallicRoughness":{
				"baseColorFactor":[
					0.08696522563695908,
					0.08696522563695908,
					0.08696522563695908,
					1
				],
				"metallicFactor":0,
				"roughnessFactor":0.5
			}
		}
	],
	"meshes":[
		{
			"name":"Cube.017",
			"primitives":[
				{
					"attributes":{
						"POSITION":0,
						"NORMAL":1,
						"TEXCOORD_0":2
					},
					"indices":3,
					"material":0
				},
				{
					"attributes":{
						"POSITION":4,
						"NORMAL":5,
						"TEXCOORD_0":6
					},
					"indices":7,
					"material":1
				}
			]
		},
		{
			"name":"Cube.018",
			"primitives":[
				{
					"attributes":{
						"POSITION":8,
						"NORMAL":9,
						"TEXCOORD_0":10
					},
					"indices":11,
					"material":0
				},
				{
					"attributes":{
						"POSITION":12,
						"NORMAL":13,
						"TEXCOORD_0":14
					},
					"indices":15,
					"material":1
				}
			]
		}
	],
	"accessors":[
		{
			"bufferView":0,
			"componentType":5126,
			"count":312,
			"max":[
				0.9341959953308105,
				1.2619073390960693,
				0.6447139978408813
			],
			"min":[
				-1.584501028060913,
				-3.110692024230957,
				-2.4056179523468018
			],
			"type":"VEC3"
		},
		{
			"bufferView":1,
			"componentType":5126,
			"count":312,
			"type":"VEC3"
		},
		{
			"bufferView":2,
			"componentType":5126,
			"count":312,
			"type":"VEC2"
		},
		{
			"bufferView":3,
			"componentType":5123,
			"count":480,
			"type":"SCALAR"
		},
		{
			"bufferView":4,
			"componentType":5126,
			"count":98,
			"max":[
				0.9497792720794678,
				1.4032511711120605,
				0.7351179122924805
			],
			"min":[
				-1.5920202732086182,
				1.2608838081359863,
				-2.4106850624084473
			],
			"type":"VEC3"
		},
		{
			"bufferView":5,
			"componentType":5126,
			"count":98,
			"type":"VEC3"
		},
		{
			"bufferView":6,
			"componentType":5126,
			"count":98,
			"type":"VEC2"
		},
		{
			"bufferView":7,
			"componentType":5123,
			"count":132,
			"type":"SCALAR"
		},
		{
			"bufferView":8,
			"componentType":5126,
			"count":96,
			"max":[
				0.7887526750564575,
				1.1240646839141846,
				0.6130517721176147
			],
			"min":[
				-1.43905770778656,
				-2.9728493690490723,
				0.5407871007919312
			],
			"type":"VEC3"
		},
		{
			"bufferView":9,
			"componentType":5126,
			"count":96,
			"type":"VEC3"
		},
		{
			"bufferView":10,
			"componentType":5126,
			"count":96,
			"type":"VEC2"
		},
		{
			"bufferView":11,
			"componentType":5123,
			"count":132,
			"type":"SCALAR"
		},
		{
			"bufferView":12,
			"componentType":5126,
			"count":272,
			"max":[
				0.5763744711875916,
				0.9757547974586487,
				0.8471444845199585
			],
			"min":[
				0.3897448480129242,
				0.32437369227409363,
				0.5617796182632446
			],
			"type":"VEC3"
		},
		{
			"bufferView":13,
			"componentType":5126,
			"count":272,
			"type":"VEC3"
		},
		{
			"bufferView":14,
			"componentType":5126,
			"count":272,
			"type":"VEC2"
		},
		{
			"bufferView":15,
			"componentType":5123,
			"count":516,
			"type":"SCALAR"
		}
	],
	"bufferViews":[
		{
			"buffer":0,
			"byteLength":3744,
			"byteOffset":0,
			"target":34962
		},
		{
			"buffer":0,
			"byteLength":3744,
			"byteOffset":3744,
			"target":34962
		},
		{
			"buffer":0,
			"byteLength":2496,
			"byteOffset":7488,
			"target":34962
		},
		{
			"buffer":0,
			"byteLength":960,
			"byteOffset":9984,
			"target":34963
		},
		{
			"buffer":0,
			"byteLength":1176,
			"byteOffset":10944,
			"target":34962
		},
		{
			"buffer":0,
			"byteLength":1176,
			"byteOffset":12120,
			"target":34962
		},
		{
			"buffer":0,
			"byteLength":784,
			"byteOffset":13296,
			"target":34962
		},
		{
			"buffer":0,
			"byteLength":264,
			"byteOffset":14080,
			"target":34963
		},
		{
			"buffer":0,
			"byteLength":1152,
			"byteOffset":14344,
			"target":34962
		},
		{
			"buffer":0,
			"byteLength":1152,
			"byteOffset":15496,
			"target":34962
		},
		{
			"buffer":0,
			"byteLength":768,
			"byteOffset":16648,
			"target":34962
		},
		{
			"buffer":0,
			"byteLength":264,
			"byteOffset":17416,
			"target":34963
		},
		{
			"buffer":0,
			"byteLength":3264,
			"byteOffset":17680,
			"target":34962
		},
		{
			"buffer":0,
			"byteLength":3264,
			"byteOffset":20944,
			"target":34962
		},
		{
			"buffer":0,
			"byteLength":2176,
			"byteOffset":24208,
			"target":34962
		},
		{
			"buffer":0,
			"byteLength":1032,
			"byteOffset":26384,
			"target":34963
		}
	],
	"buffers":[
		{
			"byteLength":27416,
			"uri":"cupboard_floor_mini.bin"
		}
	]
}
