{
	"asset":{
		"generator":"Khronos glTF Blender I/O v4.1.62",
		"version":"2.0"
	},
	"scene":0,
	"scenes":[
		{
			"name":"Scene",
			"nodes":[
				0,
				1
			]
		}
	],
	"nodes":[
		{
			"mesh":0,
			"name":"Cupboard A"
		},
		{
			"mesh":1,
			"name":"Cupboard A.001"
		}
	],
	"materials":[
		{
			"doubleSided":true,
			"name":"White.034",
			"pbrMetallicRoughness":{
				"baseColorFactor":[
					0.6353368163108826,
					0.6353368163108826,
					0.6353368163108826,
					1
				],
				"metallicFactor":0,
				"roughnessFactor":0.5
			}
		},
		{
			"doubleSided":true,
			"name":"Grey 2.036",
			"pbrMetallicRoughness":{
				"baseColorFactor":[
					0.08696522563695908,
					0.08696522563695908,
					0.08696522563695908,
					1
				],
				"metallicFactor":0,
				"roughnessFactor":0.5
			}
		}
	],
	"meshes":[
		{
			"name":"Cube.001",
			"primitives":[
				{
					"attributes":{
						"POSITION":0,
						"NORMAL":1,
						"TEXCOORD_0":2
					},
					"indices":3,
					"material":0
				}
			]
		},
		{
			"name":"Cube.003",
			"primitives":[
				{
					"attributes":{
						"POSITION":4,
						"NORMAL":5,
						"TEXCOORD_0":6
					},
					"indices":7,
					"material":0
				},
				{
					"attributes":{
						"POSITION":8,
						"NORMAL":9,
						"TEXCOORD_0":10
					},
					"indices":11,
					"material":1
				}
			]
		}
	],
	"accessors":[
		{
			"bufferView":0,
			"componentType":5126,
			"count":304,
			"max":[
				0.8885107636451721,
				2.901841878890991,
				0.5216482877731323
			],
			"min":[
				-1.6301863193511963,
				-1.4707578420639038,
				-2.5286834239959717
			],
			"type":"VEC3"
		},
		{
			"bufferView":1,
			"componentType":5126,
			"count":304,
			"type":"VEC3"
		},
		{
			"bufferView":2,
			"componentType":5126,
			"count":304,
			"type":"VEC2"
		},
		{
			"bufferView":3,
			"componentType":5123,
			"count":456,
			"type":"SCALAR"
		},
		{
			"bufferView":4,
			"componentType":5126,
			"count":96,
			"max":[
				0.7401106953620911,
				2.7585620880126953,
				0.48998603224754333
			],
			"min":[
				-1.4817863702774048,
				-1.327478051185608,
				0.41772136092185974
			],
			"type":"VEC3"
		},
		{
			"bufferView":5,
			"componentType":5126,
			"count":96,
			"type":"VEC3"
		},
		{
			"bufferView":6,
			"componentType":5126,
			"count":96,
			"type":"VEC2"
		},
		{
			"bufferView":7,
			"componentType":5123,
			"count":132,
			"type":"SCALAR"
		},
		{
			"bufferView":8,
			"componentType":5126,
			"count":272,
			"max":[
				0.5306892395019531,
				-0.5416988730430603,
				0.7240787744522095
			],
			"min":[
				0.3440595865249634,
				-1.1930800676345825,
				0.4387138783931732
			],
			"type":"VEC3"
		},
		{
			"bufferView":9,
			"componentType":5126,
			"count":272,
			"type":"VEC3"
		},
		{
			"bufferView":10,
			"componentType":5126,
			"count":272,
			"type":"VEC2"
		},
		{
			"bufferView":11,
			"componentType":5123,
			"count":516,
			"type":"SCALAR"
		}
	],
	"bufferViews":[
		{
			"buffer":0,
			"byteLength":3648,
			"byteOffset":0,
			"target":34962
		},
		{
			"buffer":0,
			"byteLength":3648,
			"byteOffset":3648,
			"target":34962
		},
		{
			"buffer":0,
			"byteLength":2432,
			"byteOffset":7296,
			"target":34962
		},
		{
			"buffer":0,
			"byteLength":912,
			"byteOffset":9728,
			"target":34963
		},
		{
			"buffer":0,
			"byteLength":1152,
			"byteOffset":10640,
			"target":34962
		},
		{
			"buffer":0,
			"byteLength":1152,
			"byteOffset":11792,
			"target":34962
		},
		{
			"buffer":0,
			"byteLength":768,
			"byteOffset":12944,
			"target":34962
		},
		{
			"buffer":0,
			"byteLength":264,
			"byteOffset":13712,
			"target":34963
		},
		{
			"buffer":0,
			"byteLength":3264,
			"byteOffset":13976,
			"target":34962
		},
		{
			"buffer":0,
			"byteLength":3264,
			"byteOffset":17240,
			"target":34962
		},
		{
			"buffer":0,
			"byteLength":2176,
			"byteOffset":20504,
			"target":34962
		},
		{
			"buffer":0,
			"byteLength":1032,
			"byteOffset":22680,
			"target":34963
		}
	],
	"buffers":[
		{
			"byteLength":23712,
			"uri":"cupboard.bin"
		}
	]
}
