{
	"asset":{
		"generator":"Khronos glTF Blender I/O v4.1.62",
		"version":"2.0"
	},
	"scene":0,
	"scenes":[
		{
			"name":"Scene",
			"nodes":[
				0,
				1,
				2
			]
		}
	],
	"nodes":[
		{
			"mesh":0,
			"name":"Cupboard B"
		},
		{
			"mesh":1,
			"name":"Cupboard B.001"
		},
		{
			"mesh":2,
			"name":"Cupboard B.002"
		}
	],
	"materials":[
		{
			"doubleSided":true,
			"name":"White.035",
			"pbrMetallicRoughness":{
				"baseColorFactor":[
					0.6353368163108826,
					0.6353368163108826,
					0.6353368163108826,
					1
				],
				"metallicFactor":0,
				"roughnessFactor":0.5
			}
		},
		{
			"doubleSided":true,
			"name":"Grey 2.037",
			"pbrMetallicRoughness":{
				"baseColorFactor":[
					0.08696522563695908,
					0.08696522563695908,
					0.08696522563695908,
					1
				],
				"metallicFactor":0,
				"roughnessFactor":0.5
			}
		}
	],
	"meshes":[
		{
			"name":"Cube.009",
			"primitives":[
				{
					"attributes":{
						"POSITION":0,
						"NORMAL":1,
						"TEXCOORD_0":2
					},
					"indices":3,
					"material":0
				}
			]
		},
		{
			"name":"Cube.010",
			"primitives":[
				{
					"attributes":{
						"POSITION":4,
						"NORMAL":5,
						"TEXCOORD_0":6
					},
					"indices":7,
					"material":0
				},
				{
					"attributes":{
						"POSITION":8,
						"NORMAL":9,
						"TEXCOORD_0":10
					},
					"indices":11,
					"material":1
				}
			]
		},
		{
			"name":"Cube.013",
			"primitives":[
				{
					"attributes":{
						"POSITION":12,
						"NORMAL":13,
						"TEXCOORD_0":14
					},
					"indices":7,
					"material":0
				},
				{
					"attributes":{
						"POSITION":15,
						"NORMAL":16,
						"TEXCOORD_0":17
					},
					"indices":11,
					"material":1
				}
			]
		}
	],
	"accessors":[
		{
			"bufferView":0,
			"componentType":5126,
			"count":304,
			"max":[
				2.3591649532318115,
				3.0850226879119873,
				0.31421956419944763
			],
			"min":[
				-2.3316314220428467,
				-1.2875769138336182,
				-2.736112356185913
			],
			"type":"VEC3"
		},
		{
			"bufferView":1,
			"componentType":5126,
			"count":304,
			"type":"VEC3"
		},
		{
			"bufferView":2,
			"componentType":5126,
			"count":304,
			"type":"VEC2"
		},
		{
			"bufferView":3,
			"componentType":5123,
			"count":456,
			"type":"SCALAR"
		},
		{
			"bufferView":4,
			"componentType":5126,
			"count":96,
			"max":[
				0.011215523816645145,
				2.9305198192596436,
				0.2825718820095062
			],
			"min":[
				-2.1984758377075195,
				-1.1330740451812744,
				0.21027837693691254
			],
			"type":"VEC3"
		},
		{
			"bufferView":5,
			"componentType":5126,
			"count":96,
			"type":"VEC3"
		},
		{
			"bufferView":6,
			"componentType":5126,
			"count":96,
			"type":"VEC2"
		},
		{
			"bufferView":7,
			"componentType":5123,
			"count":132,
			"type":"SCALAR"
		},
		{
			"bufferView":8,
			"componentType":5126,
			"count":272,
			"max":[
				-0.19210323691368103,
				-0.33892178535461426,
				0.5166500806808472
			],
			"min":[
				-0.3787328898906708,
				-0.9903027415275574,
				0.2312851995229721
			],
			"type":"VEC3"
		},
		{
			"bufferView":9,
			"componentType":5126,
			"count":272,
			"type":"VEC3"
		},
		{
			"bufferView":10,
			"componentType":5126,
			"count":272,
			"type":"VEC2"
		},
		{
			"bufferView":11,
			"componentType":5123,
			"count":516,
			"type":"SCALAR"
		},
		{
			"bufferView":12,
			"componentType":5126,
			"count":96,
			"max":[
				2.209719181060791,
				2.9305198192596436,
				0.2825718820095062
			],
			"min":[
				2.749340455920901e-05,
				-1.1330740451812744,
				0.21027837693691254
			],
			"type":"VEC3"
		},
		{
			"bufferView":13,
			"componentType":5126,
			"count":96,
			"type":"VEC3"
		},
		{
			"bufferView":14,
			"componentType":5126,
			"count":96,
			"type":"VEC2"
		},
		{
			"bufferView":15,
			"componentType":5126,
			"count":272,
			"max":[
				0.3642151653766632,
				-0.33892178535461426,
				0.5166500806808472
			],
			"min":[
				0.1775856614112854,
				-0.9903027415275574,
				0.2312851995229721
			],
			"type":"VEC3"
		},
		{
			"bufferView":16,
			"componentType":5126,
			"count":272,
			"type":"VEC3"
		},
		{
			"bufferView":17,
			"componentType":5126,
			"count":272,
			"type":"VEC2"
		}
	],
	"bufferViews":[
		{
			"buffer":0,
			"byteLength":3648,
			"byteOffset":0,
			"target":34962
		},
		{
			"buffer":0,
			"byteLength":3648,
			"byteOffset":3648,
			"target":34962
		},
		{
			"buffer":0,
			"byteLength":2432,
			"byteOffset":7296,
			"target":34962
		},
		{
			"buffer":0,
			"byteLength":912,
			"byteOffset":9728,
			"target":34963
		},
		{
			"buffer":0,
			"byteLength":1152,
			"byteOffset":10640,
			"target":34962
		},
		{
			"buffer":0,
			"byteLength":1152,
			"byteOffset":11792,
			"target":34962
		},
		{
			"buffer":0,
			"byteLength":768,
			"byteOffset":12944,
			"target":34962
		},
		{
			"buffer":0,
			"byteLength":264,
			"byteOffset":13712,
			"target":34963
		},
		{
			"buffer":0,
			"byteLength":3264,
			"byteOffset":13976,
			"target":34962
		},
		{
			"buffer":0,
			"byteLength":3264,
			"byteOffset":17240,
			"target":34962
		},
		{
			"buffer":0,
			"byteLength":2176,
			"byteOffset":20504,
			"target":34962
		},
		{
			"buffer":0,
			"byteLength":1032,
			"byteOffset":22680,
			"target":34963
		},
		{
			"buffer":0,
			"byteLength":1152,
			"byteOffset":23712,
			"target":34962
		},
		{
			"buffer":0,
			"byteLength":1152,
			"byteOffset":24864,
			"target":34962
		},
		{
			"buffer":0,
			"byteLength":768,
			"byteOffset":26016,
			"target":34962
		},
		{
			"buffer":0,
			"byteLength":3264,
			"byteOffset":26784,
			"target":34962
		},
		{
			"buffer":0,
			"byteLength":3264,
			"byteOffset":30048,
			"target":34962
		},
		{
			"buffer":0,
			"byteLength":2176,
			"byteOffset":33312,
			"target":34962
		}
	],
	"buffers":[
		{
			"byteLength":35488,
			"uri":"cupboard_large.bin"
		}
	]
}
