{
	"asset":{
		"generator":"Khronos glTF Blender I/O v4.1.62",
		"version":"2.0"
	},
	"scene":0,
	"scenes":[
		{
			"name":"Scene",
			"nodes":[
				0,
				1,
				2,
				3
			]
		}
	],
	"nodes":[
		{
			"mesh":0,
			"name":"Cupboard E"
		},
		{
			"mesh":1,
			"name":"Cupboard E.001"
		},
		{
			"mesh":2,
			"name":"Cupboard E.002"
		},
		{
			"mesh":3,
			"name":"Cupboard E.003"
		}
	],
	"materials":[
		{
			"doubleSided":true,
			"name":"White.038",
			"pbrMetallicRoughness":{
				"baseColorFactor":[
					0.6353368163108826,
					0.6353368163108826,
					0.6353368163108826,
					1
				],
				"metallicFactor":0,
				"roughnessFactor":0.5
			}
		},
		{
			"doubleSided":true,
			"name":"Grey 2.040",
			"pbrMetallicRoughness":{
				"baseColorFactor":[
					0.08696522563695908,
					0.08696522563695908,
					0.08696522563695908,
					1
				],
				"metallicFactor":0,
				"roughnessFactor":0.5
			}
		}
	],
	"meshes":[
		{
			"name":"Cube.019",
			"primitives":[
				{
					"attributes":{
						"POSITION":0,
						"NORMAL":1,
						"TEXCOORD_0":2
					},
					"indices":3,
					"material":0
				},
				{
					"attributes":{
						"POSITION":4,
						"NORMAL":5,
						"TEXCOORD_0":6
					},
					"indices":7,
					"material":1
				}
			]
		},
		{
			"name":"Cube.020",
			"primitives":[
				{
					"attributes":{
						"POSITION":8,
						"NORMAL":9,
						"TEXCOORD_0":10
					},
					"indices":11,
					"material":0
				},
				{
					"attributes":{
						"POSITION":12,
						"NORMAL":13,
						"TEXCOORD_0":14
					},
					"indices":15,
					"material":1
				}
			]
		},
		{
			"name":"Cube.022",
			"primitives":[
				{
					"attributes":{
						"POSITION":16,
						"NORMAL":17,
						"TEXCOORD_0":18
					},
					"indices":19,
					"material":0
				},
				{
					"attributes":{
						"POSITION":20,
						"NORMAL":21,
						"TEXCOORD_0":22
					},
					"indices":23,
					"material":1
				}
			]
		},
		{
			"name":"Cube.024",
			"primitives":[
				{
					"attributes":{
						"POSITION":24,
						"NORMAL":25,
						"TEXCOORD_0":26
					},
					"indices":19,
					"material":0
				},
				{
					"attributes":{
						"POSITION":27,
						"NORMAL":28,
						"TEXCOORD_0":29
					},
					"indices":23,
					"material":1
				}
			]
		}
	],
	"accessors":[
		{
			"bufferView":0,
			"componentType":5126,
			"count":308,
			"max":[
				2.030198812484741,
				1.4972560405731201,
				0.3722588121891022
			],
			"min":[
				-2.660597562789917,
				-2.8753435611724854,
				-2.678072929382324
			],
			"type":"VEC3"
		},
		{
			"bufferView":1,
			"componentType":5126,
			"count":308,
			"type":"VEC3"
		},
		{
			"bufferView":2,
			"componentType":5126,
			"count":308,
			"type":"VEC2"
		},
		{
			"bufferView":3,
			"componentType":5123,
			"count":456,
			"type":"SCALAR"
		},
		{
			"bufferView":4,
			"componentType":5126,
			"count":98,
			"max":[
				2.0562736988067627,
				1.639028549194336,
				0.4626627266407013
			],
			"min":[
				-2.686598539352417,
				1.4966611862182617,
				-2.6831400394439697
			],
			"type":"VEC3"
		},
		{
			"bufferView":5,
			"componentType":5126,
			"count":98,
			"type":"VEC3"
		},
		{
			"bufferView":6,
			"componentType":5126,
			"count":98,
			"type":"VEC2"
		},
		{
			"bufferView":7,
			"componentType":5123,
			"count":132,
			"type":"SCALAR"
		},
		{
			"bufferView":8,
			"componentType":5126,
			"count":120,
			"max":[
				1.877101182937622,
				1.3532758951187134,
				0.3406113386154175
			],
			"min":[
				-2.5201539993286133,
				0.2469327747821808,
				-2.216715097427368
			],
			"type":"VEC3"
		},
		{
			"bufferView":9,
			"componentType":5126,
			"count":120,
			"type":"VEC3"
		},
		{
			"bufferView":10,
			"componentType":5126,
			"count":120,
			"type":"VEC2"
		},
		{
			"bufferView":11,
			"componentType":5123,
			"count":180,
			"type":"SCALAR"
		},
		{
			"bufferView":12,
			"componentType":5126,
			"count":272,
			"max":[
				0.002186585683375597,
				1.225880742073059,
				0.5746893882751465
			],
			"min":[
				-0.6491944789886475,
				1.0392512083053589,
				0.28932464122772217
			],
			"type":"VEC3"
		},
		{
			"bufferView":13,
			"componentType":5126,
			"count":272,
			"type":"VEC3"
		},
		{
			"bufferView":14,
			"componentType":5126,
			"count":272,
			"type":"VEC2"
		},
		{
			"bufferView":15,
			"componentType":5123,
			"count":516,
			"type":"SCALAR"
		},
		{
			"bufferView":16,
			"componentType":5126,
			"count":96,
			"max":[
				-0.31775084137916565,
				0.2334751933813095,
				0.34061112999916077
			],
			"min":[
				-2.52744197845459,
				-2.7208406925201416,
				0.2683176100254059
			],
			"type":"VEC3"
		},
		{
			"bufferView":17,
			"componentType":5126,
			"count":96,
			"type":"VEC3"
		},
		{
			"bufferView":18,
			"componentType":5126,
			"count":96,
			"type":"VEC2"
		},
		{
			"bufferView":19,
			"componentType":5123,
			"count":132,
			"type":"SCALAR"
		},
		{
			"bufferView":20,
			"componentType":5126,
			"count":272,
			"max":[
				-0.5210695862770081,
				0.13771001994609833,
				0.5746892690658569
			],
			"min":[
				-0.7076992988586426,
				-0.5136709809303284,
				0.28932443261146545
			],
			"type":"VEC3"
		},
		{
			"bufferView":21,
			"componentType":5126,
			"count":272,
			"type":"VEC3"
		},
		{
			"bufferView":22,
			"componentType":5126,
			"count":272,
			"type":"VEC2"
		},
		{
			"bufferView":23,
			"componentType":5123,
			"count":516,
			"type":"SCALAR"
		},
		{
			"bufferView":24,
			"componentType":5126,
			"count":96,
			"max":[
				1.8807528018951416,
				0.2334751933813095,
				0.34061112999916077
			],
			"min":[
				-0.3289388418197632,
				-2.7208406925201416,
				0.2683176100254059
			],
			"type":"VEC3"
		},
		{
			"bufferView":25,
			"componentType":5126,
			"count":96,
			"type":"VEC3"
		},
		{
			"bufferView":26,
			"componentType":5126,
			"count":96,
			"type":"VEC2"
		},
		{
			"bufferView":27,
			"componentType":5126,
			"count":272,
			"max":[
				1.6978130340576172,
				0.13771001994609833,
				0.5746892690658569
			],
			"min":[
				1.511183500289917,
				-0.5136709809303284,
				0.28932443261146545
			],
			"type":"VEC3"
		},
		{
			"bufferView":28,
			"componentType":5126,
			"count":272,
			"type":"VEC3"
		},
		{
			"bufferView":29,
			"componentType":5126,
			"count":272,
			"type":"VEC2"
		}
	],
	"bufferViews":[
		{
			"buffer":0,
			"byteLength":3696,
			"byteOffset":0,
			"target":34962
		},
		{
			"buffer":0,
			"byteLength":3696,
			"byteOffset":3696,
			"target":34962
		},
		{
			"buffer":0,
			"byteLength":2464,
			"byteOffset":7392,
			"target":34962
		},
		{
			"buffer":0,
			"byteLength":912,
			"byteOffset":9856,
			"target":34963
		},
		{
			"buffer":0,
			"byteLength":1176,
			"byteOffset":10768,
			"target":34962
		},
		{
			"buffer":0,
			"byteLength":1176,
			"byteOffset":11944,
			"target":34962
		},
		{
			"buffer":0,
			"byteLength":784,
			"byteOffset":13120,
			"target":34962
		},
		{
			"buffer":0,
			"byteLength":264,
			"byteOffset":13904,
			"target":34963
		},
		{
			"buffer":0,
			"byteLength":1440,
			"byteOffset":14168,
			"target":34962
		},
		{
			"buffer":0,
			"byteLength":1440,
			"byteOffset":15608,
			"target":34962
		},
		{
			"buffer":0,
			"byteLength":960,
			"byteOffset":17048,
			"target":34962
		},
		{
			"buffer":0,
			"byteLength":360,
			"byteOffset":18008,
			"target":34963
		},
		{
			"buffer":0,
			"byteLength":3264,
			"byteOffset":18368,
			"target":34962
		},
		{
			"buffer":0,
			"byteLength":3264,
			"byteOffset":21632,
			"target":34962
		},
		{
			"buffer":0,
			"byteLength":2176,
			"byteOffset":24896,
			"target":34962
		},
		{
			"buffer":0,
			"byteLength":1032,
			"byteOffset":27072,
			"target":34963
		},
		{
			"buffer":0,
			"byteLength":1152,
			"byteOffset":28104,
			"target":34962
		},
		{
			"buffer":0,
			"byteLength":1152,
			"byteOffset":29256,
			"target":34962
		},
		{
			"buffer":0,
			"byteLength":768,
			"byteOffset":30408,
			"target":34962
		},
		{
			"buffer":0,
			"byteLength":264,
			"byteOffset":31176,
			"target":34963
		},
		{
			"buffer":0,
			"byteLength":3264,
			"byteOffset":31440,
			"target":34962
		},
		{
			"buffer":0,
			"byteLength":3264,
			"byteOffset":34704,
			"target":34962
		},
		{
			"buffer":0,
			"byteLength":2176,
			"byteOffset":37968,
			"target":34962
		},
		{
			"buffer":0,
			"byteLength":1032,
			"byteOffset":40144,
			"target":34963
		},
		{
			"buffer":0,
			"byteLength":1152,
			"byteOffset":41176,
			"target":34962
		},
		{
			"buffer":0,
			"byteLength":1152,
			"byteOffset":42328,
			"target":34962
		},
		{
			"buffer":0,
			"byteLength":768,
			"byteOffset":43480,
			"target":34962
		},
		{
			"buffer":0,
			"byteLength":3264,
			"byteOffset":44248,
			"target":34962
		},
		{
			"buffer":0,
			"byteLength":3264,
			"byteOffset":47512,
			"target":34962
		},
		{
			"buffer":0,
			"byteLength":2176,
			"byteOffset":50776,
			"target":34962
		}
	],
	"buffers":[
		{
			"byteLength":52952,
			"uri":"cupboard_floor_special.bin"
		}
	]
}
