{
	"asset":{
		"generator":"Khronos glTF Blender I/O v4.2.70",
		"version":"2.0"
	},
	"scene":0,
	"scenes":[
		{
			"name":"Scene",
			"nodes":[
				0
			]
		}
	],
	"nodes":[
		{
			"mesh":0,
			"name":"Cube.004"
		}
	],
	"materials":[
		{
			"doubleSided":true,
			"name":"noircarreaux",
			"pbrMetallicRoughness":{
				"baseColorFactor":[
					0,
					0,
					0,
					1
				],
				"metallicFactor":0
			}
		},
		{
			"doubleSided":true,
			"name":"fer.002",
			"pbrMetallicRoughness":{
				"roughnessFactor":0.20000000298023224
			}
		}
	],
	"meshes":[
		{
			"name":"Cube.008",
			"primitives":[
				{
					"attributes":{
						"POSITION":0,
						"NORMAL":1,
						"TEXCOORD_0":2
					},
					"indices":3,
					"material":0
				},
				{
					"attributes":{
						"POSITION":4,
						"NORMAL":5,
						"TEXCOORD_0":6
					},
					"indices":7,
					"material":1
				}
			]
		}
	],
	"accessors":[
		{
			"bufferView":0,
			"componentType":5126,
			"count":80,
			"max":[
				0.2362179458141327,
				1,
				1
			],
			"min":[
				-1,
				-1,
				-3.1166834831237793
			],
			"type":"VEC3"
		},
		{
			"bufferView":1,
			"componentType":5126,
			"count":80,
			"type":"VEC3"
		},
		{
			"bufferView":2,
			"componentType":5126,
			"count":80,
			"type":"VEC2"
		},
		{
			"bufferView":3,
			"componentType":5123,
			"count":156,
			"type":"SCALAR"
		},
		{
			"bufferView":4,
			"componentType":5126,
			"count":1168,
			"max":[
				0.36131858825683594,
				0.40570780634880066,
				-0.8690237402915955
			],
			"min":[
				0.23621773719787598,
				-0.2025371789932251,
				-1.3242278099060059
			],
			"type":"VEC3"
		},
		{
			"bufferView":5,
			"componentType":5126,
			"count":1168,
			"type":"VEC3"
		},
		{
			"bufferView":6,
			"componentType":5126,
			"count":1168,
			"type":"VEC2"
		},
		{
			"bufferView":7,
			"componentType":5123,
			"count":2232,
			"type":"SCALAR"
		}
	],
	"bufferViews":[
		{
			"buffer":0,
			"byteLength":960,
			"byteOffset":0,
			"target":34962
		},
		{
			"buffer":0,
			"byteLength":960,
			"byteOffset":960,
			"target":34962
		},
		{
			"buffer":0,
			"byteLength":640,
			"byteOffset":1920,
			"target":34962
		},
		{
			"buffer":0,
			"byteLength":312,
			"byteOffset":2560,
			"target":34963
		},
		{
			"buffer":0,
			"byteLength":14016,
			"byteOffset":2872,
			"target":34962
		},
		{
			"buffer":0,
			"byteLength":14016,
			"byteOffset":16888,
			"target":34962
		},
		{
			"buffer":0,
			"byteLength":9344,
			"byteOffset":30904,
			"target":34962
		},
		{
			"buffer":0,
			"byteLength":4464,
			"byteOffset":40248,
			"target":34963
		}
	],
	"buffers":[
		{
			"byteLength":44712,
			"uri":"cupboard2.bin"
		}
	]
}
