{
	"asset":{
		"generator":"Khronos glTF Blender I/O v4.1.62",
		"version":"2.0"
	},
	"scene":0,
	"scenes":[
		{
			"name":"Scene",
			"nodes":[
				0,
				1,
				2
			]
		}
	],
	"nodes":[
		{
			"mesh":0,
			"name":"Cupboard F"
		},
		{
			"mesh":1,
			"name":"Cupboard F.001"
		},
		{
			"mesh":2,
			"name":"Cupboard F.002"
		}
	],
	"materials":[
		{
			"doubleSided":true,
			"name":"White.039",
			"pbrMetallicRoughness":{
				"baseColorFactor":[
					0.6353368163108826,
					0.6353368163108826,
					0.6353368163108826,
					1
				],
				"metallicFactor":0,
				"roughnessFactor":0.5
			}
		},
		{
			"doubleSided":true,
			"name":"Grey 2.041",
			"pbrMetallicRoughness":{
				"baseColorFactor":[
					0.08696522563695908,
					0.08696522563695908,
					0.08696522563695908,
					1
				],
				"metallicFactor":0,
				"roughnessFactor":0.5
			}
		}
	],
	"meshes":[
		{
			"name":"Cube.025",
			"primitives":[
				{
					"attributes":{
						"POSITION":0,
						"NORMAL":1,
						"TEXCOORD_0":2
					},
					"indices":3,
					"material":0
				},
				{
					"attributes":{
						"POSITION":4,
						"NORMAL":5,
						"TEXCOORD_0":6
					},
					"indices":7,
					"material":1
				}
			]
		},
		{
			"name":"Cube.026",
			"primitives":[
				{
					"attributes":{
						"POSITION":8,
						"NORMAL":9,
						"TEXCOORD_0":10
					},
					"indices":11,
					"material":0
				},
				{
					"attributes":{
						"POSITION":12,
						"NORMAL":13,
						"TEXCOORD_0":14
					},
					"indices":15,
					"material":1
				}
			]
		},
		{
			"name":"Cube.028",
			"primitives":[
				{
					"attributes":{
						"POSITION":16,
						"NORMAL":17,
						"TEXCOORD_0":18
					},
					"indices":11,
					"material":0
				},
				{
					"attributes":{
						"POSITION":19,
						"NORMAL":20,
						"TEXCOORD_0":21
					},
					"indices":15,
					"material":1
				}
			]
		}
	],
	"accessors":[
		{
			"bufferView":0,
			"componentType":5126,
			"count":516,
			"max":[
				5.551389217376709,
				1.1772563457489014,
				0.3997035026550293
			],
			"min":[
				-3.200864791870117,
				-3.195343255996704,
				-2.6506283283233643
			],
			"type":"VEC3"
		},
		{
			"bufferView":1,
			"componentType":5126,
			"count":516,
			"type":"VEC3"
		},
		{
			"bufferView":2,
			"componentType":5126,
			"count":516,
			"type":"VEC2"
		},
		{
			"bufferView":3,
			"componentType":5123,
			"count":720,
			"type":"SCALAR"
		},
		{
			"bufferView":4,
			"componentType":5126,
			"count":100,
			"max":[
				5.583916664123535,
				1.3190288543701172,
				0.49010729789733887
			],
			"min":[
				-3.2333011627197266,
				1.176661491394043,
				-2.6556954383850098
			],
			"type":"VEC3"
		},
		{
			"bufferView":5,
			"componentType":5126,
			"count":100,
			"type":"VEC3"
		},
		{
			"bufferView":6,
			"componentType":5126,
			"count":100,
			"type":"VEC2"
		},
		{
			"bufferView":7,
			"componentType":5123,
			"count":132,
			"type":"SCALAR"
		},
		{
			"bufferView":8,
			"componentType":5126,
			"count":96,
			"max":[
				1.2186788320541382,
				1.0227534770965576,
				0.3680557608604431
			],
			"min":[
				-0.9910125732421875,
				-3.0408403873443604,
				0.29576224088668823
			],
			"type":"VEC3"
		},
		{
			"bufferView":9,
			"componentType":5126,
			"count":96,
			"type":"VEC3"
		},
		{
			"bufferView":10,
			"componentType":5126,
			"count":96,
			"type":"VEC2"
		},
		{
			"bufferView":11,
			"componentType":5123,
			"count":132,
			"type":"SCALAR"
		},
		{
			"bufferView":12,
			"componentType":5126,
			"count":272,
			"max":[
				1.0153601169586182,
				0.8783841729164124,
				0.6021339297294617
			],
			"min":[
				0.8287304639816284,
				0.22700321674346924,
				0.3167690634727478
			],
			"type":"VEC3"
		},
		{
			"bufferView":13,
			"componentType":5126,
			"count":272,
			"type":"VEC3"
		},
		{
			"bufferView":14,
			"componentType":5126,
			"count":272,
			"type":"VEC2"
		},
		{
			"bufferView":15,
			"componentType":5123,
			"count":516,
			"type":"SCALAR"
		},
		{
			"bufferView":16,
			"componentType":5126,
			"count":96,
			"max":[
				3.417182445526123,
				1.0227534770965576,
				0.3680557608604431
			],
			"min":[
				1.2074908018112183,
				-3.0408403873443604,
				0.29576224088668823
			],
			"type":"VEC3"
		},
		{
			"bufferView":17,
			"componentType":5126,
			"count":96,
			"type":"VEC3"
		},
		{
			"bufferView":18,
			"componentType":5126,
			"count":96,
			"type":"VEC2"
		},
		{
			"bufferView":19,
			"componentType":5126,
			"count":272,
			"max":[
				1.5716785192489624,
				0.8783841729164124,
				0.6021339297294617
			],
			"min":[
				1.3850489854812622,
				0.22700321674346924,
				0.3167690634727478
			],
			"type":"VEC3"
		},
		{
			"bufferView":20,
			"componentType":5126,
			"count":272,
			"type":"VEC3"
		},
		{
			"bufferView":21,
			"componentType":5126,
			"count":272,
			"type":"VEC2"
		}
	],
	"bufferViews":[
		{
			"buffer":0,
			"byteLength":6192,
			"byteOffset":0,
			"target":34962
		},
		{
			"buffer":0,
			"byteLength":6192,
			"byteOffset":6192,
			"target":34962
		},
		{
			"buffer":0,
			"byteLength":4128,
			"byteOffset":12384,
			"target":34962
		},
		{
			"buffer":0,
			"byteLength":1440,
			"byteOffset":16512,
			"target":34963
		},
		{
			"buffer":0,
			"byteLength":1200,
			"byteOffset":17952,
			"target":34962
		},
		{
			"buffer":0,
			"byteLength":1200,
			"byteOffset":19152,
			"target":34962
		},
		{
			"buffer":0,
			"byteLength":800,
			"byteOffset":20352,
			"target":34962
		},
		{
			"buffer":0,
			"byteLength":264,
			"byteOffset":21152,
			"target":34963
		},
		{
			"buffer":0,
			"byteLength":1152,
			"byteOffset":21416,
			"target":34962
		},
		{
			"buffer":0,
			"byteLength":1152,
			"byteOffset":22568,
			"target":34962
		},
		{
			"buffer":0,
			"byteLength":768,
			"byteOffset":23720,
			"target":34962
		},
		{
			"buffer":0,
			"byteLength":264,
			"byteOffset":24488,
			"target":34963
		},
		{
			"buffer":0,
			"byteLength":3264,
			"byteOffset":24752,
			"target":34962
		},
		{
			"buffer":0,
			"byteLength":3264,
			"byteOffset":28016,
			"target":34962
		},
		{
			"buffer":0,
			"byteLength":2176,
			"byteOffset":31280,
			"target":34962
		},
		{
			"buffer":0,
			"byteLength":1032,
			"byteOffset":33456,
			"target":34963
		},
		{
			"buffer":0,
			"byteLength":1152,
			"byteOffset":34488,
			"target":34962
		},
		{
			"buffer":0,
			"byteLength":1152,
			"byteOffset":35640,
			"target":34962
		},
		{
			"buffer":0,
			"byteLength":768,
			"byteOffset":36792,
			"target":34962
		},
		{
			"buffer":0,
			"byteLength":3264,
			"byteOffset":37560,
			"target":34962
		},
		{
			"buffer":0,
			"byteLength":3264,
			"byteOffset":40824,
			"target":34962
		},
		{
			"buffer":0,
			"byteLength":2176,
			"byteOffset":44088,
			"target":34962
		}
	],
	"buffers":[
		{
			"byteLength":46264,
			"uri":"cupboard_floor_large.bin"
		}
	]
}
