{
	"asset":{
		"generator":"Khronos glTF Blender I/O v4.1.62",
		"version":"2.0"
	},
	"scene":0,
	"scenes":[
		{
			"name":"Scene",
			"nodes":[
				0,
				1
			]
		}
	],
	"nodes":[
		{
			"mesh":0,
			"name":"Dishwasher"
		},
		{
			"mesh":1,
			"name":"Dishwasher.001",
			"translation":[
				0.2867068350315094,
				0.1042570099234581,
				0
			]
		}
	],
	"materials":[
		{
			"doubleSided":true,
			"name":"White.041",
			"pbrMetallicRoughness":{
				"baseColorFactor":[
					0.6353368163108826,
					0.6353368163108826,
					0.6353368163108826,
					1
				],
				"metallicFactor":0,
				"roughnessFactor":0.5
			}
		},
		{
			"doubleSided":true,
			"name":"Grey.034",
			"pbrMetallicRoughness":{
				"baseColorFactor":[
					0.2600274980068207,
					0.2600274980068207,
					0.2600274980068207,
					1
				],
				"metallicFactor":0,
				"roughnessFactor":0.5
			}
		}
	],
	"meshes":[
		{
			"name":"Cube.033",
			"primitives":[
				{
					"attributes":{
						"POSITION":0,
						"NORMAL":1,
						"TEXCOORD_0":2
					},
					"indices":3,
					"material":0
				},
				{
					"attributes":{
						"POSITION":4,
						"NORMAL":5,
						"TEXCOORD_0":6
					},
					"indices":7,
					"material":1
				}
			]
		},
		{
			"name":"Cube.034",
			"primitives":[
				{
					"attributes":{
						"POSITION":8,
						"NORMAL":9,
						"TEXCOORD_0":10
					},
					"indices":11,
					"material":1
				}
			]
		}
	],
	"accessors":[
		{
			"bufferView":0,
			"componentType":5126,
			"count":120,
			"max":[
				1.7814948558807373,
				2.3971917629241943,
				1.006178855895996
			],
			"min":[
				-1.2688350677490234,
				-1.9754083156585693,
				-2.2008461952209473
			],
			"type":"VEC3"
		},
		{
			"bufferView":1,
			"componentType":5126,
			"count":120,
			"type":"VEC3"
		},
		{
			"bufferView":2,
			"componentType":5126,
			"count":120,
			"type":"VEC2"
		},
		{
			"bufferView":3,
			"componentType":5123,
			"count":180,
			"type":"SCALAR"
		},
		{
			"bufferView":4,
			"componentType":5126,
			"count":2360,
			"max":[
				1.5681092739105225,
				2.27968692779541,
				1.1155357360839844
			],
			"min":[
				-1.080522894859314,
				-1.414309024810791,
				-1.2997379302978516
			],
			"type":"VEC3"
		},
		{
			"bufferView":5,
			"componentType":5126,
			"count":2360,
			"type":"VEC3"
		},
		{
			"bufferView":6,
			"componentType":5126,
			"count":2360,
			"type":"VEC2"
		},
		{
			"bufferView":7,
			"componentType":5123,
			"count":4272,
			"type":"SCALAR"
		},
		{
			"bufferView":8,
			"componentType":5126,
			"count":74,
			"max":[
				1.357118010520935,
				1.6947247982025146,
				1.2427639961242676
			],
			"min":[
				-1.3741592168807983,
				-1.931344985961914,
				1.0010136365890503
			],
			"type":"VEC3"
		},
		{
			"bufferView":9,
			"componentType":5126,
			"count":74,
			"type":"VEC3"
		},
		{
			"bufferView":10,
			"componentType":5126,
			"count":74,
			"type":"VEC2"
		},
		{
			"bufferView":11,
			"componentType":5123,
			"count":132,
			"type":"SCALAR"
		}
	],
	"bufferViews":[
		{
			"buffer":0,
			"byteLength":1440,
			"byteOffset":0,
			"target":34962
		},
		{
			"buffer":0,
			"byteLength":1440,
			"byteOffset":1440,
			"target":34962
		},
		{
			"buffer":0,
			"byteLength":960,
			"byteOffset":2880,
			"target":34962
		},
		{
			"buffer":0,
			"byteLength":360,
			"byteOffset":3840,
			"target":34963
		},
		{
			"buffer":0,
			"byteLength":28320,
			"byteOffset":4200,
			"target":34962
		},
		{
			"buffer":0,
			"byteLength":28320,
			"byteOffset":32520,
			"target":34962
		},
		{
			"buffer":0,
			"byteLength":18880,
			"byteOffset":60840,
			"target":34962
		},
		{
			"buffer":0,
			"byteLength":8544,
			"byteOffset":79720,
			"target":34963
		},
		{
			"buffer":0,
			"byteLength":888,
			"byteOffset":88264,
			"target":34962
		},
		{
			"buffer":0,
			"byteLength":888,
			"byteOffset":89152,
			"target":34962
		},
		{
			"buffer":0,
			"byteLength":592,
			"byteOffset":90040,
			"target":34962
		},
		{
			"buffer":0,
			"byteLength":264,
			"byteOffset":90632,
			"target":34963
		}
	],
	"buffers":[
		{
			"byteLength":90896,
			"uri":"dish_washer.bin"
		}
	]
}
