{
	"asset":{
		"generator":"Khronos glTF Blender I/O v4.2.70",
		"version":"2.0"
	},
	"scene":0,
	"scenes":[
		{
			"name":"Scene",
			"nodes":[
				0,
				1,
				2
			]
		}
	],
	"nodes":[
		{
			"mesh":0,
			"name":"Fridge A"
		},
		{
			"mesh":1,
			"name":"Fridge A.001"
		},
		{
			"mesh":2,
			"name":"Fridge A.002"
		}
	],
	"materials":[
		{
			"doubleSided":true,
			"name":"White.042",
			"pbrMetallicRoughness":{
				"baseColorFactor":[
					0.6353368163108826,
					0.6353368163108826,
					0.6353368163108826,
					1
				],
				"metallicFactor":0
			}
		},
		{
			"doubleSided":true,
			"name":"Grey 2.043",
			"pbrMetallicRoughness":{
				"baseColorFactor":[
					0.08696522563695908,
					0.08696522563695908,
					0.08696522563695908,
					1
				],
				"metallicFactor":0,
				"roughnessFactor":0.5
			}
		}
	],
	"meshes":[
		{
			"name":"Cube.035",
			"primitives":[
				{
					"attributes":{
						"POSITION":0,
						"NORMAL":1,
						"TEXCOORD_0":2
					},
					"indices":3,
					"material":0
				}
			]
		},
		{
			"name":"Cube.036",
			"primitives":[
				{
					"attributes":{
						"POSITION":4,
						"NORMAL":5,
						"TEXCOORD_0":6
					},
					"indices":7,
					"material":0
				},
				{
					"attributes":{
						"POSITION":8,
						"NORMAL":9,
						"TEXCOORD_0":10
					},
					"indices":11,
					"material":1
				}
			]
		},
		{
			"name":"Cube.040",
			"primitives":[
				{
					"attributes":{
						"POSITION":12,
						"NORMAL":13,
						"TEXCOORD_0":14
					},
					"indices":15,
					"material":0
				},
				{
					"attributes":{
						"POSITION":16,
						"NORMAL":17,
						"TEXCOORD_0":18
					},
					"indices":11,
					"material":1
				}
			]
		}
	],
	"accessors":[
		{
			"bufferView":0,
			"componentType":5126,
			"count":584,
			"max":[
				2.202430248260498,
				3.344252824783325,
				1.4035632610321045
			],
			"min":[
				-0.06175455451011658,
				-6.12503719329834,
				-2.9781737327575684
			],
			"type":"VEC3"
		},
		{
			"bufferView":1,
			"componentType":5126,
			"count":584,
			"type":"VEC3"
		},
		{
			"bufferView":2,
			"componentType":5126,
			"count":584,
			"type":"VEC2"
		},
		{
			"bufferView":3,
			"componentType":5123,
			"count":936,
			"type":"SCALAR"
		},
		{
			"bufferView":4,
			"componentType":5126,
			"count":100,
			"max":[
				-0.059778522700071335,
				3.278757333755493,
				1.338042974472046
			],
			"min":[
				-0.5940911769866943,
				1.0134650468826294,
				-2.9126529693603516
			],
			"type":"VEC3"
		},
		{
			"bufferView":5,
			"componentType":5126,
			"count":100,
			"type":"VEC3"
		},
		{
			"bufferView":6,
			"componentType":5126,
			"count":100,
			"type":"VEC2"
		},
		{
			"bufferView":7,
			"componentType":5123,
			"count":132,
			"type":"SCALAR"
		},
		{
			"bufferView":8,
			"componentType":5126,
			"count":272,
			"max":[
				-0.5577127933502197,
				1.944682240486145,
				1.032712459564209
			],
			"min":[
				-0.8430777192115784,
				1.293300747871399,
				0.8460829854011536
			],
			"type":"VEC3"
		},
		{
			"bufferView":9,
			"componentType":5126,
			"count":272,
			"type":"VEC3"
		},
		{
			"bufferView":10,
			"componentType":5126,
			"count":272,
			"type":"VEC2"
		},
		{
			"bufferView":11,
			"componentType":5123,
			"count":516,
			"type":"SCALAR"
		},
		{
			"bufferView":12,
			"componentType":5126,
			"count":96,
			"max":[
				-0.059778522700071335,
				0.9496423006057739,
				1.338042974472046
			],
			"min":[
				-0.5940911769866943,
				-6.057509422302246,
				-2.9126529693603516
			],
			"type":"VEC3"
		},
		{
			"bufferView":13,
			"componentType":5126,
			"count":96,
			"type":"VEC3"
		},
		{
			"bufferView":14,
			"componentType":5126,
			"count":96,
			"type":"VEC2"
		},
		{
			"bufferView":15,
			"componentType":5123,
			"count":132,
			"type":"SCALAR"
		},
		{
			"bufferView":16,
			"componentType":5126,
			"count":272,
			"max":[
				-0.5577127933502197,
				0.8479366898536682,
				1.032712459564209
			],
			"min":[
				-0.8430777192115784,
				0.19655519723892212,
				0.8460829854011536
			],
			"type":"VEC3"
		},
		{
			"bufferView":17,
			"componentType":5126,
			"count":272,
			"type":"VEC3"
		},
		{
			"bufferView":18,
			"componentType":5126,
			"count":272,
			"type":"VEC2"
		}
	],
	"bufferViews":[
		{
			"buffer":0,
			"byteLength":7008,
			"byteOffset":0,
			"target":34962
		},
		{
			"buffer":0,
			"byteLength":7008,
			"byteOffset":7008,
			"target":34962
		},
		{
			"buffer":0,
			"byteLength":4672,
			"byteOffset":14016,
			"target":34962
		},
		{
			"buffer":0,
			"byteLength":1872,
			"byteOffset":18688,
			"target":34963
		},
		{
			"buffer":0,
			"byteLength":1200,
			"byteOffset":20560,
			"target":34962
		},
		{
			"buffer":0,
			"byteLength":1200,
			"byteOffset":21760,
			"target":34962
		},
		{
			"buffer":0,
			"byteLength":800,
			"byteOffset":22960,
			"target":34962
		},
		{
			"buffer":0,
			"byteLength":264,
			"byteOffset":23760,
			"target":34963
		},
		{
			"buffer":0,
			"byteLength":3264,
			"byteOffset":24024,
			"target":34962
		},
		{
			"buffer":0,
			"byteLength":3264,
			"byteOffset":27288,
			"target":34962
		},
		{
			"buffer":0,
			"byteLength":2176,
			"byteOffset":30552,
			"target":34962
		},
		{
			"buffer":0,
			"byteLength":1032,
			"byteOffset":32728,
			"target":34963
		},
		{
			"buffer":0,
			"byteLength":1152,
			"byteOffset":33760,
			"target":34962
		},
		{
			"buffer":0,
			"byteLength":1152,
			"byteOffset":34912,
			"target":34962
		},
		{
			"buffer":0,
			"byteLength":768,
			"byteOffset":36064,
			"target":34962
		},
		{
			"buffer":0,
			"byteLength":264,
			"byteOffset":36832,
			"target":34963
		},
		{
			"buffer":0,
			"byteLength":3264,
			"byteOffset":37096,
			"target":34962
		},
		{
			"buffer":0,
			"byteLength":3264,
			"byteOffset":40360,
			"target":34962
		},
		{
			"buffer":0,
			"byteLength":2176,
			"byteOffset":43624,
			"target":34962
		}
	],
	"buffers":[
		{
			"byteLength":45800,
			"uri":"freezer.bin"
		}
	]
}
