{
	"asset":{
		"generator":"Khronos glTF Blender I/O v4.1.62",
		"version":"2.0"
	},
	"scene":0,
	"scenes":[
		{
			"name":"Scene",
			"nodes":[
				0
			]
		}
	],
	"nodes":[
		{
			"mesh":0,
			"name":"Kettle",
			"scale":[
				1.688834309577942,
				1.688834309577942,
				1.688834309577942
			]
		}
	],
	"materials":[
		{
			"doubleSided":true,
			"name":"White.044",
			"pbrMetallicRoughness":{
				"baseColorFactor":[
					0.6353368163108826,
					0.6353368163108826,
					0.6353368163108826,
					1
				],
				"metallicFactor":0,
				"roughnessFactor":0.5
			}
		},
		{
			"doubleSided":true,
			"name":"Blue 2.019",
			"pbrMetallicRoughness":{
				"baseColorFactor":[
					0.04154860973358154,
					0.23032249510288239,
					0.23441897332668304,
					1
				],
				"metallicFactor":0,
				"roughnessFactor":0.5
			}
		},
		{
			"doubleSided":true,
			"name":"Grey.035",
			"pbrMetallicRoughness":{
				"baseColorFactor":[
					0.2600274980068207,
					0.2600274980068207,
					0.2600274980068207,
					1
				],
				"metallicFactor":0,
				"roughnessFactor":0.5
			}
		}
	],
	"meshes":[
		{
			"name":"Cylinder.003",
			"primitives":[
				{
					"attributes":{
						"POSITION":0,
						"NORMAL":1,
						"TEXCOORD_0":2
					},
					"indices":3,
					"material":0
				},
				{
					"attributes":{
						"POSITION":4,
						"NORMAL":5,
						"TEXCOORD_0":6
					},
					"indices":7,
					"material":1
				},
				{
					"attributes":{
						"POSITION":8,
						"NORMAL":9,
						"TEXCOORD_0":10
					},
					"indices":11,
					"material":2
				}
			]
		}
	],
	"accessors":[
		{
			"bufferView":0,
			"componentType":5126,
			"count":812,
			"max":[
				0.5806652307510376,
				0.6586281061172485,
				0.4080181419849396
			],
			"min":[
				-0.5667740106582642,
				-0.8864682912826538,
				-0.4880397319793701
			],
			"type":"VEC3"
		},
		{
			"bufferView":1,
			"componentType":5126,
			"count":812,
			"type":"VEC3"
		},
		{
			"bufferView":2,
			"componentType":5126,
			"count":812,
			"type":"VEC2"
		},
		{
			"bufferView":3,
			"componentType":5123,
			"count":1284,
			"type":"SCALAR"
		},
		{
			"bufferView":4,
			"componentType":5126,
			"count":24,
			"max":[
				0.1618969887495041,
				0.2448239028453827,
				0.3694808781147003
			],
			"min":[
				-0.21162842214107513,
				-0.7376312613487244,
				0.29301393032073975
			],
			"type":"VEC3"
		},
		{
			"bufferView":5,
			"componentType":5126,
			"count":24,
			"type":"VEC3"
		},
		{
			"bufferView":6,
			"componentType":5126,
			"count":24,
			"type":"VEC2"
		},
		{
			"bufferView":7,
			"componentType":5123,
			"count":36,
			"type":"SCALAR"
		},
		{
			"bufferView":8,
			"componentType":5126,
			"count":212,
			"max":[
				0.6568561792373657,
				0.7317887544631958,
				0.21672900021076202
			],
			"min":[
				-0.3207021951675415,
				-0.3191749155521393,
				-0.2988933324813843
			],
			"type":"VEC3"
		},
		{
			"bufferView":9,
			"componentType":5126,
			"count":212,
			"type":"VEC3"
		},
		{
			"bufferView":10,
			"componentType":5126,
			"count":212,
			"type":"VEC2"
		},
		{
			"bufferView":11,
			"componentType":5123,
			"count":354,
			"type":"SCALAR"
		}
	],
	"bufferViews":[
		{
			"buffer":0,
			"byteLength":9744,
			"byteOffset":0,
			"target":34962
		},
		{
			"buffer":0,
			"byteLength":9744,
			"byteOffset":9744,
			"target":34962
		},
		{
			"buffer":0,
			"byteLength":6496,
			"byteOffset":19488,
			"target":34962
		},
		{
			"buffer":0,
			"byteLength":2568,
			"byteOffset":25984,
			"target":34963
		},
		{
			"buffer":0,
			"byteLength":288,
			"byteOffset":28552,
			"target":34962
		},
		{
			"buffer":0,
			"byteLength":288,
			"byteOffset":28840,
			"target":34962
		},
		{
			"buffer":0,
			"byteLength":192,
			"byteOffset":29128,
			"target":34962
		},
		{
			"buffer":0,
			"byteLength":72,
			"byteOffset":29320,
			"target":34963
		},
		{
			"buffer":0,
			"byteLength":2544,
			"byteOffset":29392,
			"target":34962
		},
		{
			"buffer":0,
			"byteLength":2544,
			"byteOffset":31936,
			"target":34962
		},
		{
			"buffer":0,
			"byteLength":1696,
			"byteOffset":34480,
			"target":34962
		},
		{
			"buffer":0,
			"byteLength":708,
			"byteOffset":36176,
			"target":34963
		}
	],
	"buffers":[
		{
			"byteLength":36884,
			"uri":"kettle.bin"
		}
	]
}
