{
	"asset":{
		"generator":"Khronos glTF Blender I/O v4.2.70",
		"version":"2.0"
	},
	"scene":0,
	"scenes":[
		{
			"name":"Scene",
			"nodes":[
				0
			]
		}
	],
	"nodes":[
		{
			"mesh":0,
			"name":"Cylinder.001"
		}
	],
	"materials":[
		{
			"doubleSided":true,
			"name":"nwar",
			"pbrMetallicRoughness":{
				"baseColorFactor":[
					0,
					0,
					0,
					1
				],
				"metallicFactor":0
			}
		},
		{
			"doubleSided":true,
			"name":"blancblanc",
			"pbrMetallicRoughness":{
				"baseColorFactor":[
					0.800000011920929,
					0.800000011920929,
					0.800000011920929,
					1
				],
				"metallicFactor":0
			}
		}
	],
	"meshes":[
		{
			"name":"Cylinder.001",
			"primitives":[
				{
					"attributes":{
						"POSITION":0,
						"NORMAL":1,
						"TEXCOORD_0":2
					},
					"indices":3,
					"material":0
				},
				{
					"attributes":{
						"POSITION":4,
						"NORMAL":5,
						"TEXCOORD_0":6
					},
					"indices":7,
					"material":1
				}
			]
		}
	],
	"accessors":[
		{
			"bufferView":0,
			"componentType":5126,
			"count":838,
			"max":[
				0.5835592746734619,
				0.9156675934791565,
				0.5835592746734619
			],
			"min":[
				-0.5835592746734619,
				-0.6494269967079163,
				-0.5835592746734619
			],
			"type":"VEC3"
		},
		{
			"bufferView":1,
			"componentType":5126,
			"count":838,
			"type":"VEC3"
		},
		{
			"bufferView":2,
			"componentType":5126,
			"count":838,
			"type":"VEC2"
		},
		{
			"bufferView":3,
			"componentType":5123,
			"count":1332,
			"type":"SCALAR"
		},
		{
			"bufferView":4,
			"componentType":5126,
			"count":448,
			"max":[
				0.6181703805923462,
				0.9883878827095032,
				0.6181703805923462
			],
			"min":[
				-0.6181703805923462,
				0.9156404733657837,
				-0.6181703805923462
			],
			"type":"VEC3"
		},
		{
			"bufferView":5,
			"componentType":5126,
			"count":448,
			"type":"VEC3"
		},
		{
			"bufferView":6,
			"componentType":5126,
			"count":448,
			"type":"VEC2"
		},
		{
			"bufferView":7,
			"componentType":5123,
			"count":768,
			"type":"SCALAR"
		}
	],
	"bufferViews":[
		{
			"buffer":0,
			"byteLength":10056,
			"byteOffset":0,
			"target":34962
		},
		{
			"buffer":0,
			"byteLength":10056,
			"byteOffset":10056,
			"target":34962
		},
		{
			"buffer":0,
			"byteLength":6704,
			"byteOffset":20112,
			"target":34962
		},
		{
			"buffer":0,
			"byteLength":2664,
			"byteOffset":26816,
			"target":34963
		},
		{
			"buffer":0,
			"byteLength":5376,
			"byteOffset":29480,
			"target":34962
		},
		{
			"buffer":0,
			"byteLength":5376,
			"byteOffset":34856,
			"target":34962
		},
		{
			"buffer":0,
			"byteLength":3584,
			"byteOffset":40232,
			"target":34962
		},
		{
			"buffer":0,
			"byteLength":1536,
			"byteOffset":43816,
			"target":34963
		}
	],
	"buffers":[
		{
			"byteLength":45352,
			"uri":"kitchin_bin.bin"
		}
	]
}
