{
	"asset":{
		"generator":"Khronos glTF Blender I/O v4.2.70",
		"version":"2.0"
	},
	"scene":0,
	"scenes":[
		{
			"name":"Scene",
			"nodes":[
				0
			]
		}
	],
	"nodes":[
		{
			"mesh":0,
			"name":"Cube.024"
		}
	],
	"materials":[
		{
			"doubleSided":true,
			"name":"bois.003",
			"pbrMetallicRoughness":{
				"baseColorFactor":[
					0.34238171577453613,
					0.04446021467447281,
					0,
					1
				],
				"metallicFactor":0
			}
		},
		{
			"doubleSided":true,
			"name":"noircarreaux.003",
			"pbrMetallicRoughness":{
				"baseColorFactor":[
					0,
					0,
					0,
					1
				],
				"metallicFactor":0,
				"roughnessFactor":0.20000000298023224
			}
		}
	],
	"meshes":[
		{
			"name":"Cube.067",
			"primitives":[
				{
					"attributes":{
						"POSITION":0,
						"NORMAL":1,
						"TEXCOORD_0":2
					},
					"indices":3,
					"material":0
				},
				{
					"attributes":{
						"POSITION":4,
						"NORMAL":5,
						"TEXCOORD_0":6
					},
					"indices":7,
					"material":1
				}
			]
		}
	],
	"accessors":[
		{
			"bufferView":0,
			"componentType":5126,
			"count":48,
			"max":[
				1.4185963869094849,
				2.221193313598633,
				2.5233688354492188
			],
			"min":[
				-2.481527805328369,
				1.7380143404006958,
				-1.000000238418579
			],
			"type":"VEC3"
		},
		{
			"bufferView":1,
			"componentType":5126,
			"count":48,
			"type":"VEC3"
		},
		{
			"bufferView":2,
			"componentType":5126,
			"count":48,
			"type":"VEC2"
		},
		{
			"bufferView":3,
			"componentType":5123,
			"count":90,
			"type":"SCALAR"
		},
		{
			"bufferView":4,
			"componentType":5126,
			"count":20,
			"max":[
				1.4185963869094849,
				1.7380143404006958,
				2.5233688354492188
			],
			"min":[
				-2.1285955905914307,
				-1,
				-1.000000238418579
			],
			"type":"VEC3"
		},
		{
			"bufferView":5,
			"componentType":5126,
			"count":20,
			"type":"VEC3"
		},
		{
			"bufferView":6,
			"componentType":5126,
			"count":20,
			"type":"VEC2"
		},
		{
			"bufferView":7,
			"componentType":5123,
			"count":30,
			"type":"SCALAR"
		}
	],
	"bufferViews":[
		{
			"buffer":0,
			"byteLength":576,
			"byteOffset":0,
			"target":34962
		},
		{
			"buffer":0,
			"byteLength":576,
			"byteOffset":576,
			"target":34962
		},
		{
			"buffer":0,
			"byteLength":384,
			"byteOffset":1152,
			"target":34962
		},
		{
			"buffer":0,
			"byteLength":180,
			"byteOffset":1536,
			"target":34963
		},
		{
			"buffer":0,
			"byteLength":240,
			"byteOffset":1716,
			"target":34962
		},
		{
			"buffer":0,
			"byteLength":240,
			"byteOffset":1956,
			"target":34962
		},
		{
			"buffer":0,
			"byteLength":160,
			"byteOffset":2196,
			"target":34962
		},
		{
			"buffer":0,
			"byteLength":60,
			"byteOffset":2356,
			"target":34963
		}
	],
	"buffers":[
		{
			"byteLength":2416,
			"uri":"kitchin_stand.bin"
		}
	]
}
