{
	"asset":{
		"generator":"Khronos glTF Blender I/O v4.2.70",
		"version":"2.0"
	},
	"scene":0,
	"scenes":[
		{
			"name":"Scene",
			"nodes":[
				0
			]
		}
	],
	"nodes":[
		{
			"mesh":0,
			"name":"Cube.004"
		}
	],
	"materials":[
		{
			"doubleSided":true,
			"name":"bois.026",
			"pbrMetallicRoughness":{
				"baseColorFactor":[
					0.34238171577453613,
					0.04446021467447281,
					0,
					1
				],
				"metallicFactor":0
			}
		},
		{
			"doubleSided":true,
			"name":"noircarreaux.010",
			"pbrMetallicRoughness":{
				"baseColorFactor":[
					0,
					0,
					0,
					1
				],
				"metallicFactor":0,
				"roughnessFactor":0.20000000298023224
			}
		},
		{
			"doubleSided":true,
			"name":"fer.021",
			"pbrMetallicRoughness":{
				"roughnessFactor":0.20000000298023224
			}
		}
	],
	"meshes":[
		{
			"name":"Cube.065",
			"primitives":[
				{
					"attributes":{
						"POSITION":0,
						"NORMAL":1,
						"TEXCOORD_0":2
					},
					"indices":3,
					"material":0
				},
				{
					"attributes":{
						"POSITION":4,
						"NORMAL":5,
						"TEXCOORD_0":6
					},
					"indices":7,
					"material":1
				},
				{
					"attributes":{
						"POSITION":8,
						"NORMAL":9,
						"TEXCOORD_0":10
					},
					"indices":11,
					"material":2
				}
			]
		}
	],
	"accessors":[
		{
			"bufferView":0,
			"componentType":5126,
			"count":64,
			"max":[
				1.200000286102295,
				2.221193313598633,
				2.523369073867798
			],
			"min":[
				-2.48152756690979,
				1.7380143404006958,
				-1.0000001192092896
			],
			"type":"VEC3"
		},
		{
			"bufferView":1,
			"componentType":5126,
			"count":64,
			"type":"VEC3"
		},
		{
			"bufferView":2,
			"componentType":5126,
			"count":64,
			"type":"VEC2"
		},
		{
			"bufferView":3,
			"componentType":5123,
			"count":114,
			"type":"SCALAR"
		},
		{
			"bufferView":4,
			"componentType":5126,
			"count":116,
			"max":[
				1.200000286102295,
				1.7380143404006958,
				2.523369073867798
			],
			"min":[
				-2.156644344329834,
				-1,
				-1.0000001192092896
			],
			"type":"VEC3"
		},
		{
			"bufferView":5,
			"componentType":5126,
			"count":116,
			"type":"VEC3"
		},
		{
			"bufferView":6,
			"componentType":5126,
			"count":116,
			"type":"VEC2"
		},
		{
			"bufferView":7,
			"componentType":5123,
			"count":174,
			"type":"SCALAR"
		},
		{
			"bufferView":8,
			"componentType":5126,
			"count":1948,
			"max":[
				-2.156644344329834,
				1.3165624141693115,
				1.8329885005950928
			],
			"min":[
				-2.281745433807373,
				0.4390406310558319,
				-0.4710427522659302
			],
			"type":"VEC3"
		},
		{
			"bufferView":9,
			"componentType":5126,
			"count":1948,
			"type":"VEC3"
		},
		{
			"bufferView":10,
			"componentType":5126,
			"count":1948,
			"type":"VEC2"
		},
		{
			"bufferView":11,
			"componentType":5123,
			"count":3348,
			"type":"SCALAR"
		}
	],
	"bufferViews":[
		{
			"buffer":0,
			"byteLength":768,
			"byteOffset":0,
			"target":34962
		},
		{
			"buffer":0,
			"byteLength":768,
			"byteOffset":768,
			"target":34962
		},
		{
			"buffer":0,
			"byteLength":512,
			"byteOffset":1536,
			"target":34962
		},
		{
			"buffer":0,
			"byteLength":228,
			"byteOffset":2048,
			"target":34963
		},
		{
			"buffer":0,
			"byteLength":1392,
			"byteOffset":2276,
			"target":34962
		},
		{
			"buffer":0,
			"byteLength":1392,
			"byteOffset":3668,
			"target":34962
		},
		{
			"buffer":0,
			"byteLength":928,
			"byteOffset":5060,
			"target":34962
		},
		{
			"buffer":0,
			"byteLength":348,
			"byteOffset":5988,
			"target":34963
		},
		{
			"buffer":0,
			"byteLength":23376,
			"byteOffset":6336,
			"target":34962
		},
		{
			"buffer":0,
			"byteLength":23376,
			"byteOffset":29712,
			"target":34962
		},
		{
			"buffer":0,
			"byteLength":15584,
			"byteOffset":53088,
			"target":34962
		},
		{
			"buffer":0,
			"byteLength":6696,
			"byteOffset":68672,
			"target":34963
		}
	],
	"buffers":[
		{
			"byteLength":75368,
			"uri":"kitchin_stand_drawer.bin"
		}
	]
}
