{
	"asset":{
		"generator":"Khronos glTF Blender I/O v4.2.70",
		"version":"2.0"
	},
	"scene":0,
	"scenes":[
		{
			"name":"Scene",
			"nodes":[
				0,
				1,
				2
			]
		}
	],
	"nodes":[
		{
			"mesh":0,
			"name":"Cube.025"
		},
		{
			"mesh":1,
			"name":"tapetteamouche.001"
		},
		{
			"mesh":2,
			"name":"Cube.026"
		}
	],
	"materials":[
		{
			"doubleSided":true,
			"name":"fer.003",
			"pbrMetallicRoughness":{
				"metallicFactor":0
			}
		}
	],
	"meshes":[
		{
			"name":"Cube.012",
			"primitives":[
				{
					"attributes":{
						"POSITION":0,
						"NORMAL":1,
						"TEXCOORD_0":2
					},
					"indices":3,
					"material":0
				}
			]
		},
		{
			"name":"Cube.013",
			"primitives":[
				{
					"attributes":{
						"POSITION":4,
						"NORMAL":5,
						"TEXCOORD_0":6
					},
					"indices":7,
					"material":0
				}
			]
		},
		{
			"name":"Cube.017",
			"primitives":[
				{
					"attributes":{
						"POSITION":8,
						"NORMAL":9,
						"TEXCOORD_0":10
					},
					"indices":11,
					"material":0
				}
			]
		}
	],
	"accessors":[
		{
			"bufferView":0,
			"componentType":5126,
			"count":1618,
			"max":[
				0.18835598230361938,
				1.2204995155334473,
				1.2520910501480103
			],
			"min":[
				-0.28500092029571533,
				1.0023305416107178,
				-1.3715578317642212
			],
			"type":"VEC3"
		},
		{
			"bufferView":1,
			"componentType":5126,
			"count":1618,
			"type":"VEC3"
		},
		{
			"bufferView":2,
			"componentType":5126,
			"count":1618,
			"type":"VEC2"
		},
		{
			"bufferView":3,
			"componentType":5123,
			"count":3252,
			"type":"SCALAR"
		},
		{
			"bufferView":4,
			"componentType":5126,
			"count":4167,
			"max":[
				0.07827992737293243,
				1.1597787141799927,
				0.3703615367412567
			],
			"min":[
				0.037636324763298035,
				-0.998201847076416,
				0.09502962231636047
			],
			"type":"VEC3"
		},
		{
			"bufferView":5,
			"componentType":5126,
			"count":4167,
			"type":"VEC3"
		},
		{
			"bufferView":6,
			"componentType":5126,
			"count":4167,
			"type":"VEC2"
		},
		{
			"bufferView":7,
			"componentType":5123,
			"count":7836,
			"type":"SCALAR"
		},
		{
			"bufferView":8,
			"componentType":5126,
			"count":526,
			"max":[
				0.04080434888601303,
				1.1473026275634766,
				-0.5857901573181152
			],
			"min":[
				0.006725652143359184,
				-0.9244235754013062,
				-1.284012794494629
			],
			"type":"VEC3"
		},
		{
			"bufferView":9,
			"componentType":5126,
			"count":526,
			"type":"VEC3"
		},
		{
			"bufferView":10,
			"componentType":5126,
			"count":526,
			"type":"VEC2"
		},
		{
			"bufferView":11,
			"componentType":5123,
			"count":912,
			"type":"SCALAR"
		}
	],
	"bufferViews":[
		{
			"buffer":0,
			"byteLength":19416,
			"byteOffset":0,
			"target":34962
		},
		{
			"buffer":0,
			"byteLength":19416,
			"byteOffset":19416,
			"target":34962
		},
		{
			"buffer":0,
			"byteLength":12944,
			"byteOffset":38832,
			"target":34962
		},
		{
			"buffer":0,
			"byteLength":6504,
			"byteOffset":51776,
			"target":34963
		},
		{
			"buffer":0,
			"byteLength":50004,
			"byteOffset":58280,
			"target":34962
		},
		{
			"buffer":0,
			"byteLength":50004,
			"byteOffset":108284,
			"target":34962
		},
		{
			"buffer":0,
			"byteLength":33336,
			"byteOffset":158288,
			"target":34962
		},
		{
			"buffer":0,
			"byteLength":15672,
			"byteOffset":191624,
			"target":34963
		},
		{
			"buffer":0,
			"byteLength":6312,
			"byteOffset":207296,
			"target":34962
		},
		{
			"buffer":0,
			"byteLength":6312,
			"byteOffset":213608,
			"target":34962
		},
		{
			"buffer":0,
			"byteLength":4208,
			"byteOffset":219920,
			"target":34962
		},
		{
			"buffer":0,
			"byteLength":1824,
			"byteOffset":224128,
			"target":34963
		}
	],
	"buffers":[
		{
			"byteLength":225952,
			"uri":"kitchin_tool_hooks.bin"
		}
	]
}
