{
	"asset":{
		"generator":"Khronos glTF Blender I/O v4.2.70",
		"version":"2.0"
	},
	"scene":0,
	"scenes":[
		{
			"name":"Scene",
			"nodes":[
				0
			]
		}
	],
	"nodes":[
		{
			"mesh":0,
			"name":"Cube.005"
		}
	],
	"materials":[
		{
			"doubleSided":true,
			"name":"bois.001",
			"pbrMetallicRoughness":{
				"baseColorFactor":[
					0.34238171577453613,
					0.04446021467447281,
					0,
					1
				],
				"metallicFactor":0
			}
		},
		{
			"doubleSided":true,
			"name":"noircarreaux.001",
			"pbrMetallicRoughness":{
				"baseColorFactor":[
					0,
					0,
					0,
					1
				],
				"metallicFactor":0,
				"roughnessFactor":0.20000000298023224
			}
		}
	],
	"meshes":[
		{
			"name":"Cube.001",
			"primitives":[
				{
					"attributes":{
						"POSITION":0,
						"NORMAL":1,
						"TEXCOORD_0":2
					},
					"indices":3,
					"material":0
				},
				{
					"attributes":{
						"POSITION":4,
						"NORMAL":5,
						"TEXCOORD_0":6
					},
					"indices":7,
					"material":1
				}
			]
		}
	],
	"accessors":[
		{
			"bufferView":0,
			"componentType":5126,
			"count":99,
			"max":[
				1.0000014305114746,
				2.221193313598633,
				4.115479946136475
			],
			"min":[
				-5.731562614440918,
				1.7380142211914062,
				-2.523369789123535
			],
			"type":"VEC3"
		},
		{
			"bufferView":1,
			"componentType":5126,
			"count":99,
			"type":"VEC3"
		},
		{
			"bufferView":2,
			"componentType":5126,
			"count":99,
			"type":"VEC2"
		},
		{
			"bufferView":3,
			"componentType":5123,
			"count":162,
			"type":"SCALAR"
		},
		{
			"bufferView":4,
			"componentType":5126,
			"count":36,
			"max":[
				1.0000014305114746,
				1.7380142211914062,
				4.115479946136475
			],
			"min":[
				-5.731562614440918,
				-1,
				-2.523369789123535
			],
			"type":"VEC3"
		},
		{
			"bufferView":5,
			"componentType":5126,
			"count":36,
			"type":"VEC3"
		},
		{
			"bufferView":6,
			"componentType":5126,
			"count":36,
			"type":"VEC2"
		},
		{
			"bufferView":7,
			"componentType":5123,
			"count":66,
			"type":"SCALAR"
		}
	],
	"bufferViews":[
		{
			"buffer":0,
			"byteLength":1188,
			"byteOffset":0,
			"target":34962
		},
		{
			"buffer":0,
			"byteLength":1188,
			"byteOffset":1188,
			"target":34962
		},
		{
			"buffer":0,
			"byteLength":792,
			"byteOffset":2376,
			"target":34962
		},
		{
			"buffer":0,
			"byteLength":324,
			"byteOffset":3168,
			"target":34963
		},
		{
			"buffer":0,
			"byteLength":432,
			"byteOffset":3492,
			"target":34962
		},
		{
			"buffer":0,
			"byteLength":432,
			"byteOffset":3924,
			"target":34962
		},
		{
			"buffer":0,
			"byteLength":288,
			"byteOffset":4356,
			"target":34962
		},
		{
			"buffer":0,
			"byteLength":132,
			"byteOffset":4644,
			"target":34963
		}
	],
	"buffers":[
		{
			"byteLength":4776,
			"uri":"kitchin_stand_corner2.bin"
		}
	]
}
