{
	"asset":{
		"generator":"Khronos glTF Blender I/O v4.1.62",
		"version":"2.0"
	},
	"scene":0,
	"scenes":[
		{
			"name":"Scene",
			"nodes":[
				0
			]
		}
	],
	"nodes":[
		{
			"mesh":0,
			"name":"Knife Block"
		}
	],
	"materials":[
		{
			"doubleSided":true,
			"name":"Brown 2.008",
			"pbrMetallicRoughness":{
				"baseColorFactor":[
					0.5521917343139648,
					0.23758356273174286,
					0.10646744072437286,
					1
				],
				"metallicFactor":0,
				"roughnessFactor":0.5
			}
		}
	],
	"meshes":[
		{
			"name":"Cube.046",
			"primitives":[
				{
					"attributes":{
						"POSITION":0,
						"NORMAL":1,
						"TEXCOORD_0":2
					},
					"indices":3,
					"material":0
				}
			]
		}
	],
	"accessors":[
		{
			"bufferView":0,
			"componentType":5126,
			"count":304,
			"max":[
				0.40753766894340515,
				0.8845639824867249,
				0.9127036929130554
			],
			"min":[
				-0.40753766894340515,
				-0.9127036929130554,
				-0.9218381643295288
			],
			"type":"VEC3"
		},
		{
			"bufferView":1,
			"componentType":5126,
			"count":304,
			"type":"VEC3"
		},
		{
			"bufferView":2,
			"componentType":5126,
			"count":304,
			"type":"VEC2"
		},
		{
			"bufferView":3,
			"componentType":5123,
			"count":564,
			"type":"SCALAR"
		}
	],
	"bufferViews":[
		{
			"buffer":0,
			"byteLength":3648,
			"byteOffset":0,
			"target":34962
		},
		{
			"buffer":0,
			"byteLength":3648,
			"byteOffset":3648,
			"target":34962
		},
		{
			"buffer":0,
			"byteLength":2432,
			"byteOffset":7296,
			"target":34962
		},
		{
			"buffer":0,
			"byteLength":1128,
			"byteOffset":9728,
			"target":34963
		}
	],
	"buffers":[
		{
			"byteLength":10856,
			"uri":"knife_Block.bin"
		}
	]
}
