{
	"asset":{
		"generator":"Khronos glTF Blender I/O v4.2.70",
		"version":"2.0"
	},
	"scene":0,
	"scenes":[
		{
			"name":"Scene",
			"nodes":[
				0,
				1
			]
		}
	],
	"nodes":[
		{
			"mesh":0,
			"name":"Microwave"
		},
		{
			"mesh":1,
			"name":"Microwave.001"
		}
	],
	"materials":[
		{
			"doubleSided":true,
			"name":"Grey.037",
			"pbrMetallicRoughness":{
				"baseColorFactor":[
					0.2600274980068207,
					0.2600274980068207,
					0.2600274980068207,
					1
				],
				"metallicFactor":0
			}
		},
		{
			"doubleSided":true,
			"name":"Grey 2.045",
			"pbrMetallicRoughness":{
				"baseColorFactor":[
					0.08696522563695908,
					0.08696522563695908,
					0.08696522563695908,
					1
				],
				"metallicFactor":0,
				"roughnessFactor":0.5
			}
		},
		{
			"doubleSided":true,
			"name":"Blue 2.020",
			"pbrMetallicRoughness":{
				"baseColorFactor":[
					0.04154860973358154,
					0.23032249510288239,
					0.23441897332668304,
					1
				],
				"metallicFactor":0,
				"roughnessFactor":0.5
			}
		}
	],
	"meshes":[
		{
			"name":"Cube.049",
			"primitives":[
				{
					"attributes":{
						"POSITION":0,
						"NORMAL":1,
						"TEXCOORD_0":2
					},
					"indices":3,
					"material":0
				},
				{
					"attributes":{
						"POSITION":4,
						"NORMAL":5,
						"TEXCOORD_0":6
					},
					"indices":7,
					"material":1
				}
			]
		},
		{
			"name":"Cube.050",
			"primitives":[
				{
					"attributes":{
						"POSITION":8,
						"NORMAL":9,
						"TEXCOORD_0":10
					},
					"indices":11,
					"material":0
				},
				{
					"attributes":{
						"POSITION":12,
						"NORMAL":13,
						"TEXCOORD_0":14
					},
					"indices":15,
					"material":2
				},
				{
					"attributes":{
						"POSITION":16,
						"NORMAL":17,
						"TEXCOORD_0":18
					},
					"indices":19,
					"material":1
				}
			]
		}
	],
	"accessors":[
		{
			"bufferView":0,
			"componentType":5126,
			"count":349,
			"max":[
				2.0415332317352295,
				1.004659652709961,
				1.4551737308502197
			],
			"min":[
				-1.7353885173797607,
				-0.9172767400741577,
				-0.5381339192390442
			],
			"type":"VEC3"
		},
		{
			"bufferView":1,
			"componentType":5126,
			"count":349,
			"type":"VEC3"
		},
		{
			"bufferView":2,
			"componentType":5126,
			"count":349,
			"type":"VEC2"
		},
		{
			"bufferView":3,
			"componentType":5123,
			"count":576,
			"type":"SCALAR"
		},
		{
			"bufferView":4,
			"componentType":5126,
			"count":88,
			"max":[
				1.074212670326233,
				0.8403859734535217,
				0.8940370678901672
			],
			"min":[
				-1.5568982362747192,
				-0.7865483164787292,
				-0.5381339192390442
			],
			"type":"VEC3"
		},
		{
			"bufferView":5,
			"componentType":5126,
			"count":88,
			"type":"VEC3"
		},
		{
			"bufferView":6,
			"componentType":5126,
			"count":88,
			"type":"VEC2"
		},
		{
			"bufferView":7,
			"componentType":5123,
			"count":144,
			"type":"SCALAR"
		},
		{
			"bufferView":8,
			"componentType":5126,
			"count":122,
			"max":[
				2.0415329933166504,
				1.004659652709961,
				-0.306022584438324
			],
			"min":[
				-0.9369559288024902,
				-0.9172767400741577,
				-0.4667629301548004
			],
			"type":"VEC3"
		},
		{
			"bufferView":9,
			"componentType":5126,
			"count":122,
			"type":"VEC3"
		},
		{
			"bufferView":10,
			"componentType":5126,
			"count":122,
			"type":"VEC2"
		},
		{
			"bufferView":11,
			"componentType":5123,
			"count":234,
			"type":"SCALAR"
		},
		{
			"bufferView":12,
			"componentType":5126,
			"count":8,
			"max":[
				1.5323877334594727,
				0.5556559562683105,
				-0.34731414914131165
			],
			"min":[
				-0.46165046095848083,
				-0.4682730436325073,
				-0.3661200702190399
			],
			"type":"VEC3"
		},
		{
			"bufferView":13,
			"componentType":5126,
			"count":8,
			"type":"VEC3"
		},
		{
			"bufferView":14,
			"componentType":5126,
			"count":8,
			"type":"VEC2"
		},
		{
			"bufferView":15,
			"componentType":5123,
			"count":12,
			"type":"SCALAR"
		},
		{
			"bufferView":16,
			"componentType":5126,
			"count":20,
			"max":[
				-0.5666038990020752,
				0.6399500966072083,
				-0.4667626917362213
			],
			"min":[
				-0.7836385369300842,
				-0.5525671243667603,
				-0.6345938444137573
			],
			"type":"VEC3"
		},
		{
			"bufferView":17,
			"componentType":5126,
			"count":20,
			"type":"VEC3"
		},
		{
			"bufferView":18,
			"componentType":5126,
			"count":20,
			"type":"VEC2"
		},
		{
			"bufferView":19,
			"componentType":5123,
			"count":30,
			"type":"SCALAR"
		}
	],
	"bufferViews":[
		{
			"buffer":0,
			"byteLength":4188,
			"byteOffset":0,
			"target":34962
		},
		{
			"buffer":0,
			"byteLength":4188,
			"byteOffset":4188,
			"target":34962
		},
		{
			"buffer":0,
			"byteLength":2792,
			"byteOffset":8376,
			"target":34962
		},
		{
			"buffer":0,
			"byteLength":1152,
			"byteOffset":11168,
			"target":34963
		},
		{
			"buffer":0,
			"byteLength":1056,
			"byteOffset":12320,
			"target":34962
		},
		{
			"buffer":0,
			"byteLength":1056,
			"byteOffset":13376,
			"target":34962
		},
		{
			"buffer":0,
			"byteLength":704,
			"byteOffset":14432,
			"target":34962
		},
		{
			"buffer":0,
			"byteLength":288,
			"byteOffset":15136,
			"target":34963
		},
		{
			"buffer":0,
			"byteLength":1464,
			"byteOffset":15424,
			"target":34962
		},
		{
			"buffer":0,
			"byteLength":1464,
			"byteOffset":16888,
			"target":34962
		},
		{
			"buffer":0,
			"byteLength":976,
			"byteOffset":18352,
			"target":34962
		},
		{
			"buffer":0,
			"byteLength":468,
			"byteOffset":19328,
			"target":34963
		},
		{
			"buffer":0,
			"byteLength":96,
			"byteOffset":19796,
			"target":34962
		},
		{
			"buffer":0,
			"byteLength":96,
			"byteOffset":19892,
			"target":34962
		},
		{
			"buffer":0,
			"byteLength":64,
			"byteOffset":19988,
			"target":34962
		},
		{
			"buffer":0,
			"byteLength":24,
			"byteOffset":20052,
			"target":34963
		},
		{
			"buffer":0,
			"byteLength":240,
			"byteOffset":20076,
			"target":34962
		},
		{
			"buffer":0,
			"byteLength":240,
			"byteOffset":20316,
			"target":34962
		},
		{
			"buffer":0,
			"byteLength":160,
			"byteOffset":20556,
			"target":34962
		},
		{
			"buffer":0,
			"byteLength":60,
			"byteOffset":20716,
			"target":34963
		}
	],
	"buffers":[
		{
			"byteLength":20776,
			"uri":"microwaver.bin"
		}
	]
}
