{
	"asset":{
		"generator":"Khronos glTF Blender I/O v4.1.62",
		"version":"2.0"
	},
	"scene":0,
	"scenes":[
		{
			"name":"Scene",
			"nodes":[
				0,
				1
			]
		}
	],
	"nodes":[
		{
			"mesh":0,
			"name":"Oven"
		},
		{
			"mesh":1,
			"name":"Oven.001",
			"translation":[
				0.0007366444915533066,
				-3.3647358417510986,
				1.1444951295852661
			]
		}
	],
	"materials":[
		{
			"doubleSided":true,
			"name":"White.046",
			"pbrMetallicRoughness":{
				"baseColorFactor":[
					0.6353368163108826,
					0.6353368163108826,
					0.6353368163108826,
					1
				],
				"metallicFactor":0,
				"roughnessFactor":0.5
			}
		},
		{
			"doubleSided":true,
			"name":"Red.006",
			"pbrMetallicRoughness":{
				"baseColorFactor":[
					0.34115174412727356,
					0.026578301563858986,
					0.013850972056388855,
					1
				],
				"metallicFactor":0,
				"roughnessFactor":0.5
			}
		},
		{
			"doubleSided":true,
			"name":"Grey 2.046",
			"pbrMetallicRoughness":{
				"baseColorFactor":[
					0.08696522563695908,
					0.08696522563695908,
					0.08696522563695908,
					1
				],
				"metallicFactor":0,
				"roughnessFactor":0.5
			}
		},
		{
			"doubleSided":true,
			"name":"Grey.038",
			"pbrMetallicRoughness":{
				"baseColorFactor":[
					0.2600274980068207,
					0.2600274980068207,
					0.2600274980068207,
					1
				],
				"metallicFactor":0,
				"roughnessFactor":0.5
			}
		},
		{
			"doubleSided":true,
			"name":"Blue 2.021",
			"pbrMetallicRoughness":{
				"baseColorFactor":[
					0.04154860973358154,
					0.23032249510288239,
					0.23441897332668304,
					1
				],
				"metallicFactor":0,
				"roughnessFactor":0.5
			}
		}
	],
	"meshes":[
		{
			"name":"Cube.053",
			"primitives":[
				{
					"attributes":{
						"POSITION":0,
						"NORMAL":1,
						"TEXCOORD_0":2
					},
					"indices":3,
					"material":0
				},
				{
					"attributes":{
						"POSITION":4,
						"NORMAL":5,
						"TEXCOORD_0":6
					},
					"indices":7,
					"material":1
				},
				{
					"attributes":{
						"POSITION":8,
						"NORMAL":9,
						"TEXCOORD_0":10
					},
					"indices":11,
					"material":2
				},
				{
					"attributes":{
						"POSITION":12,
						"NORMAL":13,
						"TEXCOORD_0":14
					},
					"indices":15,
					"material":3
				}
			]
		},
		{
			"name":"Cube.054",
			"primitives":[
				{
					"attributes":{
						"POSITION":16,
						"NORMAL":17,
						"TEXCOORD_0":18
					},
					"indices":19,
					"material":4
				},
				{
					"attributes":{
						"POSITION":20,
						"NORMAL":21,
						"TEXCOORD_0":22
					},
					"indices":23,
					"material":3
				}
			]
		}
	],
	"accessors":[
		{
			"bufferView":0,
			"componentType":5126,
			"count":106,
			"max":[
				1.7904397249221802,
				0.6348427534103394,
				0.9352886080741882
			],
			"min":[
				-1.8067017793655396,
				-3.737757444381714,
				-2.1150412559509277
			],
			"type":"VEC3"
		},
		{
			"bufferView":1,
			"componentType":5126,
			"count":106,
			"type":"VEC3"
		},
		{
			"bufferView":2,
			"componentType":5126,
			"count":106,
			"type":"VEC2"
		},
		{
			"bufferView":3,
			"componentType":5123,
			"count":174,
			"type":"SCALAR"
		},
		{
			"bufferView":4,
			"componentType":5126,
			"count":1144,
			"max":[
				1.4216704368591309,
				0.7829629182815552,
				0.5238299369812012
			],
			"min":[
				-1.408923864364624,
				0.6563748121261597,
				-1.6982622146606445
			],
			"type":"VEC3"
		},
		{
			"bufferView":5,
			"componentType":5126,
			"count":1144,
			"type":"VEC3"
		},
		{
			"bufferView":6,
			"componentType":5126,
			"count":1144,
			"type":"VEC2"
		},
		{
			"bufferView":7,
			"componentType":5123,
			"count":2256,
			"type":"SCALAR"
		},
		{
			"bufferView":8,
			"componentType":5126,
			"count":90,
			"max":[
				1.5529143810272217,
				0.7190731763839722,
				1.0765111446380615
			],
			"min":[
				-1.569176435470581,
				-3.428015947341919,
				-1.790893793106079
			],
			"type":"VEC3"
		},
		{
			"bufferView":9,
			"componentType":5126,
			"count":90,
			"type":"VEC3"
		},
		{
			"bufferView":10,
			"componentType":5126,
			"count":90,
			"type":"VEC2"
		},
		{
			"bufferView":11,
			"componentType":5123,
			"count":138,
			"type":"SCALAR"
		},
		{
			"bufferView":12,
			"componentType":5126,
			"count":644,
			"max":[
				1.5529143810272217,
				0.2591930627822876,
				1.1775968074798584
			],
			"min":[
				-1.569176435470581,
				-2.4990060329437256,
				-0.8206078410148621
			],
			"type":"VEC3"
		},
		{
			"bufferView":13,
			"componentType":5126,
			"count":644,
			"type":"VEC3"
		},
		{
			"bufferView":14,
			"componentType":5126,
			"count":644,
			"type":"VEC2"
		},
		{
			"bufferView":15,
			"componentType":5123,
			"count":972,
			"type":"SCALAR"
		},
		{
			"bufferView":16,
			"componentType":5126,
			"count":16,
			"max":[
				1.4392714500427246,
				2.7921361923217773,
				-0.06673312187194824
			],
			"min":[
				-1.4617599248886108,
				0.06634879112243652,
				-0.15553396940231323
			],
			"type":"VEC3"
		},
		{
			"bufferView":17,
			"componentType":5126,
			"count":16,
			"type":"VEC3"
		},
		{
			"bufferView":18,
			"componentType":5126,
			"count":16,
			"type":"VEC2"
		},
		{
			"bufferView":19,
			"componentType":5123,
			"count":24,
			"type":"SCALAR"
		},
		{
			"bufferView":20,
			"componentType":5126,
			"count":250,
			"max":[
				1.6044138669967651,
				3.18459153175354,
				0.11085939407348633
			],
			"min":[
				-1.6269023418426514,
				-0.06327986717224121,
				-0.20920652151107788
			],
			"type":"VEC3"
		},
		{
			"bufferView":21,
			"componentType":5126,
			"count":250,
			"type":"VEC3"
		},
		{
			"bufferView":22,
			"componentType":5126,
			"count":250,
			"type":"VEC2"
		},
		{
			"bufferView":23,
			"componentType":5123,
			"count":480,
			"type":"SCALAR"
		}
	],
	"bufferViews":[
		{
			"buffer":0,
			"byteLength":1272,
			"byteOffset":0,
			"target":34962
		},
		{
			"buffer":0,
			"byteLength":1272,
			"byteOffset":1272,
			"target":34962
		},
		{
			"buffer":0,
			"byteLength":848,
			"byteOffset":2544,
			"target":34962
		},
		{
			"buffer":0,
			"byteLength":348,
			"byteOffset":3392,
			"target":34963
		},
		{
			"buffer":0,
			"byteLength":13728,
			"byteOffset":3740,
			"target":34962
		},
		{
			"buffer":0,
			"byteLength":13728,
			"byteOffset":17468,
			"target":34962
		},
		{
			"buffer":0,
			"byteLength":9152,
			"byteOffset":31196,
			"target":34962
		},
		{
			"buffer":0,
			"byteLength":4512,
			"byteOffset":40348,
			"target":34963
		},
		{
			"buffer":0,
			"byteLength":1080,
			"byteOffset":44860,
			"target":34962
		},
		{
			"buffer":0,
			"byteLength":1080,
			"byteOffset":45940,
			"target":34962
		},
		{
			"buffer":0,
			"byteLength":720,
			"byteOffset":47020,
			"target":34962
		},
		{
			"buffer":0,
			"byteLength":276,
			"byteOffset":47740,
			"target":34963
		},
		{
			"buffer":0,
			"byteLength":7728,
			"byteOffset":48016,
			"target":34962
		},
		{
			"buffer":0,
			"byteLength":7728,
			"byteOffset":55744,
			"target":34962
		},
		{
			"buffer":0,
			"byteLength":5152,
			"byteOffset":63472,
			"target":34962
		},
		{
			"buffer":0,
			"byteLength":1944,
			"byteOffset":68624,
			"target":34963
		},
		{
			"buffer":0,
			"byteLength":192,
			"byteOffset":70568,
			"target":34962
		},
		{
			"buffer":0,
			"byteLength":192,
			"byteOffset":70760,
			"target":34962
		},
		{
			"buffer":0,
			"byteLength":128,
			"byteOffset":70952,
			"target":34962
		},
		{
			"buffer":0,
			"byteLength":48,
			"byteOffset":71080,
			"target":34963
		},
		{
			"buffer":0,
			"byteLength":3000,
			"byteOffset":71128,
			"target":34962
		},
		{
			"buffer":0,
			"byteLength":3000,
			"byteOffset":74128,
			"target":34962
		},
		{
			"buffer":0,
			"byteLength":2000,
			"byteOffset":77128,
			"target":34962
		},
		{
			"buffer":0,
			"byteLength":960,
			"byteOffset":79128,
			"target":34963
		}
	],
	"buffers":[
		{
			"byteLength":80088,
			"uri":"oven.bin"
		}
	]
}
