{
	"asset":{
		"generator":"Khronos glTF Blender I/O v4.1.62",
		"version":"2.0"
	},
	"scene":0,
	"scenes":[
		{
			"name":"Scene",
			"nodes":[
				0,
				1,
				2,
				3
			]
		}
	],
	"nodes":[
		{
			"mesh":0,
			"name":"bocal.003",
			"scale":[
				2.847245693206787,
				2.847245693206787,
				2.847245693206787
			],
			"translation":[
				0.196044921875,
				-0.4593231678009033,
				1.9524848461151123
			]
		},
		{
			"mesh":1,
			"name":"bocal.004",
			"scale":[
				2.847245693206787,
				2.847245693206787,
				2.847245693206787
			],
			"translation":[
				0.196044921875,
				-0.4593231678009033,
				1.3145663738250732
			]
		},
		{
			"mesh":2,
			"name":"bocal.005",
			"scale":[
				2.847245693206787,
				2.847245693206787,
				2.847245693206787
			],
			"translation":[
				0.196044921875,
				-0.4593231678009033,
				0.6068294048309326
			]
		},
		{
			"mesh":3,
			"name":"\u00e9tag\u00e8re.001",
			"translation":[
				0.03717231750488281,
				-0.9498722553253174,
				-0.19463658332824707
			]
		}
	],
	"materials":[
		{
			"doubleSided":true,
			"name":"rougeverre.001",
			"pbrMetallicRoughness":{
				"baseColorFactor":[
					1,
					0,
					0,
					1
				],
				"metallicFactor":0,
				"roughnessFactor":0
			}
		},
		{
			"doubleSided":true,
			"name":"jaune.001",
			"pbrMetallicRoughness":{
				"baseColorFactor":[
					0.8000000715255737,
					0.5871936082839966,
					0,
					1
				],
				"metallicFactor":0,
				"roughnessFactor":0
			}
		},
		{
			"doubleSided":true,
			"name":"vertverre.001",
			"pbrMetallicRoughness":{
				"baseColorFactor":[
					0.011754038743674755,
					0.8000000715255737,
					0,
					1
				],
				"metallicFactor":0,
				"roughnessFactor":0
			}
		},
		{
			"doubleSided":true,
			"name":"bleuverre.001",
			"pbrMetallicRoughness":{
				"baseColorFactor":[
					0,
					0.2114228755235672,
					0.8000000715255737,
					1
				],
				"metallicFactor":0,
				"roughnessFactor":0
			}
		},
		{
			"doubleSided":true,
			"name":"bois.001",
			"pbrMetallicRoughness":{
				"baseColorFactor":[
					0.34238171577453613,
					0.04446021467447281,
					0,
					1
				],
				"metallicFactor":0,
				"roughnessFactor":0.5
			}
		}
	],
	"meshes":[
		{
			"name":"Cylinder.014",
			"primitives":[
				{
					"attributes":{
						"POSITION":0,
						"NORMAL":1,
						"TEXCOORD_0":2
					},
					"indices":3,
					"material":0
				},
				{
					"attributes":{
						"POSITION":4,
						"NORMAL":5,
						"TEXCOORD_0":6
					},
					"indices":7,
					"material":1
				}
			]
		},
		{
			"name":"Cylinder.015",
			"primitives":[
				{
					"attributes":{
						"POSITION":8,
						"NORMAL":9,
						"TEXCOORD_0":10
					},
					"indices":7,
					"material":1
				},
				{
					"attributes":{
						"POSITION":11,
						"NORMAL":12,
						"TEXCOORD_0":13
					},
					"indices":3,
					"material":2
				}
			]
		},
		{
			"name":"Cylinder.016",
			"primitives":[
				{
					"attributes":{
						"POSITION":14,
						"NORMAL":15,
						"TEXCOORD_0":16
					},
					"indices":7,
					"material":1
				},
				{
					"attributes":{
						"POSITION":17,
						"NORMAL":18,
						"TEXCOORD_0":19
					},
					"indices":3,
					"material":3
				}
			]
		},
		{
			"name":"Cube.022",
			"primitives":[
				{
					"attributes":{
						"POSITION":20,
						"NORMAL":21,
						"TEXCOORD_0":22
					},
					"indices":23,
					"material":4
				}
			]
		}
	],
	"accessors":[
		{
			"bufferView":0,
			"componentType":5126,
			"count":768,
			"max":[
				0.08000001311302185,
				0.017215069383382797,
				0.08000001311302185
			],
			"min":[
				-0.08000001311302185,
				-0.1324882060289383,
				-0.08000001311302185
			],
			"type":"VEC3"
		},
		{
			"bufferView":1,
			"componentType":5126,
			"count":768,
			"type":"VEC3"
		},
		{
			"bufferView":2,
			"componentType":5126,
			"count":768,
			"type":"VEC2"
		},
		{
			"bufferView":3,
			"componentType":5123,
			"count":1332,
			"type":"SCALAR"
		},
		{
			"bufferView":4,
			"componentType":5126,
			"count":384,
			"max":[
				0.07971767336130142,
				0.025871455669403076,
				0.07971767336130142
			],
			"min":[
				-0.07971767336130142,
				0.017215069383382797,
				-0.07971767336130142
			],
			"type":"VEC3"
		},
		{
			"bufferView":5,
			"componentType":5126,
			"count":384,
			"type":"VEC3"
		},
		{
			"bufferView":6,
			"componentType":5126,
			"count":384,
			"type":"VEC2"
		},
		{
			"bufferView":7,
			"componentType":5123,
			"count":756,
			"type":"SCALAR"
		},
		{
			"bufferView":8,
			"componentType":5126,
			"count":384,
			"max":[
				0.07971767336130142,
				0.025871455669403076,
				0.07971767336130142
			],
			"min":[
				-0.07971767336130142,
				0.017215069383382797,
				-0.07971767336130142
			],
			"type":"VEC3"
		},
		{
			"bufferView":9,
			"componentType":5126,
			"count":384,
			"type":"VEC3"
		},
		{
			"bufferView":10,
			"componentType":5126,
			"count":384,
			"type":"VEC2"
		},
		{
			"bufferView":11,
			"componentType":5126,
			"count":768,
			"max":[
				0.08000001311302185,
				0.017215069383382797,
				0.08000001311302185
			],
			"min":[
				-0.08000001311302185,
				-0.1324882060289383,
				-0.08000001311302185
			],
			"type":"VEC3"
		},
		{
			"bufferView":12,
			"componentType":5126,
			"count":768,
			"type":"VEC3"
		},
		{
			"bufferView":13,
			"componentType":5126,
			"count":768,
			"type":"VEC2"
		},
		{
			"bufferView":14,
			"componentType":5126,
			"count":384,
			"max":[
				0.07971767336130142,
				0.025871455669403076,
				0.07971767336130142
			],
			"min":[
				-0.07971767336130142,
				0.017215069383382797,
				-0.07971767336130142
			],
			"type":"VEC3"
		},
		{
			"bufferView":15,
			"componentType":5126,
			"count":384,
			"type":"VEC3"
		},
		{
			"bufferView":16,
			"componentType":5126,
			"count":384,
			"type":"VEC2"
		},
		{
			"bufferView":17,
			"componentType":5126,
			"count":768,
			"max":[
				0.08000001311302185,
				0.017215069383382797,
				0.08000001311302185
			],
			"min":[
				-0.08000001311302185,
				-0.1324882060289383,
				-0.08000001311302185
			],
			"type":"VEC3"
		},
		{
			"bufferView":18,
			"componentType":5126,
			"count":768,
			"type":"VEC3"
		},
		{
			"bufferView":19,
			"componentType":5126,
			"count":768,
			"type":"VEC2"
		},
		{
			"bufferView":20,
			"componentType":5126,
			"count":216,
			"max":[
				0.577545702457428,
				2.147653818130493,
				3.1014058589935303
			],
			"min":[
				-0.5775456428527832,
				-0.11332297325134277,
				-3.1014058589935303
			],
			"type":"VEC3"
		},
		{
			"bufferView":21,
			"componentType":5126,
			"count":216,
			"type":"VEC3"
		},
		{
			"bufferView":22,
			"componentType":5126,
			"count":216,
			"type":"VEC2"
		},
		{
			"bufferView":23,
			"componentType":5123,
			"count":396,
			"type":"SCALAR"
		}
	],
	"bufferViews":[
		{
			"buffer":0,
			"byteLength":9216,
			"byteOffset":0,
			"target":34962
		},
		{
			"buffer":0,
			"byteLength":9216,
			"byteOffset":9216,
			"target":34962
		},
		{
			"buffer":0,
			"byteLength":6144,
			"byteOffset":18432,
			"target":34962
		},
		{
			"buffer":0,
			"byteLength":2664,
			"byteOffset":24576,
			"target":34963
		},
		{
			"buffer":0,
			"byteLength":4608,
			"byteOffset":27240,
			"target":34962
		},
		{
			"buffer":0,
			"byteLength":4608,
			"byteOffset":31848,
			"target":34962
		},
		{
			"buffer":0,
			"byteLength":3072,
			"byteOffset":36456,
			"target":34962
		},
		{
			"buffer":0,
			"byteLength":1512,
			"byteOffset":39528,
			"target":34963
		},
		{
			"buffer":0,
			"byteLength":4608,
			"byteOffset":41040,
			"target":34962
		},
		{
			"buffer":0,
			"byteLength":4608,
			"byteOffset":45648,
			"target":34962
		},
		{
			"buffer":0,
			"byteLength":3072,
			"byteOffset":50256,
			"target":34962
		},
		{
			"buffer":0,
			"byteLength":9216,
			"byteOffset":53328,
			"target":34962
		},
		{
			"buffer":0,
			"byteLength":9216,
			"byteOffset":62544,
			"target":34962
		},
		{
			"buffer":0,
			"byteLength":6144,
			"byteOffset":71760,
			"target":34962
		},
		{
			"buffer":0,
			"byteLength":4608,
			"byteOffset":77904,
			"target":34962
		},
		{
			"buffer":0,
			"byteLength":4608,
			"byteOffset":82512,
			"target":34962
		},
		{
			"buffer":0,
			"byteLength":3072,
			"byteOffset":87120,
			"target":34962
		},
		{
			"buffer":0,
			"byteLength":9216,
			"byteOffset":90192,
			"target":34962
		},
		{
			"buffer":0,
			"byteLength":9216,
			"byteOffset":99408,
			"target":34962
		},
		{
			"buffer":0,
			"byteLength":6144,
			"byteOffset":108624,
			"target":34962
		},
		{
			"buffer":0,
			"byteLength":2592,
			"byteOffset":114768,
			"target":34962
		},
		{
			"buffer":0,
			"byteLength":2592,
			"byteOffset":117360,
			"target":34962
		},
		{
			"buffer":0,
			"byteLength":1728,
			"byteOffset":119952,
			"target":34962
		},
		{
			"buffer":0,
			"byteLength":792,
			"byteOffset":121680,
			"target":34963
		}
	],
	"buffers":[
		{
			"byteLength":122472,
			"uri":"shelf_wall.bin"
		}
	]
}
