{
	"asset":{
		"generator":"Khronos glTF Blender I/O v4.1.62",
		"version":"2.0"
	},
	"extensionsUsed":[
		"KHR_materials_specular"
	],
	"scene":0,
	"scenes":[
		{
			"name":"Scene",
			"nodes":[
				0,
				1,
				2,
				3,
				4,
				5,
				6
			]
		}
	],
	"nodes":[
		{
			"mesh":0,
			"name":"object1",
			"rotation":[
				0.7071068286895752,
				0,
				0,
				0.7071068286895752
			]
		},
		{
			"mesh":1,
			"name":"object2",
			"rotation":[
				0.7071068286895752,
				0,
				0,
				0.7071068286895752
			]
		},
		{
			"mesh":2,
			"name":"object3",
			"rotation":[
				0.7071068286895752,
				0,
				0,
				0.7071068286895752
			]
		},
		{
			"mesh":3,
			"name":"object4",
			"rotation":[
				0.7071068286895752,
				0,
				0,
				0.7071068286895752
			]
		},
		{
			"mesh":4,
			"name":"object5",
			"rotation":[
				0.7071068286895752,
				0,
				0,
				0.7071068286895752
			]
		},
		{
			"mesh":5,
			"name":"object6",
			"rotation":[
				0.7071068286895752,
				0,
				0,
				0.7071068286895752
			]
		},
		{
			"mesh":6,
			"name":"object7",
			"rotation":[
				0.7071068286895752,
				0,
				0,
				0.7071068286895752
			]
		}
	],
	"materials":[
		{
			"doubleSided":true,
			"extensions":{
				"KHR_materials_specular":{
					"specularColorFactor":[
						2.0,
						2.0,
						2.0
					]
				}
			},
			"name":"Medium_Wood.001",
			"pbrMetallicRoughness":{
				"baseColorFactor":[
					0.6549000144004822,
					0.47450000047683716,
					0.3528999984264374,
					1
				],
				"metallicFactor":0
			}
		},
		{
			"doubleSided":true,
			"extensions":{
				"KHR_materials_specular":{
					"specularColorFactor":[
						2.0,
						2.0,
						2.0
					]
				}
			},
			"name":"Counters",
			"pbrMetallicRoughness":{
				"baseColorFactor":[
					0.47839999198913574,
					0.47839999198913574,
					0.47839999198913574,
					1
				],
				"metallicFactor":0
			}
		},
		{
			"doubleSided":true,
			"extensions":{
				"KHR_materials_specular":{
					"specularColorFactor":[
						2.0,
						2.0,
						2.0
					]
				}
			},
			"name":"Silver.001",
			"pbrMetallicRoughness":{
				"baseColorFactor":[
					0.7922000288963318,
					0.7961000204086304,
					0.7724999785423279,
					1
				],
				"metallicFactor":0
			}
		},
		{
			"doubleSided":true,
			"extensions":{
				"KHR_materials_specular":{
					"specularColorFactor":[
						2.0,
						2.0,
						2.0
					]
				}
			},
			"name":"Dark_Wood.001",
			"pbrMetallicRoughness":{
				"baseColorFactor":[
					0.5098000168800354,
					0.38429999351501465,
					0.29019999504089355,
					1
				],
				"metallicFactor":0
			}
		}
	],
	"meshes":[
		{
			"name":"object1.001",
			"primitives":[
				{
					"attributes":{
						"POSITION":0,
						"NORMAL":1,
						"TEXCOORD_0":2
					},
					"indices":3,
					"material":0
				}
			]
		},
		{
			"name":"object2.001",
			"primitives":[
				{
					"attributes":{
						"POSITION":4,
						"NORMAL":5,
						"TEXCOORD_0":6
					},
					"indices":7,
					"material":1
				}
			]
		},
		{
			"name":"object3.001",
			"primitives":[
				{
					"attributes":{
						"POSITION":8,
						"NORMAL":9,
						"TEXCOORD_0":10
					},
					"indices":11,
					"material":2
				}
			]
		},
		{
			"name":"object4",
			"primitives":[
				{
					"attributes":{
						"POSITION":12,
						"NORMAL":13,
						"TEXCOORD_0":14
					},
					"indices":15,
					"material":0
				}
			]
		},
		{
			"name":"object5",
			"primitives":[
				{
					"attributes":{
						"POSITION":16,
						"NORMAL":17,
						"TEXCOORD_0":18
					},
					"indices":19,
					"material":2
				}
			]
		},
		{
			"name":"object6",
			"primitives":[
				{
					"attributes":{
						"POSITION":20,
						"NORMAL":21,
						"TEXCOORD_0":22
					},
					"indices":23,
					"material":2
				}
			]
		},
		{
			"name":"object7",
			"primitives":[
				{
					"attributes":{
						"POSITION":24,
						"NORMAL":25,
						"TEXCOORD_0":26
					},
					"indices":27,
					"material":0
				},
				{
					"attributes":{
						"POSITION":28,
						"NORMAL":29,
						"TEXCOORD_0":30
					},
					"indices":31,
					"material":3
				}
			]
		}
	],
	"accessors":[
		{
			"bufferView":0,
			"componentType":5126,
			"count":72,
			"max":[
				-0.02500000037252903,
				0.32499998807907104,
				-0.125
			],
			"min":[
				-0.4749999940395355,
				0.30000001192092896,
				-0.675000011920929
			],
			"type":"VEC3"
		},
		{
			"bufferView":1,
			"componentType":5126,
			"count":72,
			"type":"VEC3"
		},
		{
			"bufferView":2,
			"componentType":5126,
			"count":72,
			"type":"VEC2"
		},
		{
			"bufferView":3,
			"componentType":5123,
			"count":132,
			"type":"SCALAR"
		},
		{
			"bufferView":4,
			"componentType":5126,
			"count":88,
			"max":[
				0.5,
				0.3499999940395355,
				-0.949999988079071
			],
			"min":[
				-0.5,
				-0.5,
				-1.149999976158142
			],
			"type":"VEC3"
		},
		{
			"bufferView":5,
			"componentType":5126,
			"count":88,
			"type":"VEC3"
		},
		{
			"bufferView":6,
			"componentType":5126,
			"count":88,
			"type":"VEC2"
		},
		{
			"bufferView":7,
			"componentType":5123,
			"count":192,
			"type":"SCALAR"
		},
		{
			"bufferView":8,
			"componentType":5126,
			"count":240,
			"max":[
				0.07974886894226074,
				0.3531250059604645,
				-0.5
			],
			"min":[
				0.05474887043237686,
				0.32499998807907104,
				-0.6000000238418579
			],
			"type":"VEC3"
		},
		{
			"bufferView":9,
			"componentType":5126,
			"count":240,
			"type":"VEC3"
		},
		{
			"bufferView":10,
			"componentType":5126,
			"count":240,
			"type":"VEC2"
		},
		{
			"bufferView":11,
			"componentType":5123,
			"count":372,
			"type":"SCALAR"
		},
		{
			"bufferView":12,
			"componentType":5126,
			"count":72,
			"max":[
				0.4749999940395355,
				0.32499998807907104,
				-0.125
			],
			"min":[
				0.02500000037252903,
				0.30000001192092896,
				-0.675000011920929
			],
			"type":"VEC3"
		},
		{
			"bufferView":13,
			"componentType":5126,
			"count":72,
			"type":"VEC3"
		},
		{
			"bufferView":14,
			"componentType":5126,
			"count":72,
			"type":"VEC2"
		},
		{
			"bufferView":15,
			"componentType":5123,
			"count":132,
			"type":"SCALAR"
		},
		{
			"bufferView":16,
			"componentType":5126,
			"count":240,
			"max":[
				-0.05474887043237686,
				0.3531250059604645,
				-0.5
			],
			"min":[
				-0.07974886894226074,
				0.32499998807907104,
				-0.6000000238418579
			],
			"type":"VEC3"
		},
		{
			"bufferView":17,
			"componentType":5126,
			"count":240,
			"type":"VEC3"
		},
		{
			"bufferView":18,
			"componentType":5126,
			"count":240,
			"type":"VEC2"
		},
		{
			"bufferView":19,
			"componentType":5123,
			"count":372,
			"type":"SCALAR"
		},
		{
			"bufferView":20,
			"componentType":5126,
			"count":1001,
			"max":[
				0.44999998807907104,
				0.2750000059604645,
				-0.7458333373069763
			],
			"min":[
				-0.44999998807907104,
				-0.30000001192092896,
				-1.1792199611663818
			],
			"type":"VEC3"
		},
		{
			"bufferView":21,
			"componentType":5126,
			"count":1001,
			"type":"VEC3"
		},
		{
			"bufferView":22,
			"componentType":5126,
			"count":1001,
			"type":"VEC2"
		},
		{
			"bufferView":23,
			"componentType":5123,
			"count":1860,
			"type":"SCALAR"
		},
		{
			"bufferView":24,
			"componentType":5126,
			"count":38,
			"max":[
				0.4749999940395355,
				0.32499998807907104,
				-0.7250000238418579
			],
			"min":[
				-0.4749999940395355,
				0.30000001192092896,
				-0.925000011920929
			],
			"type":"VEC3"
		},
		{
			"bufferView":25,
			"componentType":5126,
			"count":38,
			"type":"VEC3"
		},
		{
			"bufferView":26,
			"componentType":5126,
			"count":38,
			"type":"VEC2"
		},
		{
			"bufferView":27,
			"componentType":5123,
			"count":60,
			"type":"SCALAR"
		},
		{
			"bufferView":28,
			"componentType":5126,
			"count":138,
			"max":[
				0.5,
				0.30000001192092896,
				0
			],
			"min":[
				-0.5,
				-0.5,
				-0.949999988079071
			],
			"type":"VEC3"
		},
		{
			"bufferView":29,
			"componentType":5126,
			"count":138,
			"type":"VEC3"
		},
		{
			"bufferView":30,
			"componentType":5126,
			"count":138,
			"type":"VEC2"
		},
		{
			"bufferView":31,
			"componentType":5123,
			"count":312,
			"type":"SCALAR"
		}
	],
	"bufferViews":[
		{
			"buffer":0,
			"byteLength":864,
			"byteOffset":0,
			"target":34962
		},
		{
			"buffer":0,
			"byteLength":864,
			"byteOffset":864,
			"target":34962
		},
		{
			"buffer":0,
			"byteLength":576,
			"byteOffset":1728,
			"target":34962
		},
		{
			"buffer":0,
			"byteLength":264,
			"byteOffset":2304,
			"target":34963
		},
		{
			"buffer":0,
			"byteLength":1056,
			"byteOffset":2568,
			"target":34962
		},
		{
			"buffer":0,
			"byteLength":1056,
			"byteOffset":3624,
			"target":34962
		},
		{
			"buffer":0,
			"byteLength":704,
			"byteOffset":4680,
			"target":34962
		},
		{
			"buffer":0,
			"byteLength":384,
			"byteOffset":5384,
			"target":34963
		},
		{
			"buffer":0,
			"byteLength":2880,
			"byteOffset":5768,
			"target":34962
		},
		{
			"buffer":0,
			"byteLength":2880,
			"byteOffset":8648,
			"target":34962
		},
		{
			"buffer":0,
			"byteLength":1920,
			"byteOffset":11528,
			"target":34962
		},
		{
			"buffer":0,
			"byteLength":744,
			"byteOffset":13448,
			"target":34963
		},
		{
			"buffer":0,
			"byteLength":864,
			"byteOffset":14192,
			"target":34962
		},
		{
			"buffer":0,
			"byteLength":864,
			"byteOffset":15056,
			"target":34962
		},
		{
			"buffer":0,
			"byteLength":576,
			"byteOffset":15920,
			"target":34962
		},
		{
			"buffer":0,
			"byteLength":264,
			"byteOffset":16496,
			"target":34963
		},
		{
			"buffer":0,
			"byteLength":2880,
			"byteOffset":16760,
			"target":34962
		},
		{
			"buffer":0,
			"byteLength":2880,
			"byteOffset":19640,
			"target":34962
		},
		{
			"buffer":0,
			"byteLength":1920,
			"byteOffset":22520,
			"target":34962
		},
		{
			"buffer":0,
			"byteLength":744,
			"byteOffset":24440,
			"target":34963
		},
		{
			"buffer":0,
			"byteLength":12012,
			"byteOffset":25184,
			"target":34962
		},
		{
			"buffer":0,
			"byteLength":12012,
			"byteOffset":37196,
			"target":34962
		},
		{
			"buffer":0,
			"byteLength":8008,
			"byteOffset":49208,
			"target":34962
		},
		{
			"buffer":0,
			"byteLength":3720,
			"byteOffset":57216,
			"target":34963
		},
		{
			"buffer":0,
			"byteLength":456,
			"byteOffset":60936,
			"target":34962
		},
		{
			"buffer":0,
			"byteLength":456,
			"byteOffset":61392,
			"target":34962
		},
		{
			"buffer":0,
			"byteLength":304,
			"byteOffset":61848,
			"target":34962
		},
		{
			"buffer":0,
			"byteLength":120,
			"byteOffset":62152,
			"target":34963
		},
		{
			"buffer":0,
			"byteLength":1656,
			"byteOffset":62272,
			"target":34962
		},
		{
			"buffer":0,
			"byteLength":1656,
			"byteOffset":63928,
			"target":34962
		},
		{
			"buffer":0,
			"byteLength":1104,
			"byteOffset":65584,
			"target":34962
		},
		{
			"buffer":0,
			"byteLength":624,
			"byteOffset":66688,
			"target":34963
		}
	],
	"buffers":[
		{
			"byteLength":67312,
			"uri":"sink_tmp.bin"
		}
	]
}
