{
	"asset":{
		"generator":"Khronos glTF Blender I/O v4.2.70",
		"version":"2.0"
	},
	"scene":0,
	"scenes":[
		{
			"name":"Scene",
			"nodes":[
				0
			]
		}
	],
	"nodes":[
		{
			"mesh":0,
			"name":"sink"
		}
	],
	"materials":[
		{
			"doubleSided":true,
			"name":"noircarreaux.004",
			"pbrMetallicRoughness":{
				"baseColorFactor":[
					0,
					0,
					0,
					1
				],
				"metallicFactor":0
			}
		},
		{
			"doubleSided":true,
			"name":"bois.004",
			"pbrMetallicRoughness":{
				"baseColorFactor":[
					0.34238171577453613,
					0.04446021467447281,
					0,
					1
				],
				"metallicFactor":0,
				"roughnessFactor":0.5
			}
		},
		{
			"doubleSided":true,
			"name":"fer.001",
			"pbrMetallicRoughness":{
				"roughnessFactor":0.20000000298023224
			}
		},
		{
			"doubleSided":true,
			"name":"nwar.001",
			"pbrMetallicRoughness":{
				"baseColorFactor":[
					0,
					0,
					0,
					1
				],
				"metallicFactor":0
			}
		},
		{
			"doubleSided":true,
			"name":"jauneor.001",
			"pbrMetallicRoughness":{
				"baseColorFactor":[
					1,
					0.8471059203147888,
					0,
					1
				],
				"roughnessFactor":0.20000000298023224
			}
		},
		{
			"doubleSided":true,
			"name":"nwar.002",
			"pbrMetallicRoughness":{
				"baseColorFactor":[
					0,
					0,
					0,
					1
				],
				"metallicFactor":0
			}
		},
		{
			"doubleSided":true,
			"name":"fer.002",
			"pbrMetallicRoughness":{
				"roughnessFactor":0.20000000298023224
			}
		}
	],
	"meshes":[
		{
			"name":"Cube.002",
			"primitives":[
				{
					"attributes":{
						"POSITION":0,
						"NORMAL":1,
						"TEXCOORD_0":2
					},
					"indices":3,
					"material":0
				},
				{
					"attributes":{
						"POSITION":4,
						"NORMAL":5,
						"TEXCOORD_0":6
					},
					"indices":7,
					"material":1
				},
				{
					"attributes":{
						"POSITION":8,
						"NORMAL":9,
						"TEXCOORD_0":10
					},
					"indices":11,
					"material":2
				},
				{
					"attributes":{
						"POSITION":12,
						"NORMAL":13,
						"TEXCOORD_0":14
					},
					"indices":15,
					"material":3
				},
				{
					"attributes":{
						"POSITION":16,
						"NORMAL":17,
						"TEXCOORD_0":18
					},
					"indices":19,
					"material":4
				},
				{
					"attributes":{
						"POSITION":20,
						"NORMAL":21,
						"TEXCOORD_0":22
					},
					"indices":23,
					"material":5
				},
				{
					"attributes":{
						"POSITION":24,
						"NORMAL":25,
						"TEXCOORD_0":26
					},
					"indices":27,
					"material":6
				}
			]
		}
	],
	"accessors":[
		{
			"bufferView":0,
			"componentType":5126,
			"count":40,
			"max":[
				1.200000286102295,
				1.7380143404006958,
				2.523369073867798
			],
			"min":[
				-2.1285953521728516,
				-1,
				-1.0000001192092896
			],
			"type":"VEC3"
		},
		{
			"bufferView":1,
			"componentType":5126,
			"count":40,
			"type":"VEC3"
		},
		{
			"bufferView":2,
			"componentType":5126,
			"count":40,
			"type":"VEC2"
		},
		{
			"bufferView":3,
			"componentType":5123,
			"count":60,
			"type":"SCALAR"
		},
		{
			"bufferView":4,
			"componentType":5126,
			"count":72,
			"max":[
				1.200000286102295,
				2.221193313598633,
				2.523369073867798
			],
			"min":[
				-2.48152756690979,
				1.7380143404006958,
				-1.0000001192092896
			],
			"type":"VEC3"
		},
		{
			"bufferView":5,
			"componentType":5126,
			"count":72,
			"type":"VEC3"
		},
		{
			"bufferView":6,
			"componentType":5126,
			"count":72,
			"type":"VEC2"
		},
		{
			"bufferView":7,
			"componentType":5123,
			"count":138,
			"type":"SCALAR"
		},
		{
			"bufferView":8,
			"componentType":5126,
			"count":4863,
			"max":[
				0.5828568339347839,
				2.2738821506500244,
				2.1436691284179688
			],
			"min":[
				-1.7114523649215698,
				1.4916746616363525,
				-0.6202999353408813
			],
			"type":"VEC3"
		},
		{
			"bufferView":9,
			"componentType":5126,
			"count":4863,
			"type":"VEC3"
		},
		{
			"bufferView":10,
			"componentType":5126,
			"count":4863,
			"type":"VEC2"
		},
		{
			"bufferView":11,
			"componentType":5123,
			"count":7140,
			"type":"SCALAR"
		},
		{
			"bufferView":12,
			"componentType":5126,
			"count":89,
			"max":[
				-0.0269781481474638,
				1.5393978357315063,
				0.39888995885849
			],
			"min":[
				-0.4429556429386139,
				1.2028052806854248,
				-0.01708758808672428
			],
			"type":"VEC3"
		},
		{
			"bufferView":13,
			"componentType":5126,
			"count":89,
			"type":"VEC3"
		},
		{
			"bufferView":14,
			"componentType":5126,
			"count":89,
			"type":"VEC2"
		},
		{
			"bufferView":15,
			"componentType":5123,
			"count":192,
			"type":"SCALAR"
		},
		{
			"bufferView":16,
			"componentType":5126,
			"count":3407,
			"max":[
				0.8262696266174316,
				3.610001802444458,
				1.0688865184783936
			],
			"min":[
				-0.2018781155347824,
				2.2211930751800537,
				0.7608161568641663
			],
			"type":"VEC3"
		},
		{
			"bufferView":17,
			"componentType":5126,
			"count":3407,
			"type":"VEC3"
		},
		{
			"bufferView":18,
			"componentType":5126,
			"count":3407,
			"type":"VEC2"
		},
		{
			"bufferView":19,
			"componentType":5123,
			"count":5148,
			"type":"SCALAR"
		},
		{
			"bufferView":20,
			"componentType":5126,
			"count":366,
			"max":[
				0.8193060755729675,
				2.4920496940612793,
				0.9798666834831238
			],
			"min":[
				0.7100386023521423,
				2.3828179836273193,
				0.9378248453140259
			],
			"type":"VEC3"
		},
		{
			"bufferView":21,
			"componentType":5126,
			"count":366,
			"type":"VEC3"
		},
		{
			"bufferView":22,
			"componentType":5126,
			"count":366,
			"type":"VEC2"
		},
		{
			"bufferView":23,
			"componentType":5123,
			"count":576,
			"type":"SCALAR"
		},
		{
			"bufferView":24,
			"componentType":5126,
			"count":1000,
			"max":[
				-0.10687731206417084,
				3.107985496520996,
				0.866178035736084
			],
			"min":[
				-0.197998508810997,
				3.0890915393829346,
				0.781724750995636
			],
			"type":"VEC3"
		},
		{
			"bufferView":25,
			"componentType":5126,
			"count":1000,
			"type":"VEC3"
		},
		{
			"bufferView":26,
			"componentType":5126,
			"count":1000,
			"type":"VEC2"
		},
		{
			"bufferView":27,
			"componentType":5123,
			"count":1500,
			"type":"SCALAR"
		}
	],
	"bufferViews":[
		{
			"buffer":0,
			"byteLength":480,
			"byteOffset":0,
			"target":34962
		},
		{
			"buffer":0,
			"byteLength":480,
			"byteOffset":480,
			"target":34962
		},
		{
			"buffer":0,
			"byteLength":320,
			"byteOffset":960,
			"target":34962
		},
		{
			"buffer":0,
			"byteLength":120,
			"byteOffset":1280,
			"target":34963
		},
		{
			"buffer":0,
			"byteLength":864,
			"byteOffset":1400,
			"target":34962
		},
		{
			"buffer":0,
			"byteLength":864,
			"byteOffset":2264,
			"target":34962
		},
		{
			"buffer":0,
			"byteLength":576,
			"byteOffset":3128,
			"target":34962
		},
		{
			"buffer":0,
			"byteLength":276,
			"byteOffset":3704,
			"target":34963
		},
		{
			"buffer":0,
			"byteLength":58356,
			"byteOffset":3980,
			"target":34962
		},
		{
			"buffer":0,
			"byteLength":58356,
			"byteOffset":62336,
			"target":34962
		},
		{
			"buffer":0,
			"byteLength":38904,
			"byteOffset":120692,
			"target":34962
		},
		{
			"buffer":0,
			"byteLength":14280,
			"byteOffset":159596,
			"target":34963
		},
		{
			"buffer":0,
			"byteLength":1068,
			"byteOffset":173876,
			"target":34962
		},
		{
			"buffer":0,
			"byteLength":1068,
			"byteOffset":174944,
			"target":34962
		},
		{
			"buffer":0,
			"byteLength":712,
			"byteOffset":176012,
			"target":34962
		},
		{
			"buffer":0,
			"byteLength":384,
			"byteOffset":176724,
			"target":34963
		},
		{
			"buffer":0,
			"byteLength":40884,
			"byteOffset":177108,
			"target":34962
		},
		{
			"buffer":0,
			"byteLength":40884,
			"byteOffset":217992,
			"target":34962
		},
		{
			"buffer":0,
			"byteLength":27256,
			"byteOffset":258876,
			"target":34962
		},
		{
			"buffer":0,
			"byteLength":10296,
			"byteOffset":286132,
			"target":34963
		},
		{
			"buffer":0,
			"byteLength":4392,
			"byteOffset":296428,
			"target":34962
		},
		{
			"buffer":0,
			"byteLength":4392,
			"byteOffset":300820,
			"target":34962
		},
		{
			"buffer":0,
			"byteLength":2928,
			"byteOffset":305212,
			"target":34962
		},
		{
			"buffer":0,
			"byteLength":1152,
			"byteOffset":308140,
			"target":34963
		},
		{
			"buffer":0,
			"byteLength":12000,
			"byteOffset":309292,
			"target":34962
		},
		{
			"buffer":0,
			"byteLength":12000,
			"byteOffset":321292,
			"target":34962
		},
		{
			"buffer":0,
			"byteLength":8000,
			"byteOffset":333292,
			"target":34962
		},
		{
			"buffer":0,
			"byteLength":3000,
			"byteOffset":341292,
			"target":34963
		}
	],
	"buffers":[
		{
			"byteLength":344292,
			"uri":"sink.bin"
		}
	]
}
