{
	"asset":{
		"generator":"Khronos glTF Blender I/O v4.2.70",
		"version":"2.0"
	},
	"scene":0,
	"scenes":[
		{
			"name":"Scene",
			"nodes":[
				0
			]
		}
	],
	"nodes":[
		{
			"mesh":0,
			"name":"Cube.005"
		}
	],
	"materials":[
		{
			"doubleSided":true,
			"name":"fer",
			"pbrMetallicRoughness":{
				"metallicFactor":0
			}
		},
		{
			"doubleSided":true,
			"name":"nwar.001",
			"pbrMetallicRoughness":{
				"baseColorFactor":[
					0,
					0,
					0,
					1
				],
				"metallicFactor":0
			}
		},
		{
			"doubleSided":true,
			"name":"blancblanc.001",
			"pbrMetallicRoughness":{
				"baseColorFactor":[
					0.800000011920929,
					0.800000011920929,
					0.800000011920929,
					1
				],
				"metallicFactor":0
			}
		},
		{
			"doubleSided":true,
			"name":"noirverre",
			"pbrMetallicRoughness":{
				"baseColorFactor":[
					0,
					0,
					0,
					1
				],
				"metallicFactor":0,
				"roughnessFactor":0
			}
		},
		{
			"doubleSided":true,
			"name":"gris",
			"pbrMetallicRoughness":{
				"baseColorFactor":[
					0.3642842173576355,
					0.3642842173576355,
					0.3642842173576355,
					1
				],
				"metallicFactor":0,
				"roughnessFactor":0.5
			}
		}
	],
	"meshes":[
		{
			"name":"Cube.009",
			"primitives":[
				{
					"attributes":{
						"POSITION":0,
						"NORMAL":1,
						"TEXCOORD_0":2
					},
					"indices":3,
					"material":0
				},
				{
					"attributes":{
						"POSITION":4,
						"NORMAL":5,
						"TEXCOORD_0":6
					},
					"indices":7,
					"material":1
				},
				{
					"attributes":{
						"POSITION":8,
						"NORMAL":9,
						"TEXCOORD_0":10
					},
					"indices":11,
					"material":2
				},
				{
					"attributes":{
						"POSITION":12,
						"NORMAL":13,
						"TEXCOORD_0":14
					},
					"indices":15,
					"material":3
				},
				{
					"attributes":{
						"POSITION":16,
						"NORMAL":17,
						"TEXCOORD_0":18
					},
					"indices":19,
					"material":4
				}
			]
		}
	],
	"accessors":[
		{
			"bufferView":0,
			"componentType":5126,
			"count":11324,
			"max":[
				0.4418109655380249,
				2.253831624984741,
				0.30391138792037964
			],
			"min":[
				-1.2679839134216309,
				2.143446207046509,
				-1.4759011268615723
			],
			"type":"VEC3"
		},
		{
			"bufferView":1,
			"componentType":5126,
			"count":11324,
			"type":"VEC3"
		},
		{
			"bufferView":2,
			"componentType":5126,
			"count":11324,
			"type":"VEC2"
		},
		{
			"bufferView":3,
			"componentType":5123,
			"count":16296,
			"type":"SCALAR"
		},
		{
			"bufferView":4,
			"componentType":5126,
			"count":9314,
			"max":[
				0.7080814838409424,
				2.338534116744995,
				0.5569129586219788
			],
			"min":[
				-1.5087313652038574,
				2.143446207046509,
				-1.7299175262451172
			],
			"type":"VEC3"
		},
		{
			"bufferView":5,
			"componentType":5126,
			"count":9314,
			"type":"VEC3"
		},
		{
			"bufferView":6,
			"componentType":5126,
			"count":9314,
			"type":"VEC2"
		},
		{
			"bufferView":7,
			"componentType":5123,
			"count":11760,
			"type":"SCALAR"
		},
		{
			"bufferView":8,
			"componentType":5126,
			"count":512,
			"max":[
				1.0117874145507812,
				2.143446683883667,
				0.6228049397468567
			],
			"min":[
				-1.5919712781906128,
				-1.0777465105056763,
				-1.8823139667510986
			],
			"type":"VEC3"
		},
		{
			"bufferView":9,
			"componentType":5126,
			"count":512,
			"type":"VEC3"
		},
		{
			"bufferView":10,
			"componentType":5126,
			"count":512,
			"type":"VEC2"
		},
		{
			"bufferView":11,
			"componentType":5123,
			"count":942,
			"type":"SCALAR"
		},
		{
			"bufferView":12,
			"componentType":5126,
			"count":20,
			"max":[
				0.8981761932373047,
				1.7672199010849,
				0.6228049397468567
			],
			"min":[
				0.8448997139930725,
				0.03251008689403534,
				-1.8823139667510986
			],
			"type":"VEC3"
		},
		{
			"bufferView":13,
			"componentType":5126,
			"count":20,
			"type":"VEC3"
		},
		{
			"bufferView":14,
			"componentType":5126,
			"count":20,
			"type":"VEC2"
		},
		{
			"bufferView":15,
			"componentType":5123,
			"count":30,
			"type":"SCALAR"
		},
		{
			"bufferView":16,
			"componentType":5126,
			"count":1054,
			"max":[
				0.9094969630241394,
				2.085204601287842,
				0.4193495810031891
			],
			"min":[
				0.8448994159698486,
				1.8478460311889648,
				-1.6180578470230103
			],
			"type":"VEC3"
		},
		{
			"bufferView":17,
			"componentType":5126,
			"count":1054,
			"type":"VEC3"
		},
		{
			"bufferView":18,
			"componentType":5126,
			"count":1054,
			"type":"VEC2"
		},
		{
			"bufferView":19,
			"componentType":5123,
			"count":1920,
			"type":"SCALAR"
		}
	],
	"bufferViews":[
		{
			"buffer":0,
			"byteLength":135888,
			"byteOffset":0,
			"target":34962
		},
		{
			"buffer":0,
			"byteLength":135888,
			"byteOffset":135888,
			"target":34962
		},
		{
			"buffer":0,
			"byteLength":90592,
			"byteOffset":271776,
			"target":34962
		},
		{
			"buffer":0,
			"byteLength":32592,
			"byteOffset":362368,
			"target":34963
		},
		{
			"buffer":0,
			"byteLength":111768,
			"byteOffset":394960,
			"target":34962
		},
		{
			"buffer":0,
			"byteLength":111768,
			"byteOffset":506728,
			"target":34962
		},
		{
			"buffer":0,
			"byteLength":74512,
			"byteOffset":618496,
			"target":34962
		},
		{
			"buffer":0,
			"byteLength":23520,
			"byteOffset":693008,
			"target":34963
		},
		{
			"buffer":0,
			"byteLength":6144,
			"byteOffset":716528,
			"target":34962
		},
		{
			"buffer":0,
			"byteLength":6144,
			"byteOffset":722672,
			"target":34962
		},
		{
			"buffer":0,
			"byteLength":4096,
			"byteOffset":728816,
			"target":34962
		},
		{
			"buffer":0,
			"byteLength":1884,
			"byteOffset":732912,
			"target":34963
		},
		{
			"buffer":0,
			"byteLength":240,
			"byteOffset":734796,
			"target":34962
		},
		{
			"buffer":0,
			"byteLength":240,
			"byteOffset":735036,
			"target":34962
		},
		{
			"buffer":0,
			"byteLength":160,
			"byteOffset":735276,
			"target":34962
		},
		{
			"buffer":0,
			"byteLength":60,
			"byteOffset":735436,
			"target":34963
		},
		{
			"buffer":0,
			"byteLength":12648,
			"byteOffset":735496,
			"target":34962
		},
		{
			"buffer":0,
			"byteLength":12648,
			"byteOffset":748144,
			"target":34962
		},
		{
			"buffer":0,
			"byteLength":8432,
			"byteOffset":760792,
			"target":34962
		},
		{
			"buffer":0,
			"byteLength":3840,
			"byteOffset":769224,
			"target":34963
		}
	],
	"buffers":[
		{
			"byteLength":773064,
			"uri":"stove.bin"
		}
	]
}
