{
	"asset":{
		"generator":"Khronos glTF Blender I/O v4.2.70",
		"version":"2.0"
	},
	"scene":0,
	"scenes":[
		{
			"name":"Scene",
			"nodes":[
				0
			]
		}
	],
	"nodes":[
		{
			"mesh":0,
			"name":"Cube.024"
		}
	],
	"materials":[
		{
			"doubleSided":true,
			"name":"fer.001",
			"pbrMetallicRoughness":{
				"metallicFactor":0
			}
		},
		{
			"doubleSided":true,
			"name":"nwar.002",
			"pbrMetallicRoughness":{
				"baseColorFactor":[
					0,
					0,
					0,
					1
				],
				"metallicFactor":0
			}
		}
	],
	"meshes":[
		{
			"name":"Cube.010",
			"primitives":[
				{
					"attributes":{
						"POSITION":0,
						"NORMAL":1,
						"TEXCOORD_0":2
					},
					"indices":3,
					"material":0
				},
				{
					"attributes":{
						"POSITION":4,
						"NORMAL":5,
						"TEXCOORD_0":6
					},
					"indices":7,
					"material":1
				}
			]
		}
	],
	"accessors":[
		{
			"bufferView":0,
			"componentType":5126,
			"count":106,
			"max":[
				1.2192310094833374,
				1.2038776874542236,
				1.549729347229004
			],
			"min":[
				-1.2192310094833374,
				-2.1733756065368652,
				-1.549729347229004
			],
			"type":"VEC3"
		},
		{
			"bufferView":1,
			"componentType":5126,
			"count":106,
			"type":"VEC3"
		},
		{
			"bufferView":2,
			"componentType":5126,
			"count":106,
			"type":"VEC2"
		},
		{
			"bufferView":3,
			"componentType":5123,
			"count":174,
			"type":"SCALAR"
		},
		{
			"bufferView":4,
			"componentType":5126,
			"count":4,
			"max":[
				0.4380756616592407,
				-0.7415359020233154,
				0.5568252801895142
			],
			"min":[
				-0.4380756616592407,
				-0.7415359020233154,
				-0.5568252801895142
			],
			"type":"VEC3"
		},
		{
			"bufferView":5,
			"componentType":5126,
			"count":4,
			"type":"VEC3"
		},
		{
			"bufferView":6,
			"componentType":5126,
			"count":4,
			"type":"VEC2"
		},
		{
			"bufferView":7,
			"componentType":5123,
			"count":6,
			"type":"SCALAR"
		}
	],
	"bufferViews":[
		{
			"buffer":0,
			"byteLength":1272,
			"byteOffset":0,
			"target":34962
		},
		{
			"buffer":0,
			"byteLength":1272,
			"byteOffset":1272,
			"target":34962
		},
		{
			"buffer":0,
			"byteLength":848,
			"byteOffset":2544,
			"target":34962
		},
		{
			"buffer":0,
			"byteLength":348,
			"byteOffset":3392,
			"target":34963
		},
		{
			"buffer":0,
			"byteLength":48,
			"byteOffset":3740,
			"target":34962
		},
		{
			"buffer":0,
			"byteLength":48,
			"byteOffset":3788,
			"target":34962
		},
		{
			"buffer":0,
			"byteLength":32,
			"byteOffset":3836,
			"target":34962
		},
		{
			"buffer":0,
			"byteLength":12,
			"byteOffset":3868,
			"target":34963
		}
	],
	"buffers":[
		{
			"byteLength":3880,
			"uri":"vent.bin"
		}
	]
}
