{
	"asset":{
		"generator":"Khronos glTF Blender I/O v4.1.62",
		"version":"2.0"
	},
	"scene":0,
	"scenes":[
		{
			"name":"Scene",
			"nodes":[
				0,
				1
			]
		}
	],
	"nodes":[
		{
			"mesh":0,
			"name":"Washing machine"
		},
		{
			"mesh":1,
			"name":"Washing machine.001"
		}
	],
	"materials":[
		{
			"doubleSided":true,
			"name":"White.048",
			"pbrMetallicRoughness":{
				"baseColorFactor":[
					0.6353368163108826,
					0.6353368163108826,
					0.6353368163108826,
					1
				],
				"metallicFactor":0,
				"roughnessFactor":0.5
			}
		},
		{
			"doubleSided":true,
			"name":"Grey.039",
			"pbrMetallicRoughness":{
				"baseColorFactor":[
					0.2600274980068207,
					0.2600274980068207,
					0.2600274980068207,
					1
				],
				"metallicFactor":0,
				"roughnessFactor":0.5
			}
		},
		{
			"doubleSided":true,
			"name":"Blue 2.022",
			"pbrMetallicRoughness":{
				"baseColorFactor":[
					0.04154860973358154,
					0.23032249510288239,
					0.23441897332668304,
					1
				],
				"metallicFactor":0,
				"roughnessFactor":0.5
			}
		}
	],
	"meshes":[
		{
			"name":"Cube.058",
			"primitives":[
				{
					"attributes":{
						"POSITION":0,
						"NORMAL":1,
						"TEXCOORD_0":2
					},
					"indices":3,
					"material":0
				},
				{
					"attributes":{
						"POSITION":4,
						"NORMAL":5,
						"TEXCOORD_0":6
					},
					"indices":7,
					"material":1
				}
			]
		},
		{
			"name":"Cube.059",
			"primitives":[
				{
					"attributes":{
						"POSITION":8,
						"NORMAL":9,
						"TEXCOORD_0":10
					},
					"indices":11,
					"material":2
				},
				{
					"attributes":{
						"POSITION":12,
						"NORMAL":13,
						"TEXCOORD_0":14
					},
					"indices":15,
					"material":1
				}
			]
		}
	],
	"accessors":[
		{
			"bufferView":0,
			"componentType":5126,
			"count":150,
			"max":[
				1.5452167987823486,
				1.5008761882781982,
				0.32919859886169434
			],
			"min":[
				-1.505113124847412,
				-2.8717236518859863,
				-3.012721061706543
			],
			"type":"VEC3"
		},
		{
			"bufferView":1,
			"componentType":5126,
			"count":150,
			"type":"VEC3"
		},
		{
			"bufferView":2,
			"componentType":5126,
			"count":150,
			"type":"VEC2"
		},
		{
			"bufferView":3,
			"componentType":5123,
			"count":282,
			"type":"SCALAR"
		},
		{
			"bufferView":4,
			"componentType":5126,
			"count":408,
			"max":[
				1.351562261581421,
				1.479680061340332,
				0.3291984796524048
			],
			"min":[
				-1.3786975145339966,
				-1.9855915307998657,
				-1.1904674768447876
			],
			"type":"VEC3"
		},
		{
			"bufferView":5,
			"componentType":5126,
			"count":408,
			"type":"VEC3"
		},
		{
			"bufferView":6,
			"componentType":5126,
			"count":408,
			"type":"VEC2"
		},
		{
			"bufferView":7,
			"componentType":5123,
			"count":606,
			"type":"SCALAR"
		},
		{
			"bufferView":8,
			"componentType":5126,
			"count":24,
			"max":[
				1.1251112222671509,
				0.3977397680282593,
				0.44762682914733887
			],
			"min":[
				-1.0850211381912231,
				-1.8123937845230103,
				0.3941582441329956
			],
			"type":"VEC3"
		},
		{
			"bufferView":9,
			"componentType":5126,
			"count":24,
			"type":"VEC3"
		},
		{
			"bufferView":10,
			"componentType":5126,
			"count":24,
			"type":"VEC2"
		},
		{
			"bufferView":11,
			"componentType":5123,
			"count":60,
			"type":"SCALAR"
		},
		{
			"bufferView":12,
			"componentType":5126,
			"count":268,
			"max":[
				1.4444489479064941,
				0.7170774936676025,
				0.7859597206115723
			],
			"min":[
				-1.404358983039856,
				-2.1317315101623535,
				0.2859879732131958
			],
			"type":"VEC3"
		},
		{
			"bufferView":13,
			"componentType":5126,
			"count":268,
			"type":"VEC3"
		},
		{
			"bufferView":14,
			"componentType":5126,
			"count":268,
			"type":"VEC2"
		},
		{
			"bufferView":15,
			"componentType":5123,
			"count":468,
			"type":"SCALAR"
		}
	],
	"bufferViews":[
		{
			"buffer":0,
			"byteLength":1800,
			"byteOffset":0,
			"target":34962
		},
		{
			"buffer":0,
			"byteLength":1800,
			"byteOffset":1800,
			"target":34962
		},
		{
			"buffer":0,
			"byteLength":1200,
			"byteOffset":3600,
			"target":34962
		},
		{
			"buffer":0,
			"byteLength":564,
			"byteOffset":4800,
			"target":34963
		},
		{
			"buffer":0,
			"byteLength":4896,
			"byteOffset":5364,
			"target":34962
		},
		{
			"buffer":0,
			"byteLength":4896,
			"byteOffset":10260,
			"target":34962
		},
		{
			"buffer":0,
			"byteLength":3264,
			"byteOffset":15156,
			"target":34962
		},
		{
			"buffer":0,
			"byteLength":1212,
			"byteOffset":18420,
			"target":34963
		},
		{
			"buffer":0,
			"byteLength":288,
			"byteOffset":19632,
			"target":34962
		},
		{
			"buffer":0,
			"byteLength":288,
			"byteOffset":19920,
			"target":34962
		},
		{
			"buffer":0,
			"byteLength":192,
			"byteOffset":20208,
			"target":34962
		},
		{
			"buffer":0,
			"byteLength":120,
			"byteOffset":20400,
			"target":34963
		},
		{
			"buffer":0,
			"byteLength":3216,
			"byteOffset":20520,
			"target":34962
		},
		{
			"buffer":0,
			"byteLength":3216,
			"byteOffset":23736,
			"target":34962
		},
		{
			"buffer":0,
			"byteLength":2144,
			"byteOffset":26952,
			"target":34962
		},
		{
			"buffer":0,
			"byteLength":936,
			"byteOffset":29096,
			"target":34963
		}
	],
	"buffers":[
		{
			"byteLength":30032,
			"uri":"washing_machine.bin"
		}
	]
}
