{
	"asset":{
		"generator":"Khronos glTF Blender I/O v4.2.70",
		"version":"2.0"
	},
	"scene":0,
	"scenes":[
		{
			"name":"Scene",
			"nodes":[
				0
			]
		}
	],
	"nodes":[
		{
			"mesh":0,
			"name":"Cookie"
		}
	],
	"materials":[
		{
			"doubleSided":true,
			"name":"material_0.001",
			"pbrMetallicRoughness":{
				"baseColorFactor":[
					0.7764710187911987,
					0.5921570062637329,
					0.4274509847164154,
					1
				],
				"metallicFactor":0,
				"roughnessFactor":0.5
			}
		},
		{
			"doubleSided":true,
			"name":"material_1.001",
			"pbrMetallicRoughness":{
				"baseColorFactor":[
					0.3019610047340393,
					0.18823499977588654,
					0.10980399698019028,
					1
				],
				"metallicFactor":0,
				"roughnessFactor":0.5
			}
		}
	],
	"meshes":[
		{
			"name":"Cookie",
			"primitives":[
				{
					"attributes":{
						"POSITION":0,
						"NORMAL":1,
						"TEXCOORD_0":2
					},
					"indices":3,
					"material":0
				},
				{
					"attributes":{
						"POSITION":4,
						"NORMAL":5,
						"TEXCOORD_0":6
					},
					"indices":7,
					"material":1
				}
			]
		}
	],
	"accessors":[
		{
			"bufferView":0,
			"componentType":5126,
			"count":288,
			"max":[
				0.75,
				0.30449986457824707,
				0.7500001192092896
			],
			"min":[
				-0.75,
				-0.18750011920928955,
				-0.7499997615814209
			],
			"type":"VEC3"
		},
		{
			"bufferView":1,
			"componentType":5126,
			"count":288,
			"type":"VEC3"
		},
		{
			"bufferView":2,
			"componentType":5126,
			"count":288,
			"type":"VEC2"
		},
		{
			"bufferView":3,
			"componentType":5123,
			"count":324,
			"type":"SCALAR"
		},
		{
			"bufferView":4,
			"componentType":5126,
			"count":1866,
			"max":[
				0.6145694851875305,
				0.3267861604690552,
				0.5894867181777954
			],
			"min":[
				-0.5730000734329224,
				0.052500009536743164,
				-0.5775057077407837
			],
			"type":"VEC3"
		},
		{
			"bufferView":5,
			"componentType":5126,
			"count":1866,
			"type":"VEC3"
		},
		{
			"bufferView":6,
			"componentType":5126,
			"count":1866,
			"type":"VEC2"
		},
		{
			"bufferView":7,
			"componentType":5123,
			"count":1944,
			"type":"SCALAR"
		}
	],
	"bufferViews":[
		{
			"buffer":0,
			"byteLength":3456,
			"byteOffset":0,
			"target":34962
		},
		{
			"buffer":0,
			"byteLength":3456,
			"byteOffset":3456,
			"target":34962
		},
		{
			"buffer":0,
			"byteLength":2304,
			"byteOffset":6912,
			"target":34962
		},
		{
			"buffer":0,
			"byteLength":648,
			"byteOffset":9216,
			"target":34963
		},
		{
			"buffer":0,
			"byteLength":22392,
			"byteOffset":9864,
			"target":34962
		},
		{
			"buffer":0,
			"byteLength":22392,
			"byteOffset":32256,
			"target":34962
		},
		{
			"buffer":0,
			"byteLength":14928,
			"byteOffset":54648,
			"target":34962
		},
		{
			"buffer":0,
			"byteLength":3888,
			"byteOffset":69576,
			"target":34963
		}
	],
	"buffers":[
		{
			"byteLength":73464,
			"uri":"Cookie.bin"
		}
	]
}
