{
	"asset":{
		"generator":"Khronos glTF Blender I/O v4.1.62",
		"version":"2.0"
	},
	"scene":0,
	"scenes":[
		{
			"name":"Scene",
			"nodes":[
				0,
				1,
				2,
				3,
				4,
				5
			]
		}
	],
	"nodes":[
		{
			"mesh":0,
			"name":"Bath",
			"translation":[
				0,
				0,
				-6
			]
		},
		{
			"mesh":1,
			"name":"Sink",
			"translation":[
				0,
				0,
				-10
			]
		},
		{
			"mesh":2,
			"name":"Toilet",
			"rotation":[
				-0.6961228847503662,
				0,
				0,
				0.7179226279258728
			]
		},
		{
			"mesh":3,
			"name":"Toilet roll holder",
			"scale":[
				0.7430210709571838,
				1,
				1
			]
		},
		{
			"mesh":4,
			"name":"Toilet rolls"
		},
		{
			"mesh":5,
			"name":"Towel holder",
			"scale":[
				1.7040804624557495,
				2.2934482097625732,
				2.2934482097625732
			]
		}
	],
	"materials":[
		{
			"doubleSided":true,
			"name":"White",
			"pbrMetallicRoughness":{
				"baseColorFactor":[
					0.6353368163108826,
					0.6353368163108826,
					0.6353368163108826,
					1
				],
				"metallicFactor":0,
				"roughnessFactor":0.5
			}
		},
		{
			"doubleSided":true,
			"name":"Grey 2",
			"pbrMetallicRoughness":{
				"baseColorFactor":[
					0.08696522563695908,
					0.08696522563695908,
					0.08696522563695908,
					1
				],
				"metallicFactor":0,
				"roughnessFactor":0.5
			}
		},
		{
			"doubleSided":true,
			"name":"Grey",
			"pbrMetallicRoughness":{
				"baseColorFactor":[
					0.2600274980068207,
					0.2600274980068207,
					0.2600274980068207,
					1
				],
				"metallicFactor":0,
				"roughnessFactor":0.5
			}
		},
		{
			"doubleSided":true,
			"name":"White.001",
			"pbrMetallicRoughness":{
				"baseColorFactor":[
					0.6353368163108826,
					0.6353368163108826,
					0.6353368163108826,
					1
				],
				"metallicFactor":0,
				"roughnessFactor":0.5
			}
		},
		{
			"doubleSided":true,
			"name":"Grey.002",
			"pbrMetallicRoughness":{
				"baseColorFactor":[
					0.2600274980068207,
					0.2600274980068207,
					0.2600274980068207,
					1
				],
				"metallicFactor":0,
				"roughnessFactor":0.5
			}
		},
		{
			"doubleSided":true,
			"name":"Grey 2.002",
			"pbrMetallicRoughness":{
				"baseColorFactor":[
					0.08696522563695908,
					0.08696522563695908,
					0.08696522563695908,
					1
				],
				"metallicFactor":0,
				"roughnessFactor":0.5
			}
		},
		{
			"doubleSided":true,
			"name":"White.002",
			"pbrMetallicRoughness":{
				"baseColorFactor":[
					0.6353368163108826,
					0.6353368163108826,
					0.6353368163108826,
					1
				],
				"metallicFactor":0,
				"roughnessFactor":0.5
			}
		},
		{
			"doubleSided":true,
			"name":"Blue 2.001",
			"pbrMetallicRoughness":{
				"baseColorFactor":[
					0.04154860973358154,
					0.23032249510288239,
					0.23441897332668304,
					1
				],
				"metallicFactor":0,
				"roughnessFactor":0.5
			}
		},
		{
			"doubleSided":true,
			"name":"Brown",
			"pbrMetallicRoughness":{
				"baseColorFactor":[
					0.3505583703517914,
					0.12707479298114777,
					0.04741016775369644,
					1
				],
				"metallicFactor":0,
				"roughnessFactor":0.5
			}
		},
		{
			"doubleSided":true,
			"name":"Grey.003",
			"pbrMetallicRoughness":{
				"baseColorFactor":[
					0.2600274980068207,
					0.2600274980068207,
					0.2600274980068207,
					1
				],
				"metallicFactor":0,
				"roughnessFactor":0.5
			}
		},
		{
			"doubleSided":true,
			"name":"White.003",
			"pbrMetallicRoughness":{
				"baseColorFactor":[
					0.6353368163108826,
					0.6353368163108826,
					0.6353368163108826,
					1
				],
				"metallicFactor":0,
				"roughnessFactor":0.5
			}
		},
		{
			"doubleSided":true,
			"name":"Grey.004",
			"pbrMetallicRoughness":{
				"baseColorFactor":[
					0.2600274980068207,
					0.2600274980068207,
					0.2600274980068207,
					1
				],
				"metallicFactor":0,
				"roughnessFactor":0.5
			}
		},
		{
			"doubleSided":true,
			"name":"White.004",
			"pbrMetallicRoughness":{
				"baseColorFactor":[
					0.6353368163108826,
					0.6353368163108826,
					0.6353368163108826,
					1
				],
				"metallicFactor":0,
				"roughnessFactor":0.5
			}
		},
		{
			"doubleSided":true,
			"name":"Blue",
			"pbrMetallicRoughness":{
				"baseColorFactor":[
					0.07112232595682144,
					0.11088339984416962,
					0.26890936493873596,
					1
				],
				"metallicFactor":0,
				"roughnessFactor":0.5
			}
		},
		{
			"doubleSided":true,
			"name":"Grey.005",
			"pbrMetallicRoughness":{
				"baseColorFactor":[
					0.2600274980068207,
					0.2600274980068207,
					0.2600274980068207,
					1
				],
				"metallicFactor":0,
				"roughnessFactor":0.5
			}
		}
	],
	"meshes":[
		{
			"name":"Cube.029",
			"primitives":[
				{
					"attributes":{
						"POSITION":0,
						"NORMAL":1,
						"TEXCOORD_0":2
					},
					"indices":3,
					"material":0
				},
				{
					"attributes":{
						"POSITION":4,
						"NORMAL":5,
						"TEXCOORD_0":6
					},
					"indices":7,
					"material":1
				},
				{
					"attributes":{
						"POSITION":8,
						"NORMAL":9,
						"TEXCOORD_0":10
					},
					"indices":11,
					"material":2
				}
			]
		},
		{
			"name":"Cube.005",
			"primitives":[
				{
					"attributes":{
						"POSITION":12,
						"NORMAL":13,
						"TEXCOORD_0":14
					},
					"indices":15,
					"material":3
				},
				{
					"attributes":{
						"POSITION":16,
						"NORMAL":17,
						"TEXCOORD_0":18
					},
					"indices":19,
					"material":4
				},
				{
					"attributes":{
						"POSITION":20,
						"NORMAL":21,
						"TEXCOORD_0":22
					},
					"indices":23,
					"material":5
				}
			]
		},
		{
			"name":"Cylinder.026",
			"primitives":[
				{
					"attributes":{
						"POSITION":24,
						"NORMAL":25,
						"TEXCOORD_0":26
					},
					"indices":27,
					"material":6
				},
				{
					"attributes":{
						"POSITION":28,
						"NORMAL":29,
						"TEXCOORD_0":30
					},
					"indices":31,
					"material":7
				},
				{
					"attributes":{
						"POSITION":32,
						"NORMAL":33,
						"TEXCOORD_0":34
					},
					"indices":35,
					"material":8
				},
				{
					"attributes":{
						"POSITION":36,
						"NORMAL":37,
						"TEXCOORD_0":38
					},
					"indices":39,
					"material":9
				}
			]
		},
		{
			"name":"Cylinder.025",
			"primitives":[
				{
					"attributes":{
						"POSITION":40,
						"NORMAL":41,
						"TEXCOORD_0":42
					},
					"indices":43,
					"material":10
				},
				{
					"attributes":{
						"POSITION":44,
						"NORMAL":45,
						"TEXCOORD_0":46
					},
					"indices":47,
					"material":11
				}
			]
		},
		{
			"name":"Cylinder.024",
			"primitives":[
				{
					"attributes":{
						"POSITION":48,
						"NORMAL":49,
						"TEXCOORD_0":50
					},
					"indices":51,
					"material":12
				}
			]
		},
		{
			"name":"Cylinder.037",
			"primitives":[
				{
					"attributes":{
						"POSITION":52,
						"NORMAL":53,
						"TEXCOORD_0":54
					},
					"indices":55,
					"material":13
				},
				{
					"attributes":{
						"POSITION":56,
						"NORMAL":57,
						"TEXCOORD_0":58
					},
					"indices":59,
					"material":14
				}
			]
		}
	],
	"accessors":[
		{
			"bufferView":0,
			"componentType":5126,
			"count":232,
			"max":[
				6.253472328186035,
				0.02217239886522293,
				1.973184585571289
			],
			"min":[
				-0.8062887787818909,
				-3.159879446029663,
				-1.9308966398239136
			],
			"type":"VEC3"
		},
		{
			"bufferView":1,
			"componentType":5126,
			"count":232,
			"type":"VEC3"
		},
		{
			"bufferView":2,
			"componentType":5126,
			"count":232,
			"type":"VEC2"
		},
		{
			"bufferView":3,
			"componentType":5123,
			"count":348,
			"type":"SCALAR"
		},
		{
			"bufferView":4,
			"componentType":5126,
			"count":192,
			"max":[
				0.959313690662384,
				-2.3855862617492676,
				0.2599996328353882
			],
			"min":[
				0.43931394815444946,
				-2.428255081176758,
				-0.26000046730041504
			],
			"type":"VEC3"
		},
		{
			"bufferView":5,
			"componentType":5126,
			"count":192,
			"type":"VEC3"
		},
		{
			"bufferView":6,
			"componentType":5126,
			"count":192,
			"type":"VEC2"
		},
		{
			"bufferView":7,
			"componentType":5123,
			"count":348,
			"type":"SCALAR"
		},
		{
			"bufferView":8,
			"componentType":5126,
			"count":1696,
			"max":[
				0.21507640182971954,
				0.7393389940261841,
				0.6303794384002686
			],
			"min":[
				-0.6979687809944153,
				-0.01420240756124258,
				-0.6368094682693481
			],
			"type":"VEC3"
		},
		{
			"bufferView":9,
			"componentType":5126,
			"count":1696,
			"type":"VEC3"
		},
		{
			"bufferView":10,
			"componentType":5126,
			"count":1696,
			"type":"VEC2"
		},
		{
			"bufferView":11,
			"componentType":5123,
			"count":2904,
			"type":"SCALAR"
		},
		{
			"bufferView":12,
			"componentType":5126,
			"count":326,
			"max":[
				1.0819991827011108,
				0.008582193404436111,
				1.1766794919967651
			],
			"min":[
				-1.13872492313385,
				-3.357508897781372,
				-0.23892325162887573
			],
			"type":"VEC3"
		},
		{
			"bufferView":13,
			"componentType":5126,
			"count":326,
			"type":"VEC3"
		},
		{
			"bufferView":14,
			"componentType":5126,
			"count":326,
			"type":"VEC2"
		},
		{
			"bufferView":15,
			"componentType":5123,
			"count":492,
			"type":"SCALAR"
		},
		{
			"bufferView":16,
			"componentType":5126,
			"count":1696,
			"max":[
				0.3236809968948364,
				0.435889333486557,
				0.23568078875541687
			],
			"min":[
				-0.30887478590011597,
				-0.00773731991648674,
				-0.2727494537830353
			],
			"type":"VEC3"
		},
		{
			"bufferView":17,
			"componentType":5126,
			"count":1696,
			"type":"VEC3"
		},
		{
			"bufferView":18,
			"componentType":5126,
			"count":1696,
			"type":"VEC2"
		},
		{
			"bufferView":19,
			"componentType":5123,
			"count":2904,
			"type":"SCALAR"
		},
		{
			"bufferView":20,
			"componentType":5126,
			"count":192,
			"max":[
				0.0792708769440651,
				-0.45424142479896545,
				0.42353522777557373
			],
			"min":[
				-0.1133723184466362,
				-0.4717806875705719,
				0.23089192807674408
			],
			"type":"VEC3"
		},
		{
			"bufferView":21,
			"componentType":5126,
			"count":192,
			"type":"VEC3"
		},
		{
			"bufferView":22,
			"componentType":5126,
			"count":192,
			"type":"VEC2"
		},
		{
			"bufferView":23,
			"componentType":5123,
			"count":348,
			"type":"SCALAR"
		},
		{
			"bufferView":24,
			"componentType":5126,
			"count":732,
			"max":[
				1.1981279850006104,
				1.3341400623321533,
				1.3825795650482178
			],
			"min":[
				-1.6260693073272705,
				-2.5600385665893555,
				-3.115288257598877
			],
			"type":"VEC3"
		},
		{
			"bufferView":25,
			"componentType":5126,
			"count":732,
			"type":"VEC3"
		},
		{
			"bufferView":26,
			"componentType":5126,
			"count":732,
			"type":"VEC2"
		},
		{
			"bufferView":27,
			"componentType":5123,
			"count":1179,
			"type":"SCALAR"
		},
		{
			"bufferView":28,
			"componentType":5126,
			"count":9,
			"max":[
				0.3566890358924866,
				-0.7186304330825806,
				-1.359493613243103
			],
			"min":[
				-0.8479757905006409,
				-1.8318980932235718,
				-1.3961349725723267
			],
			"type":"VEC3"
		},
		{
			"bufferView":29,
			"componentType":5126,
			"count":9,
			"type":"VEC3"
		},
		{
			"bufferView":30,
			"componentType":5126,
			"count":9,
			"type":"VEC2"
		},
		{
			"bufferView":31,
			"componentType":5123,
			"count":21,
			"type":"SCALAR"
		},
		{
			"bufferView":32,
			"componentType":5126,
			"count":124,
			"max":[
				0.9712187647819519,
				0.2142544388771057,
				1.9551504850387573
			],
			"min":[
				-1.4657082557678223,
				-0.09413532167673111,
				-0.7138314247131348
			],
			"type":"VEC3"
		},
		{
			"bufferView":33,
			"componentType":5126,
			"count":124,
			"type":"VEC3"
		},
		{
			"bufferView":34,
			"componentType":5126,
			"count":124,
			"type":"VEC2"
		},
		{
			"bufferView":35,
			"componentType":5123,
			"count":204,
			"type":"SCALAR"
		},
		{
			"bufferView":36,
			"componentType":5126,
			"count":194,
			"max":[
				1.3363415002822876,
				0.31669527292251587,
				1.0727860927581787
			],
			"min":[
				0.9045965075492859,
				0.10428667068481445,
				0.948106050491333
			],
			"type":"VEC3"
		},
		{
			"bufferView":37,
			"componentType":5126,
			"count":194,
			"type":"VEC3"
		},
		{
			"bufferView":38,
			"componentType":5126,
			"count":194,
			"type":"VEC2"
		},
		{
			"bufferView":39,
			"componentType":5123,
			"count":324,
			"type":"SCALAR"
		},
		{
			"bufferView":40,
			"componentType":5126,
			"count":244,
			"max":[
				0.34404700994491577,
				0.22521968185901642,
				0.3450052738189697
			],
			"min":[
				-0.35238510370254517,
				-0.4175909757614136,
				-0.17245842516422272
			],
			"type":"VEC3"
		},
		{
			"bufferView":41,
			"componentType":5126,
			"count":244,
			"type":"VEC3"
		},
		{
			"bufferView":42,
			"componentType":5126,
			"count":244,
			"type":"VEC2"
		},
		{
			"bufferView":43,
			"componentType":5123,
			"count":414,
			"type":"SCALAR"
		},
		{
			"bufferView":44,
			"componentType":5126,
			"count":310,
			"max":[
				0.5984510183334351,
				0.08364573121070862,
				0.20253857970237732
			],
			"min":[
				-0.5926506519317627,
				-0.4227418899536133,
				-0.3305632472038269
			],
			"type":"VEC3"
		},
		{
			"bufferView":45,
			"componentType":5126,
			"count":310,
			"type":"VEC3"
		},
		{
			"bufferView":46,
			"componentType":5126,
			"count":310,
			"type":"VEC2"
		},
		{
			"bufferView":47,
			"componentType":5123,
			"count":570,
			"type":"SCALAR"
		},
		{
			"bufferView":48,
			"componentType":5126,
			"count":672,
			"max":[
				0.5080780982971191,
				0.595292329788208,
				0.2587318420410156
			],
			"min":[
				-0.5363079905509949,
				-0.42701178789138794,
				-0.2587318420410156
			],
			"type":"VEC3"
		},
		{
			"bufferView":49,
			"componentType":5126,
			"count":672,
			"type":"VEC3"
		},
		{
			"bufferView":50,
			"componentType":5126,
			"count":672,
			"type":"VEC2"
		},
		{
			"bufferView":51,
			"componentType":5123,
			"count":1152,
			"type":"SCALAR"
		},
		{
			"bufferView":52,
			"componentType":5126,
			"count":108,
			"max":[
				1.0875966548919678,
				0.1397172063589096,
				0.22024570405483246
			],
			"min":[
				-0.926067590713501,
				-0.988079845905304,
				-0.057451117783784866
			],
			"type":"VEC3"
		},
		{
			"bufferView":53,
			"componentType":5126,
			"count":108,
			"type":"VEC3"
		},
		{
			"bufferView":54,
			"componentType":5126,
			"count":108,
			"type":"VEC2"
		},
		{
			"bufferView":55,
			"componentType":5123,
			"count":204,
			"type":"SCALAR"
		},
		{
			"bufferView":56,
			"componentType":5126,
			"count":290,
			"max":[
				1.527380347251892,
				0.06033293530344963,
				0.14356034994125366
			],
			"min":[
				-1.3782875537872314,
				-0.060332950204610825,
				-0.1523052304983139
			],
			"type":"VEC3"
		},
		{
			"bufferView":57,
			"componentType":5126,
			"count":290,
			"type":"VEC3"
		},
		{
			"bufferView":58,
			"componentType":5126,
			"count":290,
			"type":"VEC2"
		},
		{
			"bufferView":59,
			"componentType":5123,
			"count":540,
			"type":"SCALAR"
		}
	],
	"bufferViews":[
		{
			"buffer":0,
			"byteLength":2784,
			"byteOffset":0,
			"target":34962
		},
		{
			"buffer":0,
			"byteLength":2784,
			"byteOffset":2784,
			"target":34962
		},
		{
			"buffer":0,
			"byteLength":1856,
			"byteOffset":5568,
			"target":34962
		},
		{
			"buffer":0,
			"byteLength":696,
			"byteOffset":7424,
			"target":34963
		},
		{
			"buffer":0,
			"byteLength":2304,
			"byteOffset":8120,
			"target":34962
		},
		{
			"buffer":0,
			"byteLength":2304,
			"byteOffset":10424,
			"target":34962
		},
		{
			"buffer":0,
			"byteLength":1536,
			"byteOffset":12728,
			"target":34962
		},
		{
			"buffer":0,
			"byteLength":696,
			"byteOffset":14264,
			"target":34963
		},
		{
			"buffer":0,
			"byteLength":20352,
			"byteOffset":14960,
			"target":34962
		},
		{
			"buffer":0,
			"byteLength":20352,
			"byteOffset":35312,
			"target":34962
		},
		{
			"buffer":0,
			"byteLength":13568,
			"byteOffset":55664,
			"target":34962
		},
		{
			"buffer":0,
			"byteLength":5808,
			"byteOffset":69232,
			"target":34963
		},
		{
			"buffer":0,
			"byteLength":3912,
			"byteOffset":75040,
			"target":34962
		},
		{
			"buffer":0,
			"byteLength":3912,
			"byteOffset":78952,
			"target":34962
		},
		{
			"buffer":0,
			"byteLength":2608,
			"byteOffset":82864,
			"target":34962
		},
		{
			"buffer":0,
			"byteLength":984,
			"byteOffset":85472,
			"target":34963
		},
		{
			"buffer":0,
			"byteLength":20352,
			"byteOffset":86456,
			"target":34962
		},
		{
			"buffer":0,
			"byteLength":20352,
			"byteOffset":106808,
			"target":34962
		},
		{
			"buffer":0,
			"byteLength":13568,
			"byteOffset":127160,
			"target":34962
		},
		{
			"buffer":0,
			"byteLength":5808,
			"byteOffset":140728,
			"target":34963
		},
		{
			"buffer":0,
			"byteLength":2304,
			"byteOffset":146536,
			"target":34962
		},
		{
			"buffer":0,
			"byteLength":2304,
			"byteOffset":148840,
			"target":34962
		},
		{
			"buffer":0,
			"byteLength":1536,
			"byteOffset":151144,
			"target":34962
		},
		{
			"buffer":0,
			"byteLength":696,
			"byteOffset":152680,
			"target":34963
		},
		{
			"buffer":0,
			"byteLength":8784,
			"byteOffset":153376,
			"target":34962
		},
		{
			"buffer":0,
			"byteLength":8784,
			"byteOffset":162160,
			"target":34962
		},
		{
			"buffer":0,
			"byteLength":5856,
			"byteOffset":170944,
			"target":34962
		},
		{
			"buffer":0,
			"byteLength":2358,
			"byteOffset":176800,
			"target":34963
		},
		{
			"buffer":0,
			"byteLength":108,
			"byteOffset":179160,
			"target":34962
		},
		{
			"buffer":0,
			"byteLength":108,
			"byteOffset":179268,
			"target":34962
		},
		{
			"buffer":0,
			"byteLength":72,
			"byteOffset":179376,
			"target":34962
		},
		{
			"buffer":0,
			"byteLength":42,
			"byteOffset":179448,
			"target":34963
		},
		{
			"buffer":0,
			"byteLength":1488,
			"byteOffset":179492,
			"target":34962
		},
		{
			"buffer":0,
			"byteLength":1488,
			"byteOffset":180980,
			"target":34962
		},
		{
			"buffer":0,
			"byteLength":992,
			"byteOffset":182468,
			"target":34962
		},
		{
			"buffer":0,
			"byteLength":408,
			"byteOffset":183460,
			"target":34963
		},
		{
			"buffer":0,
			"byteLength":2328,
			"byteOffset":183868,
			"target":34962
		},
		{
			"buffer":0,
			"byteLength":2328,
			"byteOffset":186196,
			"target":34962
		},
		{
			"buffer":0,
			"byteLength":1552,
			"byteOffset":188524,
			"target":34962
		},
		{
			"buffer":0,
			"byteLength":648,
			"byteOffset":190076,
			"target":34963
		},
		{
			"buffer":0,
			"byteLength":2928,
			"byteOffset":190724,
			"target":34962
		},
		{
			"buffer":0,
			"byteLength":2928,
			"byteOffset":193652,
			"target":34962
		},
		{
			"buffer":0,
			"byteLength":1952,
			"byteOffset":196580,
			"target":34962
		},
		{
			"buffer":0,
			"byteLength":828,
			"byteOffset":198532,
			"target":34963
		},
		{
			"buffer":0,
			"byteLength":3720,
			"byteOffset":199360,
			"target":34962
		},
		{
			"buffer":0,
			"byteLength":3720,
			"byteOffset":203080,
			"target":34962
		},
		{
			"buffer":0,
			"byteLength":2480,
			"byteOffset":206800,
			"target":34962
		},
		{
			"buffer":0,
			"byteLength":1140,
			"byteOffset":209280,
			"target":34963
		},
		{
			"buffer":0,
			"byteLength":8064,
			"byteOffset":210420,
			"target":34962
		},
		{
			"buffer":0,
			"byteLength":8064,
			"byteOffset":218484,
			"target":34962
		},
		{
			"buffer":0,
			"byteLength":5376,
			"byteOffset":226548,
			"target":34962
		},
		{
			"buffer":0,
			"byteLength":2304,
			"byteOffset":231924,
			"target":34963
		},
		{
			"buffer":0,
			"byteLength":1296,
			"byteOffset":234228,
			"target":34962
		},
		{
			"buffer":0,
			"byteLength":1296,
			"byteOffset":235524,
			"target":34962
		},
		{
			"buffer":0,
			"byteLength":864,
			"byteOffset":236820,
			"target":34962
		},
		{
			"buffer":0,
			"byteLength":408,
			"byteOffset":237684,
			"target":34963
		},
		{
			"buffer":0,
			"byteLength":3480,
			"byteOffset":238092,
			"target":34962
		},
		{
			"buffer":0,
			"byteLength":3480,
			"byteOffset":241572,
			"target":34962
		},
		{
			"buffer":0,
			"byteLength":2320,
			"byteOffset":245052,
			"target":34962
		},
		{
			"buffer":0,
			"byteLength":1080,
			"byteOffset":247372,
			"target":34963
		}
	],
	"buffers":[
		{
			"byteLength":248452,
			"uri":"Bath_furniture.bin"
		}
	]
}
