{
	"asset":{
		"generator":"Khronos glTF Blender I/O v4.1.62",
		"version":"2.0"
	},
	"scene":0,
	"scenes":[
		{
			"name":"Scene",
			"nodes":[
				0
			]
		}
	],
	"nodes":[
		{
			"mesh":0,
			"name":"Bath"
		}
	],
	"materials":[
		{
			"doubleSided":true,
			"name":"White",
			"pbrMetallicRoughness":{
				"baseColorFactor":[
					0.6353368163108826,
					0.6353368163108826,
					0.6353368163108826,
					1
				],
				"metallicFactor":0,
				"roughnessFactor":0.5
			}
		},
		{
			"doubleSided":true,
			"name":"Grey 2",
			"pbrMetallicRoughness":{
				"baseColorFactor":[
					0.08696522563695908,
					0.08696522563695908,
					0.08696522563695908,
					1
				],
				"metallicFactor":0,
				"roughnessFactor":0.5
			}
		},
		{
			"doubleSided":true,
			"name":"Grey",
			"pbrMetallicRoughness":{
				"baseColorFactor":[
					0.2600274980068207,
					0.2600274980068207,
					0.2600274980068207,
					1
				],
				"metallicFactor":0,
				"roughnessFactor":0.5
			}
		}
	],
	"meshes":[
		{
			"name":"Cube.029",
			"primitives":[
				{
					"attributes":{
						"POSITION":0,
						"NORMAL":1,
						"TEXCOORD_0":2
					},
					"indices":3,
					"material":0
				},
				{
					"attributes":{
						"POSITION":4,
						"NORMAL":5,
						"TEXCOORD_0":6
					},
					"indices":7,
					"material":1
				},
				{
					"attributes":{
						"POSITION":8,
						"NORMAL":9,
						"TEXCOORD_0":10
					},
					"indices":11,
					"material":2
				}
			]
		}
	],
	"accessors":[
		{
			"bufferView":0,
			"componentType":5126,
			"count":232,
			"max":[
				6.253472328186035,
				0.02217239886522293,
				1.973184585571289
			],
			"min":[
				-0.8062887787818909,
				-3.159879446029663,
				-1.9308966398239136
			],
			"type":"VEC3"
		},
		{
			"bufferView":1,
			"componentType":5126,
			"count":232,
			"type":"VEC3"
		},
		{
			"bufferView":2,
			"componentType":5126,
			"count":232,
			"type":"VEC2"
		},
		{
			"bufferView":3,
			"componentType":5123,
			"count":348,
			"type":"SCALAR"
		},
		{
			"bufferView":4,
			"componentType":5126,
			"count":204,
			"max":[
				0.959313690662384,
				-2.3855862617492676,
				0.2599996328353882
			],
			"min":[
				0.43931394815444946,
				-2.428255081176758,
				-0.26000046730041504
			],
			"type":"VEC3"
		},
		{
			"bufferView":5,
			"componentType":5126,
			"count":204,
			"type":"VEC3"
		},
		{
			"bufferView":6,
			"componentType":5126,
			"count":204,
			"type":"VEC2"
		},
		{
			"bufferView":7,
			"componentType":5123,
			"count":348,
			"type":"SCALAR"
		},
		{
			"bufferView":8,
			"componentType":5126,
			"count":1696,
			"max":[
				0.21507640182971954,
				0.7393389940261841,
				0.6303794384002686
			],
			"min":[
				-0.6979687809944153,
				-0.01420240756124258,
				-0.6368094682693481
			],
			"type":"VEC3"
		},
		{
			"bufferView":9,
			"componentType":5126,
			"count":1696,
			"type":"VEC3"
		},
		{
			"bufferView":10,
			"componentType":5126,
			"count":1696,
			"type":"VEC2"
		},
		{
			"bufferView":11,
			"componentType":5123,
			"count":2904,
			"type":"SCALAR"
		}
	],
	"bufferViews":[
		{
			"buffer":0,
			"byteLength":2784,
			"byteOffset":0,
			"target":34962
		},
		{
			"buffer":0,
			"byteLength":2784,
			"byteOffset":2784,
			"target":34962
		},
		{
			"buffer":0,
			"byteLength":1856,
			"byteOffset":5568,
			"target":34962
		},
		{
			"buffer":0,
			"byteLength":696,
			"byteOffset":7424,
			"target":34963
		},
		{
			"buffer":0,
			"byteLength":2448,
			"byteOffset":8120,
			"target":34962
		},
		{
			"buffer":0,
			"byteLength":2448,
			"byteOffset":10568,
			"target":34962
		},
		{
			"buffer":0,
			"byteLength":1632,
			"byteOffset":13016,
			"target":34962
		},
		{
			"buffer":0,
			"byteLength":696,
			"byteOffset":14648,
			"target":34963
		},
		{
			"buffer":0,
			"byteLength":20352,
			"byteOffset":15344,
			"target":34962
		},
		{
			"buffer":0,
			"byteLength":20352,
			"byteOffset":35696,
			"target":34962
		},
		{
			"buffer":0,
			"byteLength":13568,
			"byteOffset":56048,
			"target":34962
		},
		{
			"buffer":0,
			"byteLength":5808,
			"byteOffset":69616,
			"target":34963
		}
	],
	"buffers":[
		{
			"byteLength":75424,
			"uri":"BathTab.bin"
		}
	]
}
