{
	"asset":{
		"generator":"Khronos glTF Blender I/O v4.1.62",
		"version":"2.0"
	},
	"scene":0,
	"scenes":[
		{
			"name":"Scene",
			"nodes":[
				0
			]
		}
	],
	"nodes":[
		{
			"mesh":0,
			"name":"Toilet roll holder",
			"scale":[
				0.7430210709571838,
				1,
				1
			]
		}
	],
	"materials":[
		{
			"doubleSided":true,
			"name":"White.003",
			"pbrMetallicRoughness":{
				"baseColorFactor":[
					0.6353368163108826,
					0.6353368163108826,
					0.6353368163108826,
					1
				],
				"metallicFactor":0,
				"roughnessFactor":0.5
			}
		},
		{
			"doubleSided":true,
			"name":"Grey.004",
			"pbrMetallicRoughness":{
				"baseColorFactor":[
					0.2600274980068207,
					0.2600274980068207,
					0.2600274980068207,
					1
				],
				"metallicFactor":0,
				"roughnessFactor":0.5
			}
		}
	],
	"meshes":[
		{
			"name":"Cylinder.025",
			"primitives":[
				{
					"attributes":{
						"POSITION":0,
						"NORMAL":1,
						"TEXCOORD_0":2
					},
					"indices":3,
					"material":0
				},
				{
					"attributes":{
						"POSITION":4,
						"NORMAL":5,
						"TEXCOORD_0":6
					},
					"indices":7,
					"material":1
				}
			]
		}
	],
	"accessors":[
		{
			"bufferView":0,
			"componentType":5126,
			"count":244,
			"max":[
				0.34404700994491577,
				0.22521968185901642,
				0.3450052738189697
			],
			"min":[
				-0.35238510370254517,
				-0.4175909757614136,
				-0.17245842516422272
			],
			"type":"VEC3"
		},
		{
			"bufferView":1,
			"componentType":5126,
			"count":244,
			"type":"VEC3"
		},
		{
			"bufferView":2,
			"componentType":5126,
			"count":244,
			"type":"VEC2"
		},
		{
			"bufferView":3,
			"componentType":5123,
			"count":414,
			"type":"SCALAR"
		},
		{
			"bufferView":4,
			"componentType":5126,
			"count":310,
			"max":[
				0.5984510183334351,
				0.08364573121070862,
				0.20253857970237732
			],
			"min":[
				-0.5926506519317627,
				-0.4227418899536133,
				-0.3305632472038269
			],
			"type":"VEC3"
		},
		{
			"bufferView":5,
			"componentType":5126,
			"count":310,
			"type":"VEC3"
		},
		{
			"bufferView":6,
			"componentType":5126,
			"count":310,
			"type":"VEC2"
		},
		{
			"bufferView":7,
			"componentType":5123,
			"count":570,
			"type":"SCALAR"
		}
	],
	"bufferViews":[
		{
			"buffer":0,
			"byteLength":2928,
			"byteOffset":0,
			"target":34962
		},
		{
			"buffer":0,
			"byteLength":2928,
			"byteOffset":2928,
			"target":34962
		},
		{
			"buffer":0,
			"byteLength":1952,
			"byteOffset":5856,
			"target":34962
		},
		{
			"buffer":0,
			"byteLength":828,
			"byteOffset":7808,
			"target":34963
		},
		{
			"buffer":0,
			"byteLength":3720,
			"byteOffset":8636,
			"target":34962
		},
		{
			"buffer":0,
			"byteLength":3720,
			"byteOffset":12356,
			"target":34962
		},
		{
			"buffer":0,
			"byteLength":2480,
			"byteOffset":16076,
			"target":34962
		},
		{
			"buffer":0,
			"byteLength":1140,
			"byteOffset":18556,
			"target":34963
		}
	],
	"buffers":[
		{
			"byteLength":19696,
			"uri":"paper_rack.bin"
		}
	]
}
