{
	"asset":{
		"generator":"Khronos glTF Blender I/O v4.1.62",
		"version":"2.0"
	},
	"scene":0,
	"scenes":[
		{
			"name":"Scene",
			"nodes":[
				0
			]
		}
	],
	"nodes":[
		{
			"mesh":0,
			"name":"Sink"
		}
	],
	"materials":[
		{
			"doubleSided":true,
			"name":"White.001",
			"pbrMetallicRoughness":{
				"baseColorFactor":[
					0.6353368163108826,
					0.6353368163108826,
					0.6353368163108826,
					1
				],
				"metallicFactor":0,
				"roughnessFactor":0.5
			}
		},
		{
			"doubleSided":true,
			"name":"Grey.002",
			"pbrMetallicRoughness":{
				"baseColorFactor":[
					0.2600274980068207,
					0.2600274980068207,
					0.2600274980068207,
					1
				],
				"metallicFactor":0,
				"roughnessFactor":0.5
			}
		},
		{
			"doubleSided":true,
			"name":"Grey 2.002",
			"pbrMetallicRoughness":{
				"baseColorFactor":[
					0.08696522563695908,
					0.08696522563695908,
					0.08696522563695908,
					1
				],
				"metallicFactor":0,
				"roughnessFactor":0.5
			}
		}
	],
	"meshes":[
		{
			"name":"Cube.005",
			"primitives":[
				{
					"attributes":{
						"POSITION":0,
						"NORMAL":1,
						"TEXCOORD_0":2
					},
					"indices":3,
					"material":0
				},
				{
					"attributes":{
						"POSITION":4,
						"NORMAL":5,
						"TEXCOORD_0":6
					},
					"indices":7,
					"material":1
				},
				{
					"attributes":{
						"POSITION":8,
						"NORMAL":9,
						"TEXCOORD_0":10
					},
					"indices":11,
					"material":2
				}
			]
		}
	],
	"accessors":[
		{
			"bufferView":0,
			"componentType":5126,
			"count":337,
			"max":[
				1.0819991827011108,
				0.008582193404436111,
				1.1766794919967651
			],
			"min":[
				-1.13872492313385,
				-3.357508897781372,
				-0.23892325162887573
			],
			"type":"VEC3"
		},
		{
			"bufferView":1,
			"componentType":5126,
			"count":337,
			"type":"VEC3"
		},
		{
			"bufferView":2,
			"componentType":5126,
			"count":337,
			"type":"VEC2"
		},
		{
			"bufferView":3,
			"componentType":5123,
			"count":492,
			"type":"SCALAR"
		},
		{
			"bufferView":4,
			"componentType":5126,
			"count":1744,
			"max":[
				0.3236809968948364,
				0.435889333486557,
				0.23568078875541687
			],
			"min":[
				-0.30887478590011597,
				-0.00773731991648674,
				-0.2727494537830353
			],
			"type":"VEC3"
		},
		{
			"bufferView":5,
			"componentType":5126,
			"count":1744,
			"type":"VEC3"
		},
		{
			"bufferView":6,
			"componentType":5126,
			"count":1744,
			"type":"VEC2"
		},
		{
			"bufferView":7,
			"componentType":5123,
			"count":2904,
			"type":"SCALAR"
		},
		{
			"bufferView":8,
			"componentType":5126,
			"count":202,
			"max":[
				0.0792708769440651,
				-0.45424142479896545,
				0.42353522777557373
			],
			"min":[
				-0.1133723184466362,
				-0.4717806875705719,
				0.23089192807674408
			],
			"type":"VEC3"
		},
		{
			"bufferView":9,
			"componentType":5126,
			"count":202,
			"type":"VEC3"
		},
		{
			"bufferView":10,
			"componentType":5126,
			"count":202,
			"type":"VEC2"
		},
		{
			"bufferView":11,
			"componentType":5123,
			"count":348,
			"type":"SCALAR"
		}
	],
	"bufferViews":[
		{
			"buffer":0,
			"byteLength":4044,
			"byteOffset":0,
			"target":34962
		},
		{
			"buffer":0,
			"byteLength":4044,
			"byteOffset":4044,
			"target":34962
		},
		{
			"buffer":0,
			"byteLength":2696,
			"byteOffset":8088,
			"target":34962
		},
		{
			"buffer":0,
			"byteLength":984,
			"byteOffset":10784,
			"target":34963
		},
		{
			"buffer":0,
			"byteLength":20928,
			"byteOffset":11768,
			"target":34962
		},
		{
			"buffer":0,
			"byteLength":20928,
			"byteOffset":32696,
			"target":34962
		},
		{
			"buffer":0,
			"byteLength":13952,
			"byteOffset":53624,
			"target":34962
		},
		{
			"buffer":0,
			"byteLength":5808,
			"byteOffset":67576,
			"target":34963
		},
		{
			"buffer":0,
			"byteLength":2424,
			"byteOffset":73384,
			"target":34962
		},
		{
			"buffer":0,
			"byteLength":2424,
			"byteOffset":75808,
			"target":34962
		},
		{
			"buffer":0,
			"byteLength":1616,
			"byteOffset":78232,
			"target":34962
		},
		{
			"buffer":0,
			"byteLength":696,
			"byteOffset":79848,
			"target":34963
		}
	],
	"buffers":[
		{
			"byteLength":80544,
			"uri":"sink.bin"
		}
	]
}
