{
	"asset":{
		"generator":"Khronos glTF Blender I/O v4.1.62",
		"version":"2.0"
	},
	"scene":0,
	"scenes":[
		{
			"name":"Scene",
			"nodes":[
				0
			]
		}
	],
	"nodes":[
		{
			"mesh":0,
			"name":"Toilet",
			"rotation":[
				-0.696122944355011,
				0,
				0,
				0.7179226279258728
			]
		}
	],
	"materials":[
		{
			"doubleSided":true,
			"name":"White.002",
			"pbrMetallicRoughness":{
				"baseColorFactor":[
					0.6353368163108826,
					0.6353368163108826,
					0.6353368163108826,
					1
				],
				"metallicFactor":0,
				"roughnessFactor":0.5
			}
		},
		{
			"doubleSided":true,
			"name":"Blue 2.001",
			"pbrMetallicRoughness":{
				"baseColorFactor":[
					0.04154860973358154,
					0.23032249510288239,
					0.23441897332668304,
					1
				],
				"metallicFactor":0,
				"roughnessFactor":0.5
			}
		},
		{
			"doubleSided":true,
			"name":"Brown",
			"pbrMetallicRoughness":{
				"baseColorFactor":[
					0.3505583703517914,
					0.12707479298114777,
					0.04741016775369644,
					1
				],
				"metallicFactor":0,
				"roughnessFactor":0.5
			}
		},
		{
			"doubleSided":true,
			"name":"Grey.003",
			"pbrMetallicRoughness":{
				"baseColorFactor":[
					0.2600274980068207,
					0.2600274980068207,
					0.2600274980068207,
					1
				],
				"metallicFactor":0,
				"roughnessFactor":0.5
			}
		}
	],
	"meshes":[
		{
			"name":"Cylinder.026",
			"primitives":[
				{
					"attributes":{
						"POSITION":0,
						"NORMAL":1,
						"TEXCOORD_0":2
					},
					"indices":3,
					"material":0
				},
				{
					"attributes":{
						"POSITION":4,
						"NORMAL":5,
						"TEXCOORD_0":6
					},
					"indices":7,
					"material":1
				},
				{
					"attributes":{
						"POSITION":8,
						"NORMAL":9,
						"TEXCOORD_0":10
					},
					"indices":11,
					"material":2
				},
				{
					"attributes":{
						"POSITION":12,
						"NORMAL":13,
						"TEXCOORD_0":14
					},
					"indices":15,
					"material":3
				}
			]
		}
	],
	"accessors":[
		{
			"bufferView":0,
			"componentType":5126,
			"count":765,
			"max":[
				1.1981279850006104,
				1.3341400623321533,
				1.3825795650482178
			],
			"min":[
				-1.6260693073272705,
				-2.5600385665893555,
				-3.115288257598877
			],
			"type":"VEC3"
		},
		{
			"bufferView":1,
			"componentType":5126,
			"count":765,
			"type":"VEC3"
		},
		{
			"bufferView":2,
			"componentType":5126,
			"count":765,
			"type":"VEC2"
		},
		{
			"bufferView":3,
			"componentType":5123,
			"count":1179,
			"type":"SCALAR"
		},
		{
			"bufferView":4,
			"componentType":5126,
			"count":12,
			"max":[
				0.3566890358924866,
				-0.7186304330825806,
				-1.359493613243103
			],
			"min":[
				-0.8479757905006409,
				-1.8318980932235718,
				-1.3961349725723267
			],
			"type":"VEC3"
		},
		{
			"bufferView":5,
			"componentType":5126,
			"count":12,
			"type":"VEC3"
		},
		{
			"bufferView":6,
			"componentType":5126,
			"count":12,
			"type":"VEC2"
		},
		{
			"bufferView":7,
			"componentType":5123,
			"count":21,
			"type":"SCALAR"
		},
		{
			"bufferView":8,
			"componentType":5126,
			"count":145,
			"max":[
				0.9712187647819519,
				0.2142544388771057,
				1.9551504850387573
			],
			"min":[
				-1.4657082557678223,
				-0.09413532167673111,
				-0.7138314247131348
			],
			"type":"VEC3"
		},
		{
			"bufferView":9,
			"componentType":5126,
			"count":145,
			"type":"VEC3"
		},
		{
			"bufferView":10,
			"componentType":5126,
			"count":145,
			"type":"VEC2"
		},
		{
			"bufferView":11,
			"componentType":5123,
			"count":204,
			"type":"SCALAR"
		},
		{
			"bufferView":12,
			"componentType":5126,
			"count":194,
			"max":[
				1.3363415002822876,
				0.31669527292251587,
				1.0727860927581787
			],
			"min":[
				0.9045965075492859,
				0.10428667068481445,
				0.948106050491333
			],
			"type":"VEC3"
		},
		{
			"bufferView":13,
			"componentType":5126,
			"count":194,
			"type":"VEC3"
		},
		{
			"bufferView":14,
			"componentType":5126,
			"count":194,
			"type":"VEC2"
		},
		{
			"bufferView":15,
			"componentType":5123,
			"count":324,
			"type":"SCALAR"
		}
	],
	"bufferViews":[
		{
			"buffer":0,
			"byteLength":9180,
			"byteOffset":0,
			"target":34962
		},
		{
			"buffer":0,
			"byteLength":9180,
			"byteOffset":9180,
			"target":34962
		},
		{
			"buffer":0,
			"byteLength":6120,
			"byteOffset":18360,
			"target":34962
		},
		{
			"buffer":0,
			"byteLength":2358,
			"byteOffset":24480,
			"target":34963
		},
		{
			"buffer":0,
			"byteLength":144,
			"byteOffset":26840,
			"target":34962
		},
		{
			"buffer":0,
			"byteLength":144,
			"byteOffset":26984,
			"target":34962
		},
		{
			"buffer":0,
			"byteLength":96,
			"byteOffset":27128,
			"target":34962
		},
		{
			"buffer":0,
			"byteLength":42,
			"byteOffset":27224,
			"target":34963
		},
		{
			"buffer":0,
			"byteLength":1740,
			"byteOffset":27268,
			"target":34962
		},
		{
			"buffer":0,
			"byteLength":1740,
			"byteOffset":29008,
			"target":34962
		},
		{
			"buffer":0,
			"byteLength":1160,
			"byteOffset":30748,
			"target":34962
		},
		{
			"buffer":0,
			"byteLength":408,
			"byteOffset":31908,
			"target":34963
		},
		{
			"buffer":0,
			"byteLength":2328,
			"byteOffset":32316,
			"target":34962
		},
		{
			"buffer":0,
			"byteLength":2328,
			"byteOffset":34644,
			"target":34962
		},
		{
			"buffer":0,
			"byteLength":1552,
			"byteOffset":36972,
			"target":34962
		},
		{
			"buffer":0,
			"byteLength":648,
			"byteOffset":38524,
			"target":34963
		}
	],
	"buffers":[
		{
			"byteLength":39172,
			"uri":"toilet.bin"
		}
	]
}
