{
	"asset":{
		"generator":"Khronos glTF Blender I/O v4.1.62",
		"version":"2.0"
	},
	"scene":0,
	"scenes":[
		{
			"name":"Scene",
			"nodes":[
				0,
				1
			]
		}
	],
	"nodes":[
		{
			"mesh":0,
			"name":"\u7403",
			"scale":[
				200,
				200,
				200
			]
		},
		{
			"mesh":1,
			"name":"\u5e73\u9762",
			"scale":[
				58.79999542236328,
				100,
				80
			],
			"translation":[
				0,
				0.10000000149011612,
				0
			]
		}
	],
	"materials":[
		{
			"name":"\u30de\u30c6\u30ea\u30a2\u30eb.001",
			"pbrMetallicRoughness":{
				"baseColorTexture":{
					"index":0
				},
				"metallicFactor":0,
				"roughnessFactor":0.5
			}
		},
		{
			"doubleSided":true,
			"name":"\u30de\u30c6\u30ea\u30a2\u30eb.002",
			"pbrMetallicRoughness":{
				"baseColorTexture":{
					"index":1
				},
				"metallicFactor":0,
				"roughnessFactor":0.5
			}
		},
		{
			"doubleSided":true,
			"name":"\u30de\u30c6\u30ea\u30a2\u30eb",
			"pbrMetallicRoughness":{
				"baseColorFactor":[
					0.8003931045532227,
					0.054571378976106644,
					0.028471019119024277,
					1
				],
				"metallicFactor":0,
				"roughnessFactor":0.5
			}
		}
	],
	"meshes":[
		{
			"name":"\u7403",
			"primitives":[
				{
					"attributes":{
						"POSITION":0,
						"NORMAL":1,
						"TEXCOORD_0":2
					},
					"indices":3,
					"material":0
				},
				{
					"attributes":{
						"POSITION":4,
						"NORMAL":5,
						"TEXCOORD_0":6
					},
					"indices":7,
					"material":1
				}
			]
		},
		{
			"name":"\u5e73\u9762.001",
			"primitives":[
				{
					"attributes":{
						"POSITION":8,
						"NORMAL":9,
						"TEXCOORD_0":10
					},
					"indices":11,
					"material":2
				}
			]
		}
	],
	"textures":[
		{
			"sampler":0,
			"source":0
		},
		{
			"sampler":0,
			"source":1
		}
	],
	"images":[
		{
			"mimeType":"image/png",
			"name":"0",
			"uri":"0.png"
		},
		{
			"mimeType":"image/png",
			"name":"4_diffuseOriginal",
			"uri":"4_diffuseOriginal.png"
		}
	],
	"accessors":[
		{
			"bufferView":0,
			"componentType":5126,
			"count":296,
			"max":[
				0.9999997019767761,
				1,
				0.9999993443489075
			],
			"min":[
				-0.9999990463256836,
				0,
				-1
			],
			"type":"VEC3"
		},
		{
			"bufferView":1,
			"componentType":5126,
			"count":296,
			"type":"VEC3"
		},
		{
			"bufferView":2,
			"componentType":5126,
			"count":296,
			"type":"VEC2"
		},
		{
			"bufferView":3,
			"componentType":5123,
			"count":1440,
			"type":"SCALAR"
		},
		{
			"bufferView":4,
			"componentType":5126,
			"count":4,
			"max":[
				1,
				8.742277657347586e-08,
				1
			],
			"min":[
				-1,
				-8.742277657347586e-08,
				-1
			],
			"type":"VEC3"
		},
		{
			"bufferView":5,
			"componentType":5126,
			"count":4,
			"type":"VEC3"
		},
		{
			"bufferView":6,
			"componentType":5126,
			"count":4,
			"type":"VEC2"
		},
		{
			"bufferView":7,
			"componentType":5123,
			"count":6,
			"type":"SCALAR"
		},
		{
			"bufferView":8,
			"componentType":5126,
			"count":4,
			"max":[
				1,
				0,
				1
			],
			"min":[
				-1,
				0,
				-1
			],
			"type":"VEC3"
		},
		{
			"bufferView":9,
			"componentType":5126,
			"count":4,
			"type":"VEC3"
		},
		{
			"bufferView":10,
			"componentType":5126,
			"count":4,
			"type":"VEC2"
		},
		{
			"bufferView":11,
			"componentType":5123,
			"count":6,
			"type":"SCALAR"
		}
	],
	"bufferViews":[
		{
			"buffer":0,
			"byteLength":3552,
			"byteOffset":0,
			"target":34962
		},
		{
			"buffer":0,
			"byteLength":3552,
			"byteOffset":3552,
			"target":34962
		},
		{
			"buffer":0,
			"byteLength":2368,
			"byteOffset":7104,
			"target":34962
		},
		{
			"buffer":0,
			"byteLength":2880,
			"byteOffset":9472,
			"target":34963
		},
		{
			"buffer":0,
			"byteLength":48,
			"byteOffset":12352,
			"target":34962
		},
		{
			"buffer":0,
			"byteLength":48,
			"byteOffset":12400,
			"target":34962
		},
		{
			"buffer":0,
			"byteLength":32,
			"byteOffset":12448,
			"target":34962
		},
		{
			"buffer":0,
			"byteLength":12,
			"byteOffset":12480,
			"target":34963
		},
		{
			"buffer":0,
			"byteLength":48,
			"byteOffset":12492,
			"target":34962
		},
		{
			"buffer":0,
			"byteLength":48,
			"byteOffset":12540,
			"target":34962
		},
		{
			"buffer":0,
			"byteLength":32,
			"byteOffset":12588,
			"target":34962
		},
		{
			"buffer":0,
			"byteLength":12,
			"byteOffset":12620,
			"target":34963
		}
	],
	"samplers":[
		{
			"magFilter":9729,
			"minFilter":9987
		}
	],
	"buffers":[
		{
			"byteLength":12632,
			"uri":"floor_tmp.bin"
		}
	]
}
