{
	"asset":{
		"generator":"Khronos glTF Blender I/O v4.1.62",
		"version":"2.0"
	},
	"scene":0,
	"scenes":[
		{
			"name":"Scene",
			"nodes":[
				0,
				1,
				2,
				3
			]
		}
	],
	"nodes":[
		{
			"mesh":0,
			"name":"Drawer B"
		},
		{
			"mesh":1,
			"name":"Drawer B.001"
		},
		{
			"mesh":2,
			"name":"Drawer B.002"
		},
		{
			"mesh":3,
			"name":"Drawer B.003"
		}
	],
	"materials":[
		{
			"doubleSided":true,
			"name":"Brown.013",
			"pbrMetallicRoughness":{
				"baseColorFactor":[
					0.3505583703517914,
					0.12707479298114777,
					0.04741016775369644,
					1
				],
				"metallicFactor":0,
				"roughnessFactor":0.5
			}
		},
		{
			"doubleSided":true,
			"name":"Brown 2.003",
			"pbrMetallicRoughness":{
				"baseColorFactor":[
					0.5521917343139648,
					0.23758356273174286,
					0.10646744072437286,
					1
				],
				"metallicFactor":0,
				"roughnessFactor":0.5
			}
		}
	],
	"meshes":[
		{
			"name":"Cube.041",
			"primitives":[
				{
					"attributes":{
						"POSITION":0,
						"NORMAL":1,
						"TEXCOORD_0":2
					},
					"indices":3,
					"material":0
				}
			]
		},
		{
			"name":"Cube.092",
			"primitives":[
				{
					"attributes":{
						"POSITION":4,
						"NORMAL":5,
						"TEXCOORD_0":6
					},
					"indices":7,
					"material":0
				},
				{
					"attributes":{
						"POSITION":8,
						"NORMAL":9,
						"TEXCOORD_0":10
					},
					"indices":11,
					"material":1
				}
			]
		},
		{
			"name":"Cube.093",
			"primitives":[
				{
					"attributes":{
						"POSITION":12,
						"NORMAL":13,
						"TEXCOORD_0":14
					},
					"indices":15,
					"material":0
				},
				{
					"attributes":{
						"POSITION":16,
						"NORMAL":17,
						"TEXCOORD_0":18
					},
					"indices":19,
					"material":1
				}
			]
		},
		{
			"name":"Cube.097",
			"primitives":[
				{
					"attributes":{
						"POSITION":20,
						"NORMAL":21,
						"TEXCOORD_0":22
					},
					"indices":23,
					"material":0
				},
				{
					"attributes":{
						"POSITION":24,
						"NORMAL":25,
						"TEXCOORD_0":26
					},
					"indices":27,
					"material":1
				}
			]
		}
	],
	"accessors":[
		{
			"bufferView":0,
			"componentType":5126,
			"count":158,
			"max":[
				1.2819284200668335,
				1.693467378616333,
				0.5457546710968018
			],
			"min":[
				-1.259871006011963,
				-1.841070532798767,
				-1.9518753290176392
			],
			"type":"VEC3"
		},
		{
			"bufferView":1,
			"componentType":5126,
			"count":158,
			"type":"VEC3"
		},
		{
			"bufferView":2,
			"componentType":5126,
			"count":158,
			"type":"VEC2"
		},
		{
			"bufferView":3,
			"componentType":5123,
			"count":456,
			"type":"SCALAR"
		},
		{
			"bufferView":4,
			"componentType":5126,
			"count":96,
			"max":[
				0.10769827663898468,
				1.0207319259643555,
				0.6717717051506042
			],
			"min":[
				-0.12205277383327484,
				0.7791565656661987,
				0.3539060950279236
			],
			"type":"VEC3"
		},
		{
			"bufferView":5,
			"componentType":5126,
			"count":96,
			"type":"VEC3"
		},
		{
			"bufferView":6,
			"componentType":5126,
			"count":96,
			"type":"VEC2"
		},
		{
			"bufferView":7,
			"componentType":5123,
			"count":276,
			"type":"SCALAR"
		},
		{
			"bufferView":8,
			"componentType":5126,
			"count":82,
			"max":[
				1.1182962656021118,
				1.4031859636306763,
				0.41190865635871887
			],
			"min":[
				-1.1083968877792358,
				0.37655654549598694,
				-1.0223273038864136
			],
			"type":"VEC3"
		},
		{
			"bufferView":9,
			"componentType":5126,
			"count":82,
			"type":"VEC3"
		},
		{
			"bufferView":10,
			"componentType":5126,
			"count":82,
			"type":"VEC2"
		},
		{
			"bufferView":11,
			"componentType":5123,
			"count":204,
			"type":"SCALAR"
		},
		{
			"bufferView":12,
			"componentType":5126,
			"count":96,
			"max":[
				0.10769827663898468,
				-0.003006263868883252,
				0.6717717051506042
			],
			"min":[
				-0.12205277383327484,
				-0.24458160996437073,
				0.3539060950279236
			],
			"type":"VEC3"
		},
		{
			"bufferView":13,
			"componentType":5126,
			"count":96,
			"type":"VEC3"
		},
		{
			"bufferView":14,
			"componentType":5126,
			"count":96,
			"type":"VEC2"
		},
		{
			"bufferView":15,
			"componentType":5123,
			"count":276,
			"type":"SCALAR"
		},
		{
			"bufferView":16,
			"componentType":5126,
			"count":82,
			"max":[
				1.1182962656021118,
				0.3592511713504791,
				0.41190865635871887
			],
			"min":[
				-1.1083968877792358,
				-0.667378306388855,
				-1.0223273038864136
			],
			"type":"VEC3"
		},
		{
			"bufferView":17,
			"componentType":5126,
			"count":82,
			"type":"VEC3"
		},
		{
			"bufferView":18,
			"componentType":5126,
			"count":82,
			"type":"VEC2"
		},
		{
			"bufferView":19,
			"componentType":5123,
			"count":204,
			"type":"SCALAR"
		},
		{
			"bufferView":20,
			"componentType":5126,
			"count":96,
			"max":[
				0.10769827663898468,
				-1.0757273435592651,
				0.6717717051506042
			],
			"min":[
				-0.12205277383327484,
				-1.3173027038574219,
				0.3539060950279236
			],
			"type":"VEC3"
		},
		{
			"bufferView":21,
			"componentType":5126,
			"count":96,
			"type":"VEC3"
		},
		{
			"bufferView":22,
			"componentType":5126,
			"count":96,
			"type":"VEC2"
		},
		{
			"bufferView":23,
			"componentType":5123,
			"count":276,
			"type":"SCALAR"
		},
		{
			"bufferView":24,
			"componentType":5126,
			"count":82,
			"max":[
				1.1182962656021118,
				-0.6861127614974976,
				0.41190865635871887
			],
			"min":[
				-1.1083968877792358,
				-1.7127423286437988,
				-1.0223273038864136
			],
			"type":"VEC3"
		},
		{
			"bufferView":25,
			"componentType":5126,
			"count":82,
			"type":"VEC3"
		},
		{
			"bufferView":26,
			"componentType":5126,
			"count":82,
			"type":"VEC2"
		},
		{
			"bufferView":27,
			"componentType":5123,
			"count":204,
			"type":"SCALAR"
		}
	],
	"bufferViews":[
		{
			"buffer":0,
			"byteLength":1896,
			"byteOffset":0,
			"target":34962
		},
		{
			"buffer":0,
			"byteLength":1896,
			"byteOffset":1896,
			"target":34962
		},
		{
			"buffer":0,
			"byteLength":1264,
			"byteOffset":3792,
			"target":34962
		},
		{
			"buffer":0,
			"byteLength":912,
			"byteOffset":5056,
			"target":34963
		},
		{
			"buffer":0,
			"byteLength":1152,
			"byteOffset":5968,
			"target":34962
		},
		{
			"buffer":0,
			"byteLength":1152,
			"byteOffset":7120,
			"target":34962
		},
		{
			"buffer":0,
			"byteLength":768,
			"byteOffset":8272,
			"target":34962
		},
		{
			"buffer":0,
			"byteLength":552,
			"byteOffset":9040,
			"target":34963
		},
		{
			"buffer":0,
			"byteLength":984,
			"byteOffset":9592,
			"target":34962
		},
		{
			"buffer":0,
			"byteLength":984,
			"byteOffset":10576,
			"target":34962
		},
		{
			"buffer":0,
			"byteLength":656,
			"byteOffset":11560,
			"target":34962
		},
		{
			"buffer":0,
			"byteLength":408,
			"byteOffset":12216,
			"target":34963
		},
		{
			"buffer":0,
			"byteLength":1152,
			"byteOffset":12624,
			"target":34962
		},
		{
			"buffer":0,
			"byteLength":1152,
			"byteOffset":13776,
			"target":34962
		},
		{
			"buffer":0,
			"byteLength":768,
			"byteOffset":14928,
			"target":34962
		},
		{
			"buffer":0,
			"byteLength":552,
			"byteOffset":15696,
			"target":34963
		},
		{
			"buffer":0,
			"byteLength":984,
			"byteOffset":16248,
			"target":34962
		},
		{
			"buffer":0,
			"byteLength":984,
			"byteOffset":17232,
			"target":34962
		},
		{
			"buffer":0,
			"byteLength":656,
			"byteOffset":18216,
			"target":34962
		},
		{
			"buffer":0,
			"byteLength":408,
			"byteOffset":18872,
			"target":34963
		},
		{
			"buffer":0,
			"byteLength":1152,
			"byteOffset":19280,
			"target":34962
		},
		{
			"buffer":0,
			"byteLength":1152,
			"byteOffset":20432,
			"target":34962
		},
		{
			"buffer":0,
			"byteLength":768,
			"byteOffset":21584,
			"target":34962
		},
		{
			"buffer":0,
			"byteLength":552,
			"byteOffset":22352,
			"target":34963
		},
		{
			"buffer":0,
			"byteLength":984,
			"byteOffset":22904,
			"target":34962
		},
		{
			"buffer":0,
			"byteLength":984,
			"byteOffset":23888,
			"target":34962
		},
		{
			"buffer":0,
			"byteLength":656,
			"byteOffset":24872,
			"target":34962
		},
		{
			"buffer":0,
			"byteLength":408,
			"byteOffset":25528,
			"target":34963
		}
	],
	"buffers":[
		{
			"byteLength":25936,
			"uri":"drawer_smart.bin"
		}
	]
}
