{
	"asset":{
		"generator":"Khronos glTF Blender I/O v4.2.70",
		"version":"2.0"
	},
	"scene":0,
	"scenes":[
		{
			"name":"Scene",
			"nodes":[
				0,
				1,
				2,
				3,
				4,
				5,
				6,
				7
			]
		}
	],
	"nodes":[
		{
			"mesh":0,
			"name":"Drawer A"
		},
		{
			"mesh":1,
			"name":"Drawer A.001"
		},
		{
			"mesh":2,
			"name":"Drawer A.002"
		},
		{
			"mesh":3,
			"name":"Drawer A.003"
		},
		{
			"mesh":4,
			"name":"Drawer A.004"
		},
		{
			"mesh":5,
			"name":"Drawer A.005"
		},
		{
			"mesh":6,
			"name":"Drawer A.006"
		},
		{
			"mesh":7,
			"name":"Drawer A.007"
		}
	],
	"materials":[
		{
			"doubleSided":true,
			"name":"Brown.012",
			"pbrMetallicRoughness":{
				"baseColorFactor":[
					0.3505583703517914,
					0.12707479298114777,
					0.04741016775369644,
					1
				],
				"metallicFactor":0
			}
		},
		{
			"doubleSided":true,
			"name":"Brown 2.002",
			"pbrMetallicRoughness":{
				"baseColorFactor":[
					0.5521917343139648,
					0.23758356273174286,
					0.10646744072437286,
					1
				],
				"metallicFactor":0,
				"roughnessFactor":0.5
			}
		}
	],
	"meshes":[
		{
			"name":"Cube.088",
			"primitives":[
				{
					"attributes":{
						"POSITION":0,
						"NORMAL":1,
						"TEXCOORD_0":2
					},
					"indices":3,
					"material":0
				}
			]
		},
		{
			"name":"Cube.068",
			"primitives":[
				{
					"attributes":{
						"POSITION":4,
						"NORMAL":5,
						"TEXCOORD_0":6
					},
					"indices":7,
					"material":0
				},
				{
					"attributes":{
						"POSITION":8,
						"NORMAL":9,
						"TEXCOORD_0":10
					},
					"indices":11,
					"material":1
				}
			]
		},
		{
			"name":"Cube.096",
			"primitives":[
				{
					"attributes":{
						"POSITION":12,
						"NORMAL":13,
						"TEXCOORD_0":14
					},
					"indices":7,
					"material":0
				},
				{
					"attributes":{
						"POSITION":15,
						"NORMAL":16,
						"TEXCOORD_0":17
					},
					"indices":11,
					"material":1
				}
			]
		},
		{
			"name":"Cube.113",
			"primitives":[
				{
					"attributes":{
						"POSITION":18,
						"NORMAL":19,
						"TEXCOORD_0":20
					},
					"indices":7,
					"material":0
				},
				{
					"attributes":{
						"POSITION":21,
						"NORMAL":22,
						"TEXCOORD_0":23
					},
					"indices":24,
					"material":1
				}
			]
		},
		{
			"name":"Cube.114",
			"primitives":[
				{
					"attributes":{
						"POSITION":25,
						"NORMAL":26,
						"TEXCOORD_0":27
					},
					"indices":7,
					"material":0
				},
				{
					"attributes":{
						"POSITION":28,
						"NORMAL":29,
						"TEXCOORD_0":30
					},
					"indices":31,
					"material":1
				}
			]
		},
		{
			"name":"Cube.134",
			"primitives":[
				{
					"attributes":{
						"POSITION":32,
						"NORMAL":33,
						"TEXCOORD_0":34
					},
					"indices":7,
					"material":0
				},
				{
					"attributes":{
						"POSITION":35,
						"NORMAL":36,
						"TEXCOORD_0":37
					},
					"indices":38,
					"material":1
				}
			]
		},
		{
			"name":"Cube.135",
			"primitives":[
				{
					"attributes":{
						"POSITION":39,
						"NORMAL":40,
						"TEXCOORD_0":41
					},
					"indices":7,
					"material":0
				},
				{
					"attributes":{
						"POSITION":42,
						"NORMAL":43,
						"TEXCOORD_0":44
					},
					"indices":38,
					"material":1
				}
			]
		},
		{
			"name":"Cube.136",
			"primitives":[
				{
					"attributes":{
						"POSITION":45,
						"NORMAL":46,
						"TEXCOORD_0":47
					},
					"indices":7,
					"material":0
				},
				{
					"attributes":{
						"POSITION":48,
						"NORMAL":49,
						"TEXCOORD_0":50
					},
					"indices":31,
					"material":1
				}
			]
		}
	],
	"accessors":[
		{
			"bufferView":0,
			"componentType":5126,
			"count":306,
			"max":[
				3.8416523933410645,
				1.62417733669281,
				0.518769383430481
			],
			"min":[
				-3.8884963989257812,
				-2.155841112136841,
				-2.193180799484253
			],
			"type":"VEC3"
		},
		{
			"bufferView":1,
			"componentType":5126,
			"count":306,
			"type":"VEC3"
		},
		{
			"bufferView":2,
			"componentType":5126,
			"count":306,
			"type":"VEC2"
		},
		{
			"bufferView":3,
			"componentType":5123,
			"count":456,
			"type":"SCALAR"
		},
		{
			"bufferView":4,
			"componentType":5126,
			"count":264,
			"max":[
				-2.327707052230835,
				1.087740182876587,
				0.7871314287185669
			],
			"min":[
				-2.668729782104492,
				0.7291663885116577,
				0.3153189420700073
			],
			"type":"VEC3"
		},
		{
			"bufferView":5,
			"componentType":5126,
			"count":264,
			"type":"VEC3"
		},
		{
			"bufferView":6,
			"componentType":5126,
			"count":264,
			"type":"VEC2"
		},
		{
			"bufferView":7,
			"componentType":5123,
			"count":276,
			"type":"SCALAR"
		},
		{
			"bufferView":8,
			"componentType":5126,
			"count":120,
			"max":[
				-1.2529995441436768,
				1.2843658924102783,
				0.3828306794166565
			],
			"min":[
				-3.6952643394470215,
				0.5009370446205139,
				-1.6736845970153809
			],
			"type":"VEC3"
		},
		{
			"bufferView":9,
			"componentType":5126,
			"count":120,
			"type":"VEC3"
		},
		{
			"bufferView":10,
			"componentType":5126,
			"count":120,
			"type":"VEC2"
		},
		{
			"bufferView":11,
			"componentType":5123,
			"count":180,
			"type":"SCALAR"
		},
		{
			"bufferView":12,
			"componentType":5126,
			"count":264,
			"max":[
				0.10881632566452026,
				1.087740182876587,
				0.7871314287185669
			],
			"min":[
				-0.23220640420913696,
				0.7291663885116577,
				0.3153189420700073
			],
			"type":"VEC3"
		},
		{
			"bufferView":13,
			"componentType":5126,
			"count":264,
			"type":"VEC3"
		},
		{
			"bufferView":14,
			"componentType":5126,
			"count":264,
			"type":"VEC2"
		},
		{
			"bufferView":15,
			"componentType":5126,
			"count":120,
			"max":[
				1.180138349533081,
				1.2843658924102783,
				0.3828306794166565
			],
			"min":[
				-1.2448935508728027,
				0.5009370446205139,
				-1.6736845970153809
			],
			"type":"VEC3"
		},
		{
			"bufferView":16,
			"componentType":5126,
			"count":120,
			"type":"VEC3"
		},
		{
			"bufferView":17,
			"componentType":5126,
			"count":120,
			"type":"VEC2"
		},
		{
			"bufferView":18,
			"componentType":5126,
			"count":264,
			"max":[
				2.58473801612854,
				1.087740182876587,
				0.7871314287185669
			],
			"min":[
				2.243715286254883,
				0.7291663885116577,
				0.3153189420700073
			],
			"type":"VEC3"
		},
		{
			"bufferView":19,
			"componentType":5126,
			"count":264,
			"type":"VEC3"
		},
		{
			"bufferView":20,
			"componentType":5126,
			"count":264,
			"type":"VEC2"
		},
		{
			"bufferView":21,
			"componentType":5126,
			"count":122,
			"max":[
				3.6460864543914795,
				1.2843658924102783,
				0.3828306794166565
			],
			"min":[
				1.1923329830169678,
				0.5009370446205139,
				-1.6736845970153809
			],
			"type":"VEC3"
		},
		{
			"bufferView":22,
			"componentType":5126,
			"count":122,
			"type":"VEC3"
		},
		{
			"bufferView":23,
			"componentType":5126,
			"count":122,
			"type":"VEC2"
		},
		{
			"bufferView":24,
			"componentType":5123,
			"count":180,
			"type":"SCALAR"
		},
		{
			"bufferView":25,
			"componentType":5126,
			"count":264,
			"max":[
				2.203176736831665,
				0.05008113756775856,
				0.7871314287185669
			],
			"min":[
				1.8621540069580078,
				-0.30849260091781616,
				0.3153189420700073
			],
			"type":"VEC3"
		},
		{
			"bufferView":26,
			"componentType":5126,
			"count":264,
			"type":"VEC3"
		},
		{
			"bufferView":27,
			"componentType":5126,
			"count":264,
			"type":"VEC2"
		},
		{
			"bufferView":28,
			"componentType":5126,
			"count":120,
			"max":[
				3.652965545654297,
				0.48726850748062134,
				0.38283056020736694
			],
			"min":[
				-0.01693684235215187,
				-0.7449579834938049,
				-1.6736845970153809
			],
			"type":"VEC3"
		},
		{
			"bufferView":29,
			"componentType":5126,
			"count":120,
			"type":"VEC3"
		},
		{
			"bufferView":30,
			"componentType":5126,
			"count":120,
			"type":"VEC2"
		},
		{
			"bufferView":31,
			"componentType":5123,
			"count":180,
			"type":"SCALAR"
		},
		{
			"bufferView":32,
			"componentType":5126,
			"count":264,
			"max":[
				-1.71640944480896,
				0.05008113756775856,
				0.7871314287185669
			],
			"min":[
				-2.057432174682617,
				-0.30849260091781616,
				0.3153189420700073
			],
			"type":"VEC3"
		},
		{
			"bufferView":33,
			"componentType":5126,
			"count":264,
			"type":"VEC3"
		},
		{
			"bufferView":34,
			"componentType":5126,
			"count":264,
			"type":"VEC2"
		},
		{
			"bufferView":35,
			"componentType":5126,
			"count":120,
			"max":[
				-0.031151477247476578,
				0.48726850748062134,
				0.38283056020736694
			],
			"min":[
				-3.7010536193847656,
				-0.7449579834938049,
				-1.6736845970153809
			],
			"type":"VEC3"
		},
		{
			"bufferView":36,
			"componentType":5126,
			"count":120,
			"type":"VEC3"
		},
		{
			"bufferView":37,
			"componentType":5126,
			"count":120,
			"type":"VEC2"
		},
		{
			"bufferView":38,
			"componentType":5123,
			"count":180,
			"type":"SCALAR"
		},
		{
			"bufferView":39,
			"componentType":5126,
			"count":264,
			"max":[
				-1.71640944480896,
				-1.1780343055725098,
				0.7871314287185669
			],
			"min":[
				-2.057432174682617,
				-1.536608099937439,
				0.3153189420700073
			],
			"type":"VEC3"
		},
		{
			"bufferView":40,
			"componentType":5126,
			"count":264,
			"type":"VEC3"
		},
		{
			"bufferView":41,
			"componentType":5126,
			"count":264,
			"type":"VEC2"
		},
		{
			"bufferView":42,
			"componentType":5126,
			"count":120,
			"max":[
				-0.031151477247476578,
				-0.7639399766921997,
				0.38283056020736694
			],
			"min":[
				-3.7010536193847656,
				-1.996166467666626,
				-1.6736845970153809
			],
			"type":"VEC3"
		},
		{
			"bufferView":43,
			"componentType":5126,
			"count":120,
			"type":"VEC3"
		},
		{
			"bufferView":44,
			"componentType":5126,
			"count":120,
			"type":"VEC2"
		},
		{
			"bufferView":45,
			"componentType":5126,
			"count":264,
			"max":[
				2.203176736831665,
				-1.1780343055725098,
				0.7871314287185669
			],
			"min":[
				1.8621540069580078,
				-1.536608099937439,
				0.3153189420700073
			],
			"type":"VEC3"
		},
		{
			"bufferView":46,
			"componentType":5126,
			"count":264,
			"type":"VEC3"
		},
		{
			"bufferView":47,
			"componentType":5126,
			"count":264,
			"type":"VEC2"
		},
		{
			"bufferView":48,
			"componentType":5126,
			"count":120,
			"max":[
				3.652965545654297,
				-0.7639399766921997,
				0.38283056020736694
			],
			"min":[
				-0.01693684235215187,
				-1.996166467666626,
				-1.6736845970153809
			],
			"type":"VEC3"
		},
		{
			"bufferView":49,
			"componentType":5126,
			"count":120,
			"type":"VEC3"
		},
		{
			"bufferView":50,
			"componentType":5126,
			"count":120,
			"type":"VEC2"
		}
	],
	"bufferViews":[
		{
			"buffer":0,
			"byteLength":3672,
			"byteOffset":0,
			"target":34962
		},
		{
			"buffer":0,
			"byteLength":3672,
			"byteOffset":3672,
			"target":34962
		},
		{
			"buffer":0,
			"byteLength":2448,
			"byteOffset":7344,
			"target":34962
		},
		{
			"buffer":0,
			"byteLength":912,
			"byteOffset":9792,
			"target":34963
		},
		{
			"buffer":0,
			"byteLength":3168,
			"byteOffset":10704,
			"target":34962
		},
		{
			"buffer":0,
			"byteLength":3168,
			"byteOffset":13872,
			"target":34962
		},
		{
			"buffer":0,
			"byteLength":2112,
			"byteOffset":17040,
			"target":34962
		},
		{
			"buffer":0,
			"byteLength":552,
			"byteOffset":19152,
			"target":34963
		},
		{
			"buffer":0,
			"byteLength":1440,
			"byteOffset":19704,
			"target":34962
		},
		{
			"buffer":0,
			"byteLength":1440,
			"byteOffset":21144,
			"target":34962
		},
		{
			"buffer":0,
			"byteLength":960,
			"byteOffset":22584,
			"target":34962
		},
		{
			"buffer":0,
			"byteLength":360,
			"byteOffset":23544,
			"target":34963
		},
		{
			"buffer":0,
			"byteLength":3168,
			"byteOffset":23904,
			"target":34962
		},
		{
			"buffer":0,
			"byteLength":3168,
			"byteOffset":27072,
			"target":34962
		},
		{
			"buffer":0,
			"byteLength":2112,
			"byteOffset":30240,
			"target":34962
		},
		{
			"buffer":0,
			"byteLength":1440,
			"byteOffset":32352,
			"target":34962
		},
		{
			"buffer":0,
			"byteLength":1440,
			"byteOffset":33792,
			"target":34962
		},
		{
			"buffer":0,
			"byteLength":960,
			"byteOffset":35232,
			"target":34962
		},
		{
			"buffer":0,
			"byteLength":3168,
			"byteOffset":36192,
			"target":34962
		},
		{
			"buffer":0,
			"byteLength":3168,
			"byteOffset":39360,
			"target":34962
		},
		{
			"buffer":0,
			"byteLength":2112,
			"byteOffset":42528,
			"target":34962
		},
		{
			"buffer":0,
			"byteLength":1464,
			"byteOffset":44640,
			"target":34962
		},
		{
			"buffer":0,
			"byteLength":1464,
			"byteOffset":46104,
			"target":34962
		},
		{
			"buffer":0,
			"byteLength":976,
			"byteOffset":47568,
			"target":34962
		},
		{
			"buffer":0,
			"byteLength":360,
			"byteOffset":48544,
			"target":34963
		},
		{
			"buffer":0,
			"byteLength":3168,
			"byteOffset":48904,
			"target":34962
		},
		{
			"buffer":0,
			"byteLength":3168,
			"byteOffset":52072,
			"target":34962
		},
		{
			"buffer":0,
			"byteLength":2112,
			"byteOffset":55240,
			"target":34962
		},
		{
			"buffer":0,
			"byteLength":1440,
			"byteOffset":57352,
			"target":34962
		},
		{
			"buffer":0,
			"byteLength":1440,
			"byteOffset":58792,
			"target":34962
		},
		{
			"buffer":0,
			"byteLength":960,
			"byteOffset":60232,
			"target":34962
		},
		{
			"buffer":0,
			"byteLength":360,
			"byteOffset":61192,
			"target":34963
		},
		{
			"buffer":0,
			"byteLength":3168,
			"byteOffset":61552,
			"target":34962
		},
		{
			"buffer":0,
			"byteLength":3168,
			"byteOffset":64720,
			"target":34962
		},
		{
			"buffer":0,
			"byteLength":2112,
			"byteOffset":67888,
			"target":34962
		},
		{
			"buffer":0,
			"byteLength":1440,
			"byteOffset":70000,
			"target":34962
		},
		{
			"buffer":0,
			"byteLength":1440,
			"byteOffset":71440,
			"target":34962
		},
		{
			"buffer":0,
			"byteLength":960,
			"byteOffset":72880,
			"target":34962
		},
		{
			"buffer":0,
			"byteLength":360,
			"byteOffset":73840,
			"target":34963
		},
		{
			"buffer":0,
			"byteLength":3168,
			"byteOffset":74200,
			"target":34962
		},
		{
			"buffer":0,
			"byteLength":3168,
			"byteOffset":77368,
			"target":34962
		},
		{
			"buffer":0,
			"byteLength":2112,
			"byteOffset":80536,
			"target":34962
		},
		{
			"buffer":0,
			"byteLength":1440,
			"byteOffset":82648,
			"target":34962
		},
		{
			"buffer":0,
			"byteLength":1440,
			"byteOffset":84088,
			"target":34962
		},
		{
			"buffer":0,
			"byteLength":960,
			"byteOffset":85528,
			"target":34962
		},
		{
			"buffer":0,
			"byteLength":3168,
			"byteOffset":86488,
			"target":34962
		},
		{
			"buffer":0,
			"byteLength":3168,
			"byteOffset":89656,
			"target":34962
		},
		{
			"buffer":0,
			"byteLength":2112,
			"byteOffset":92824,
			"target":34962
		},
		{
			"buffer":0,
			"byteLength":1440,
			"byteOffset":94936,
			"target":34962
		},
		{
			"buffer":0,
			"byteLength":1440,
			"byteOffset":96376,
			"target":34962
		},
		{
			"buffer":0,
			"byteLength":960,
			"byteOffset":97816,
			"target":34962
		}
	],
	"buffers":[
		{
			"byteLength":98776,
			"uri":"drawer_normal.bin"
		}
	]
}
