{
	"asset":{
		"generator":"Khronos glTF Blender I/O v4.2.70",
		"version":"2.0"
	},
	"scene":0,
	"scenes":[
		{
			"name":"Scene",
			"nodes":[
				0
			]
		}
	],
	"nodes":[
		{
			"mesh":0,
			"name":"Bed single"
		}
	],
	"materials":[
		{
			"doubleSided":true,
			"name":"Brown.002",
			"pbrMetallicRoughness":{
				"baseColorFactor":[
					0.3505583703517914,
					0.12707479298114777,
					0.04741016775369644,
					1
				],
				"metallicFactor":0
			}
		},
		{
			"doubleSided":true,
			"name":"White.001",
			"pbrMetallicRoughness":{
				"baseColorFactor":[
					0.6353368163108826,
					0.6353368163108826,
					0.6353368163108826,
					1
				],
				"metallicFactor":0,
				"roughnessFactor":0.5
			}
		},
		{
			"doubleSided":true,
			"name":"Red.002",
			"pbrMetallicRoughness":{
				"baseColorFactor":[
					0.34115174412727356,
					0.026578301563858986,
					0.013850972056388855,
					1
				],
				"metallicFactor":0,
				"roughnessFactor":0.5
			}
		}
	],
	"meshes":[
		{
			"name":"Cube.003",
			"primitives":[
				{
					"attributes":{
						"POSITION":0,
						"NORMAL":1,
						"TEXCOORD_0":2
					},
					"indices":3,
					"material":0
				},
				{
					"attributes":{
						"POSITION":4,
						"NORMAL":5,
						"TEXCOORD_0":6
					},
					"indices":7,
					"material":1
				},
				{
					"attributes":{
						"POSITION":8,
						"NORMAL":9,
						"TEXCOORD_0":10
					},
					"indices":11,
					"material":2
				}
			]
		}
	],
	"accessors":[
		{
			"bufferView":0,
			"componentType":5126,
			"count":886,
			"max":[
				2.3789050579071045,
				2.1457061767578125,
				6.4162750244140625
			],
			"min":[
				-2.3918838500976562,
				-1.4235202074050903,
				-4.6816229820251465
			],
			"type":"VEC3"
		},
		{
			"bufferView":1,
			"componentType":5126,
			"count":886,
			"type":"VEC3"
		},
		{
			"bufferView":2,
			"componentType":5126,
			"count":886,
			"type":"VEC2"
		},
		{
			"bufferView":3,
			"componentType":5123,
			"count":1428,
			"type":"SCALAR"
		},
		{
			"bufferView":4,
			"componentType":5126,
			"count":816,
			"max":[
				2.473830223083496,
				1.0757625102996826,
				6.03859806060791
			],
			"min":[
				-2.4868087768554688,
				-0.7958800196647644,
				-4.319197177886963
			],
			"type":"VEC3"
		},
		{
			"bufferView":5,
			"componentType":5126,
			"count":816,
			"type":"VEC3"
		},
		{
			"bufferView":6,
			"componentType":5126,
			"count":816,
			"type":"VEC2"
		},
		{
			"bufferView":7,
			"componentType":5123,
			"count":1212,
			"type":"SCALAR"
		},
		{
			"bufferView":8,
			"componentType":5126,
			"count":132,
			"max":[
				2.4091179370880127,
				0.5261704921722412,
				6.1666364669799805
			],
			"min":[
				-2.4220964908599854,
				-0.4263494610786438,
				-1.682698130607605
			],
			"type":"VEC3"
		},
		{
			"bufferView":9,
			"componentType":5126,
			"count":132,
			"type":"VEC3"
		},
		{
			"bufferView":10,
			"componentType":5126,
			"count":132,
			"type":"VEC2"
		},
		{
			"bufferView":11,
			"componentType":5123,
			"count":198,
			"type":"SCALAR"
		}
	],
	"bufferViews":[
		{
			"buffer":0,
			"byteLength":10632,
			"byteOffset":0,
			"target":34962
		},
		{
			"buffer":0,
			"byteLength":10632,
			"byteOffset":10632,
			"target":34962
		},
		{
			"buffer":0,
			"byteLength":7088,
			"byteOffset":21264,
			"target":34962
		},
		{
			"buffer":0,
			"byteLength":2856,
			"byteOffset":28352,
			"target":34963
		},
		{
			"buffer":0,
			"byteLength":9792,
			"byteOffset":31208,
			"target":34962
		},
		{
			"buffer":0,
			"byteLength":9792,
			"byteOffset":41000,
			"target":34962
		},
		{
			"buffer":0,
			"byteLength":6528,
			"byteOffset":50792,
			"target":34962
		},
		{
			"buffer":0,
			"byteLength":2424,
			"byteOffset":57320,
			"target":34963
		},
		{
			"buffer":0,
			"byteLength":1584,
			"byteOffset":59744,
			"target":34962
		},
		{
			"buffer":0,
			"byteLength":1584,
			"byteOffset":61328,
			"target":34962
		},
		{
			"buffer":0,
			"byteLength":1056,
			"byteOffset":62912,
			"target":34962
		},
		{
			"buffer":0,
			"byteLength":396,
			"byteOffset":63968,
			"target":34963
		}
	],
	"buffers":[
		{
			"byteLength":64364,
			"uri":"bed.bin"
		}
	]
}
