{
	"asset":{
		"generator":"Khronos glTF Blender I/O v4.2.70",
		"version":"2.0"
	},
	"scene":0,
	"scenes":[
		{
			"name":"Scene",
			"nodes":[
				0
			]
		}
	],
	"nodes":[
		{
			"mesh":0,
			"name":"Table A"
		}
	],
	"materials":[
		{
			"doubleSided":true,
			"name":"Brown.029",
			"pbrMetallicRoughness":{
				"baseColorFactor":[
					0.3505583703517914,
					0.12707479298114777,
					0.04741016775369644,
					1
				],
				"metallicFactor":0
			}
		}
	],
	"meshes":[
		{
			"name":"Cube.025",
			"primitives":[
				{
					"attributes":{
						"POSITION":0,
						"NORMAL":1,
						"TEXCOORD_0":2
					},
					"indices":3,
					"material":0
				}
			]
		}
	],
	"accessors":[
		{
			"bufferView":0,
			"componentType":5126,
			"count":504,
			"max":[
				4.151491641998291,
				1.7989510297775269,
				1.7788511514663696
			],
			"min":[
				-4.141878604888916,
				-2.181178331375122,
				-1.7793834209442139
			],
			"type":"VEC3"
		},
		{
			"bufferView":1,
			"componentType":5126,
			"count":504,
			"type":"VEC3"
		},
		{
			"bufferView":2,
			"componentType":5126,
			"count":504,
			"type":"VEC2"
		},
		{
			"bufferView":3,
			"componentType":5123,
			"count":660,
			"type":"SCALAR"
		}
	],
	"bufferViews":[
		{
			"buffer":0,
			"byteLength":6048,
			"byteOffset":0,
			"target":34962
		},
		{
			"buffer":0,
			"byteLength":6048,
			"byteOffset":6048,
			"target":34962
		},
		{
			"buffer":0,
			"byteLength":4032,
			"byteOffset":12096,
			"target":34962
		},
		{
			"buffer":0,
			"byteLength":1320,
			"byteOffset":16128,
			"target":34963
		}
	],
	"buffers":[
		{
			"byteLength":17448,
			"uri":"tableA.bin"
		}
	]
}
