{
	"asset":{
		"generator":"Khronos glTF Blender I/O v4.1.62",
		"version":"2.0"
	},
	"scene":0,
	"scenes":[
		{
			"name":"Scene",
			"nodes":[
				0
			]
		}
	],
	"nodes":[
		{
			"mesh":0,
			"name":"wall.001",
			"scale":[
				60,
				20,
				1
			],
			"translation":[
				0,
				20,
				121
			]
		}
	],
	"materials":[
		{
			"doubleSided":true,
			"name":"wall.005",
			"pbrMetallicRoughness":{
				"baseColorFactor":[
					0.4499419629573822,
					0.5601692199707031,
					0.6129999756813049,
					1
				],
				"metallicFactor":0,
				"roughnessFactor":0.5
			}
		},
		{
			"doubleSided":true,
			"name":"door.001",
			"pbrMetallicRoughness":{
				"baseColorFactor":[
					0.800000011920929,
					0.800000011920929,
					0.800000011920929,
					1
				],
				"metallicFactor":0,
				"roughnessFactor":0.5
			}
		},
		{
			"doubleSided":true,
			"name":"\u30de\u30c6\u30ea\u30a2\u30eb.001",
			"pbrMetallicRoughness":{
				"baseColorFactor":[
					0.8069537878036499,
					0.5906202793121338,
					0.11443610489368439,
					1
				],
				"metallicFactor":0,
				"roughnessFactor":0.5
			}
		}
	],
	"meshes":[
		{
			"name":"\u7acb\u65b9\u4f53.007",
			"primitives":[
				{
					"attributes":{
						"POSITION":0,
						"NORMAL":1,
						"TEXCOORD_0":2
					},
					"indices":3,
					"material":0
				},
				{
					"attributes":{
						"POSITION":4,
						"NORMAL":5,
						"TEXCOORD_0":6
					},
					"indices":7,
					"material":1
				},
				{
					"attributes":{
						"POSITION":8,
						"NORMAL":9,
						"TEXCOORD_0":10
					},
					"indices":11,
					"material":2
				}
			]
		}
	],
	"accessors":[
		{
			"bufferView":0,
			"componentType":5126,
			"count":24,
			"max":[
				1,
				1,
				1
			],
			"min":[
				-1,
				-1,
				-1
			],
			"type":"VEC3"
		},
		{
			"bufferView":1,
			"componentType":5126,
			"count":24,
			"type":"VEC3"
		},
		{
			"bufferView":2,
			"componentType":5126,
			"count":24,
			"type":"VEC2"
		},
		{
			"bufferView":3,
			"componentType":5123,
			"count":36,
			"type":"SCALAR"
		},
		{
			"bufferView":4,
			"componentType":5126,
			"count":3296,
			"max":[
				0.1817253828048706,
				0.847678542137146,
				0.7585147619247437
			],
			"min":[
				-0.21827468276023865,
				-0.952321469783783,
				-3.962674140930176
			],
			"type":"VEC3"
		},
		{
			"bufferView":5,
			"componentType":5126,
			"count":3296,
			"type":"VEC3"
		},
		{
			"bufferView":6,
			"componentType":5126,
			"count":3296,
			"type":"VEC2"
		},
		{
			"bufferView":7,
			"componentType":5123,
			"count":5688,
			"type":"SCALAR"
		},
		{
			"bufferView":8,
			"componentType":5126,
			"count":2447,
			"max":[
				0.12213509529829025,
				0.5340299606323242,
				0.7543201446533203
			],
			"min":[
				-0.15634238719940186,
				-0.7427989840507507,
				-3.200406551361084
			],
			"type":"VEC3"
		},
		{
			"bufferView":9,
			"componentType":5126,
			"count":2447,
			"type":"VEC3"
		},
		{
			"bufferView":10,
			"componentType":5126,
			"count":2447,
			"type":"VEC2"
		},
		{
			"bufferView":11,
			"componentType":5123,
			"count":8058,
			"type":"SCALAR"
		}
	],
	"bufferViews":[
		{
			"buffer":0,
			"byteLength":288,
			"byteOffset":0,
			"target":34962
		},
		{
			"buffer":0,
			"byteLength":288,
			"byteOffset":288,
			"target":34962
		},
		{
			"buffer":0,
			"byteLength":192,
			"byteOffset":576,
			"target":34962
		},
		{
			"buffer":0,
			"byteLength":72,
			"byteOffset":768,
			"target":34963
		},
		{
			"buffer":0,
			"byteLength":39552,
			"byteOffset":840,
			"target":34962
		},
		{
			"buffer":0,
			"byteLength":39552,
			"byteOffset":40392,
			"target":34962
		},
		{
			"buffer":0,
			"byteLength":26368,
			"byteOffset":79944,
			"target":34962
		},
		{
			"buffer":0,
			"byteLength":11376,
			"byteOffset":106312,
			"target":34963
		},
		{
			"buffer":0,
			"byteLength":29364,
			"byteOffset":117688,
			"target":34962
		},
		{
			"buffer":0,
			"byteLength":29364,
			"byteOffset":147052,
			"target":34962
		},
		{
			"buffer":0,
			"byteLength":19576,
			"byteOffset":176416,
			"target":34962
		},
		{
			"buffer":0,
			"byteLength":16116,
			"byteOffset":195992,
			"target":34963
		}
	],
	"buffers":[
		{
			"byteLength":212108,
			"uri":"wall_back.bin"
		}
	]
}
