{
	"asset":{
		"generator":"Khronos glTF Blender I/O v4.1.62",
		"version":"2.0"
	},
	"scene":0,
	"scenes":[
		{
			"name":"Scene",
			"nodes":[
				0,
				1
			]
		}
	],
	"nodes":[
		{
			"mesh":0,
			"name":"\u7acb\u65b9\u4f53",
			"scale":[
				63,
				22,
				1.2000000476837158
			],
			"translation":[
				0,
				20,
				121
			]
		},
		{
			"mesh":1,
			"name":"wall.001",
			"scale":[
				60,
				20,
				1
			],
			"translation":[
				0,
				20,
				121
			]
		}
	],
	"materials":[
		{
			"doubleSided":true,
			"name":"\u30de\u30c6\u30ea\u30a2\u30eb.003",
			"pbrMetallicRoughness":{
				"baseColorFactor":[
					0.800000011920929,
					0.800000011920929,
					0.800000011920929,
					0
				],
				"metallicFactor":0,
				"roughnessFactor":0.5
			}
		},
		{
			"doubleSided":true,
			"name":"wall.006",
			"pbrMetallicRoughness":{
				"baseColorFactor":[
					0.4499419629573822,
					0.5601692199707031,
					0.6129999756813049,
					1
				],
				"metallicFactor":0,
				"roughnessFactor":0.5
			}
		},
		{
			"doubleSided":true,
			"name":"door.002",
			"pbrMetallicRoughness":{
				"baseColorFactor":[
					0.800000011920929,
					0.800000011920929,
					0.800000011920929,
					1
				],
				"metallicFactor":0,
				"roughnessFactor":0.5
			}
		},
		{
			"doubleSided":true,
			"name":"\u30de\u30c6\u30ea\u30a2\u30eb.002",
			"pbrMetallicRoughness":{
				"baseColorFactor":[
					0.8069537878036499,
					0.5906202793121338,
					0.11443610489368439,
					1
				],
				"metallicFactor":0,
				"roughnessFactor":0.5
			}
		}
	],
	"meshes":[
		{
			"name":"\u7acb\u65b9\u4f53",
			"primitives":[
				{
					"attributes":{
						"POSITION":0,
						"NORMAL":1,
						"TEXCOORD_0":2
					},
					"indices":3,
					"material":0
				}
			]
		},
		{
			"name":"\u7acb\u65b9\u4f53.008",
			"primitives":[
				{
					"attributes":{
						"POSITION":4,
						"NORMAL":5,
						"TEXCOORD_0":6
					},
					"indices":7,
					"material":1
				},
				{
					"attributes":{
						"POSITION":8,
						"NORMAL":9,
						"TEXCOORD_0":10
					},
					"indices":11,
					"material":2
				},
				{
					"attributes":{
						"POSITION":12,
						"NORMAL":13,
						"TEXCOORD_0":14
					},
					"indices":15,
					"material":3
				}
			]
		}
	],
	"accessors":[
		{
			"bufferView":0,
			"componentType":5126,
			"count":48,
			"max":[
				1,
				1,
				1
			],
			"min":[
				-1,
				-1,
				-3.749998092651367
			],
			"type":"VEC3"
		},
		{
			"bufferView":1,
			"componentType":5126,
			"count":48,
			"type":"VEC3"
		},
		{
			"bufferView":2,
			"componentType":5126,
			"count":48,
			"type":"VEC2"
		},
		{
			"bufferView":3,
			"componentType":5123,
			"count":72,
			"type":"SCALAR"
		},
		{
			"bufferView":4,
			"componentType":5126,
			"count":24,
			"max":[
				1,
				1,
				1
			],
			"min":[
				-1,
				-1,
				-1
			],
			"type":"VEC3"
		},
		{
			"bufferView":5,
			"componentType":5126,
			"count":24,
			"type":"VEC3"
		},
		{
			"bufferView":6,
			"componentType":5126,
			"count":24,
			"type":"VEC2"
		},
		{
			"bufferView":7,
			"componentType":5123,
			"count":36,
			"type":"SCALAR"
		},
		{
			"bufferView":8,
			"componentType":5126,
			"count":3523,
			"max":[
				0.1817253828048706,
				0.847678542137146,
				0.7585147619247437
			],
			"min":[
				-0.21827468276023865,
				-0.952321469783783,
				-3.962674140930176
			],
			"type":"VEC3"
		},
		{
			"bufferView":9,
			"componentType":5126,
			"count":3523,
			"type":"VEC3"
		},
		{
			"bufferView":10,
			"componentType":5126,
			"count":3523,
			"type":"VEC2"
		},
		{
			"bufferView":11,
			"componentType":5123,
			"count":5688,
			"type":"SCALAR"
		},
		{
			"bufferView":12,
			"componentType":5126,
			"count":2496,
			"max":[
				0.12213509529829025,
				0.5340299606323242,
				0.7543201446533203
			],
			"min":[
				-0.15634238719940186,
				-0.7427989840507507,
				-3.200406551361084
			],
			"type":"VEC3"
		},
		{
			"bufferView":13,
			"componentType":5126,
			"count":2496,
			"type":"VEC3"
		},
		{
			"bufferView":14,
			"componentType":5126,
			"count":2496,
			"type":"VEC2"
		},
		{
			"bufferView":15,
			"componentType":5123,
			"count":8058,
			"type":"SCALAR"
		}
	],
	"bufferViews":[
		{
			"buffer":0,
			"byteLength":576,
			"byteOffset":0,
			"target":34962
		},
		{
			"buffer":0,
			"byteLength":576,
			"byteOffset":576,
			"target":34962
		},
		{
			"buffer":0,
			"byteLength":384,
			"byteOffset":1152,
			"target":34962
		},
		{
			"buffer":0,
			"byteLength":144,
			"byteOffset":1536,
			"target":34963
		},
		{
			"buffer":0,
			"byteLength":288,
			"byteOffset":1680,
			"target":34962
		},
		{
			"buffer":0,
			"byteLength":288,
			"byteOffset":1968,
			"target":34962
		},
		{
			"buffer":0,
			"byteLength":192,
			"byteOffset":2256,
			"target":34962
		},
		{
			"buffer":0,
			"byteLength":72,
			"byteOffset":2448,
			"target":34963
		},
		{
			"buffer":0,
			"byteLength":42276,
			"byteOffset":2520,
			"target":34962
		},
		{
			"buffer":0,
			"byteLength":42276,
			"byteOffset":44796,
			"target":34962
		},
		{
			"buffer":0,
			"byteLength":28184,
			"byteOffset":87072,
			"target":34962
		},
		{
			"buffer":0,
			"byteLength":11376,
			"byteOffset":115256,
			"target":34963
		},
		{
			"buffer":0,
			"byteLength":29952,
			"byteOffset":126632,
			"target":34962
		},
		{
			"buffer":0,
			"byteLength":29952,
			"byteOffset":156584,
			"target":34962
		},
		{
			"buffer":0,
			"byteLength":19968,
			"byteOffset":186536,
			"target":34962
		},
		{
			"buffer":0,
			"byteLength":16116,
			"byteOffset":206504,
			"target":34963
		}
	],
	"buffers":[
		{
			"byteLength":222620,
			"uri":"wall_back1.bin"
		}
	]
}
